<svg viewBox="0 0 681 262" fill="none" xmlns="http://www.w3.org/2000/svg">
<g clip-path="url(#clip0_48_3)">
<path d="M38 -17V279" stroke="url(#paint0_linear_48_3)" stroke-opacity="0.4" stroke-width="0.5" stroke-dasharray="4 4"/>
<path d="M1 -17V279" stroke="url(#paint1_linear_48_3)" stroke-opacity="0.4" stroke-width="0.5" stroke-dasharray="4 4"/>
<path d="M681 -17V279" stroke="url(#paint2_linear_48_3)" stroke-opacity="0.4" stroke-width="0.5" stroke-dasharray="4 4"/>
<path d="M644 -17V279" stroke="url(#paint3_linear_48_3)" stroke-opacity="0.4" stroke-width="0.5" stroke-dasharray="4 4"/>
<path d="M677 91L3.05176e-05 91" stroke="url(#paint4_linear_48_3)" stroke-opacity="0.3" stroke-width="0.5" stroke-dasharray="4 4"/>
<path d="M677 54L3.05176e-05 54" stroke="url(#paint5_linear_48_3)" stroke-opacity="0.3" stroke-width="0.5" stroke-dasharray="4 4"/>
<path d="M677 242L3.05176e-05 242" stroke="url(#paint6_linear_48_3)" stroke-opacity="0.3" stroke-width="0.5" stroke-dasharray="4 4"/>
<path d="M677 20L3.05176e-05 20" stroke="url(#paint7_linear_48_3)" stroke-opacity="0.3" stroke-width="0.5" stroke-dasharray="4 4"/>
<path d="M677 208L3.05176e-05 208" stroke="url(#paint8_linear_48_3)" stroke-opacity="0.3" stroke-width="0.5" stroke-dasharray="4 4"/>
<path d="M677 171L3.05176e-05 171" stroke="url(#paint9_linear_48_3)" stroke-opacity="0.3" stroke-width="0.5" stroke-dasharray="4 4"/>
<path d="M95 -15V279" stroke="url(#paint10_linear_48_3)" stroke-opacity="0.35" stroke-width="0.5" stroke-dasharray="2 2"/>
<path d="M128 -15V279" stroke="url(#paint11_linear_48_3)" stroke-opacity="0.35" stroke-width="0.5" stroke-dasharray="2 2"/>
<path d="M213 -15V279" stroke="url(#paint12_linear_48_3)" stroke-opacity="0.35" stroke-width="0.5" stroke-dasharray="2 2"/>
<path d="M240 -15V279" stroke="url(#paint13_linear_48_3)" stroke-opacity="0.35" stroke-width="0.5" stroke-dasharray="2 2"/>
<path d="M263 -15V279" stroke="url(#paint14_linear_48_3)" stroke-opacity="0.35" stroke-width="0.5" stroke-dasharray="2 2"/>
<path d="M299 -15V279" stroke="url(#paint15_linear_48_3)" stroke-opacity="0.35" stroke-width="0.5" stroke-dasharray="2 2"/>
<path d="M358 -15V279" stroke="url(#paint16_linear_48_3)" stroke-opacity="0.35" stroke-width="0.5" stroke-dasharray="2 2"/>
<path d="M406 -15V279" stroke="url(#paint17_linear_48_3)" stroke-opacity="0.35" stroke-width="0.5" stroke-dasharray="2 2"/>
<path d="M470 -15V279" stroke="url(#paint18_linear_48_3)" stroke-opacity="0.35" stroke-width="0.5" stroke-dasharray="2 2"/>
<path d="M532 -15V279" stroke="url(#paint19_linear_48_3)" stroke-opacity="0.35" stroke-width="0.5" stroke-dasharray="2 2"/>
<path d="M575 -15V279" stroke="url(#paint20_linear_48_3)" stroke-opacity="0.35" stroke-width="0.5" stroke-dasharray="2 2"/>
<circle cx="118" cy="131" r="40" stroke="url(#paint21_linear_48_3)" stroke-opacity="0.35" stroke-width="0.5" stroke-dasharray="6 3"/>
<circle cx="323" cy="132" r="40" stroke="url(#paint22_linear_48_3)" stroke-opacity="0.35" stroke-width="0.5" stroke-dasharray="6 3"/>
<circle cx="429" cy="132" r="40" stroke="url(#paint23_linear_48_3)" stroke-opacity="0.35" stroke-width="0.5" stroke-dasharray="6 3"/>
<circle cx="535" cy="131" r="40" stroke="url(#paint24_linear_48_3)" stroke-opacity="0.35" stroke-width="0.5" stroke-dasharray="6 3"/>
<path d="M38.5 279L4.5 -15" stroke="url(#paint25_linear_48_3)" stroke-opacity="0.25" stroke-width="0.5" stroke-dasharray="2 2"/>
<path d="M1 279L35 -15" stroke="url(#paint26_linear_48_3)" stroke-opacity="0.25" stroke-width="0.5" stroke-dasharray="2 2"/>
<path d="M680.5 279L646.5 -15" stroke="url(#paint27_linear_48_3)" stroke-opacity="0.25" stroke-width="0.5" stroke-dasharray="2 2"/>
<path d="M643 279L677 -15" stroke="url(#paint28_linear_48_3)" stroke-opacity="0.25" stroke-width="0.5" stroke-dasharray="2 2"/>
<rect x="71.5" y="113.5" width="93" height="32" rx="4.5" stroke="url(#paint29_linear_48_3)" stroke-dasharray="2 2"/>
<path d="M92.9673 123.107C92.9673 122.673 93.2406 122.456 93.7871 122.456C95.2471 122.456 96.284 122.815 96.8979 123.534L104.13 133.406V125.005C104.13 124.324 104.07 123.882 103.951 123.68C103.831 123.478 103.595 123.34 103.243 123.265L102.592 123.13V122.636H106.399V123.152L105.635 123.31C105.373 123.362 105.216 123.444 105.164 123.557C105.111 123.669 105.085 123.95 105.085 124.399V136.326H104.625L96.6958 125.634L96.6846 134.293C96.6846 134.787 96.7257 135.083 96.8081 135.18C96.8979 135.27 97.0589 135.337 97.291 135.382L98.0547 135.54V136H94.27V135.562L94.9214 135.427C95.3182 135.345 95.554 135.191 95.6289 134.967C95.7113 134.742 95.7524 134.312 95.7524 133.675V125.836C95.745 124.279 95.5316 123.493 95.1123 123.478C94.9176 123.478 94.6556 123.557 94.3262 123.714C93.9967 123.871 93.8058 123.95 93.7534 123.95C93.394 123.95 93.1507 123.785 93.0234 123.456C92.986 123.343 92.9673 123.227 92.9673 123.107ZM108.589 123.242C107.84 123.242 107.462 122.98 107.455 122.456C107.455 122.059 107.649 121.786 108.039 121.636C108.173 121.591 108.304 121.565 108.432 121.558C108.828 121.558 109.143 121.7 109.375 121.984C109.615 122.269 109.779 122.449 109.869 122.523C109.966 122.598 110.109 122.636 110.296 122.636H114.26V123.13L113.497 123.298C113.227 123.358 113.066 123.444 113.014 123.557C112.969 123.661 112.946 123.935 112.946 124.376V134.282C112.946 134.761 112.98 135.045 113.047 135.135C113.115 135.218 113.264 135.285 113.497 135.337L114.26 135.506V136H109.903V135.528L110.554 135.394C110.958 135.311 111.206 135.146 111.295 134.899C111.385 134.652 111.43 134.233 111.43 133.642V124.68C111.415 123.894 111.224 123.441 110.857 123.321C110.745 123.283 110.599 123.265 110.419 123.265L108.589 123.242ZM123.166 122.636H127.557V123.186C127.078 123.186 126.737 123.302 126.535 123.534C126.34 123.759 126.243 123.965 126.243 124.152C126.243 124.339 126.281 124.541 126.355 124.758C126.43 124.968 126.524 125.245 126.636 125.589L129.354 133.934L133.116 124.298C133.303 123.819 133.258 123.515 132.981 123.388C132.712 123.253 132.3 123.186 131.746 123.186V122.636H136.036V123.186C135.677 123.201 135.392 123.231 135.183 123.276C134.98 123.321 134.816 123.396 134.688 123.5C134.561 123.598 134.46 123.729 134.385 123.894C134.31 124.051 134.224 124.253 134.127 124.5L129.534 136H128.669L125.446 125.893L121.74 136H120.897L117.034 125.398C116.69 124.455 116.402 123.852 116.169 123.59C115.937 123.321 115.436 123.186 114.665 123.186V122.636H119.718V123.186C118.827 123.186 118.382 123.377 118.382 123.759C118.382 123.849 118.393 123.965 118.416 124.107C118.438 124.242 118.468 124.391 118.505 124.556C118.55 124.713 118.599 124.882 118.651 125.062C118.704 125.241 118.76 125.417 118.82 125.589L121.605 133.855L124.974 124.433C124.869 124.148 124.772 123.924 124.682 123.759C124.592 123.594 124.484 123.471 124.356 123.388C124.229 123.298 124.072 123.242 123.885 123.22C123.698 123.197 123.458 123.186 123.166 123.186V122.636ZM137.137 123.242C136.388 123.242 136.01 122.98 136.002 122.456C136.002 122.059 136.197 121.786 136.586 121.636C136.721 121.591 136.852 121.565 136.979 121.558C137.376 121.558 137.691 121.7 137.923 121.984C138.162 122.269 138.327 122.449 138.417 122.523C138.514 122.598 138.657 122.636 138.844 122.636H142.808V123.13L142.044 123.298C141.775 123.358 141.614 123.444 141.562 123.557C141.517 123.661 141.494 123.935 141.494 124.376V134.282C141.494 134.761 141.528 135.045 141.595 135.135C141.663 135.218 141.812 135.285 142.044 135.337L142.808 135.506V136H138.451V135.528L139.102 135.394C139.506 135.311 139.753 135.146 139.843 134.899C139.933 134.652 139.978 134.233 139.978 133.642V124.68C139.963 123.894 139.772 123.441 139.405 123.321C139.293 123.283 139.147 123.265 138.967 123.265L137.137 123.242Z" fill="url(#paint30_linear_48_3)"/>
<path d="M168 131.5L282.5 204" stroke="url(#paint31_linear_48_3)" stroke-linejoin="round" stroke-dasharray="4 4"/>
<path d="M168 130L284.5 55.5" stroke="url(#paint32_linear_48_3)" stroke-linejoin="round" stroke-dasharray="4 4"/>
<path d="M284 80.5V30C284 24.4772 288.477 20 294 20H565C570.523 20 575 24.4772 575 30V80.5C575 86.0229 570.523 90.5 565 90.5H294C288.477 90.5 284 86.0229 284 80.5Z" stroke="url(#paint33_linear_48_3)" stroke-linejoin="round" stroke-dasharray="4 4"/>
<path d="M284 231V180.5C284 174.977 288.477 170.5 294 170.5H565C570.523 170.5 575 174.977 575 180.5V231C575 236.523 570.523 241 565 241H294C288.477 241 284 236.523 284 231Z" stroke="url(#paint34_linear_48_3)" stroke-linejoin="round" stroke-dasharray="4 4"/>
<path d="M344.522 45.4258V44.8926H349.893C352.855 44.8926 355.009 45.5443 356.354 46.8477C357.7 48.1426 358.373 50.0215 358.373 52.4844C358.373 55.7174 356.985 57.9222 354.209 59.0986C352.796 59.6911 351.124 59.9915 349.194 60C345.589 60 343.316 59.0479 342.377 57.1436C342.064 56.5088 341.907 55.7767 341.907 54.9473C341.907 53.1107 342.749 51.7565 344.434 50.8848C344.975 50.6055 345.58 50.3939 346.249 50.25V47.5586C346.249 46.7884 346.186 46.2891 346.059 46.0605C345.932 45.8236 345.669 45.6628 345.271 45.5781L344.522 45.4258ZM352 51.2275C352 51.8115 351.691 52.1077 351.073 52.1162C350.752 52.1162 350.434 51.9512 350.121 51.6211C349.808 51.291 349.558 51.071 349.372 50.9609C349.127 50.8086 348.644 50.7663 347.925 50.834V59.1875C348.086 59.2044 348.272 59.2129 348.483 59.2129H349.334C351.196 59.2129 352.749 58.7855 353.993 57.9307C355.652 56.7796 356.486 54.9811 356.494 52.5352C356.494 49.2598 355.297 47.1523 352.901 46.2129C352.021 45.8743 351.018 45.7051 349.893 45.7051H347.925V50.0342C348.043 50.0257 348.196 50.0215 348.382 50.0215C349.981 50.0215 351.014 50.1484 351.479 50.4023C351.818 50.5885 351.992 50.8636 352 51.2275ZM346.249 51.1641C344.159 51.8242 343.109 53.1064 343.101 55.0107C343.101 56.6442 343.955 57.8376 345.665 58.5908C346.097 58.777 346.566 58.9251 347.074 59.0352C346.812 58.8913 346.537 58.6543 346.249 58.3242V51.1641ZM364.353 49.5137C365.978 49.5137 366.997 50.1484 367.412 51.418C367.598 51.9935 367.649 52.5563 367.564 53.1064H361.483C361.373 53.7158 361.318 54.2829 361.318 54.8076C361.318 56.5934 361.852 57.8122 362.918 58.4639C363.485 58.8109 364.166 58.9844 364.962 58.9844C365.791 58.9844 366.625 58.6797 367.463 58.0703L367.831 58.4512L367.476 58.8701C366.511 59.8773 365.368 60.3851 364.048 60.3936C363.261 60.3936 362.533 60.1566 361.864 59.6826C360.519 58.7262 359.846 57.279 359.846 55.3408C359.846 53.2926 360.417 51.7396 361.56 50.6816C362.423 49.9284 363.354 49.5391 364.353 49.5137ZM361.61 52.2812H365.927C365.927 51.6126 365.774 51.1175 365.47 50.7959C365.165 50.4658 364.776 50.3008 364.302 50.3008C363.565 50.3008 362.965 50.5208 362.499 50.9609C362.034 51.3926 361.737 51.8327 361.61 52.2812ZM369.646 50.7451V50.123L371.195 49.793V47.457C371.212 44.1562 372.473 42.5016 374.979 42.4932C375.673 42.4932 376.307 42.6032 376.883 42.8232C377.441 43.0602 377.721 43.3818 377.721 43.7881C377.729 44.1859 377.581 44.444 377.276 44.5625C377.175 44.5964 377.073 44.6175 376.972 44.626C376.599 44.6175 376.227 44.3763 375.854 43.9023C375.482 43.4199 375.11 43.1787 374.737 43.1787C374.069 43.1787 373.561 43.4072 373.214 43.8643C372.875 44.3128 372.706 45.0492 372.706 46.0732V49.793H375.397V50.7451H372.706V57.0801C372.706 57.8672 372.774 58.4089 372.909 58.7051C373.07 59.0521 373.616 59.3271 374.547 59.5303V60H369.659V59.5303C369.71 59.5133 369.883 59.4668 370.18 59.3906C370.848 59.2214 371.187 58.7262 371.195 57.9053V50.7451H369.646ZM385.693 58.9209C385.676 58.9632 385.613 59.0648 385.503 59.2256C385.401 59.3864 385.266 59.5557 385.097 59.7334C384.936 59.9111 384.75 60.0677 384.538 60.2031C384.326 60.347 384.106 60.4189 383.878 60.4189C383.548 60.4189 383.281 60.3428 383.078 60.1904C382.875 60.0381 382.714 59.8477 382.596 59.6191C382.477 59.3906 382.393 59.1494 382.342 58.8955C382.291 58.6331 382.257 58.4004 382.24 58.1973C382.181 58.248 382.071 58.3919 381.91 58.6289C381.749 58.8659 381.534 59.1198 381.263 59.3906C380.992 59.653 380.658 59.89 380.26 60.1016C379.87 60.3132 379.418 60.4189 378.901 60.4189C378.647 60.4189 378.381 60.3851 378.102 60.3174C377.831 60.2497 377.585 60.1354 377.365 59.9746C377.145 59.8053 376.963 59.5811 376.819 59.3018C376.675 59.014 376.604 58.6585 376.604 58.2354C376.604 57.6344 376.802 57.1351 377.2 56.7373C377.598 56.3395 378.093 56.0264 378.686 55.7979C379.278 55.5693 379.82 55.4043 380.311 55.3027C380.81 55.1927 381.402 55.07 382.088 54.9346V52.8145C382.088 52.6283 382.079 52.3955 382.062 52.1162C382.054 51.8285 382.003 51.5534 381.91 51.291C381.826 51.0202 381.682 50.7917 381.479 50.6055C381.284 50.4108 381 50.3135 380.628 50.3135C380.171 50.3135 379.794 50.4023 379.498 50.5801C379.21 50.7578 378.999 50.9186 378.863 51.0625C378.728 51.2064 378.542 51.418 378.305 51.6973C378.017 51.7311 377.788 51.7269 377.619 51.6846C377.458 51.6338 377.323 51.5618 377.213 51.4688C377.111 51.3672 377.061 51.2318 377.061 51.0625C377.061 50.8171 377.247 50.5843 377.619 50.3643C377.992 50.1442 378.474 49.9495 379.066 49.7803C379.667 49.6025 380.234 49.5137 380.768 49.5137C381.25 49.5137 381.656 49.5856 381.986 49.7295C382.316 49.8649 382.587 50.0553 382.799 50.3008C383.01 50.5378 383.171 50.8171 383.281 51.1387C383.391 51.4518 383.467 51.7861 383.51 52.1416C383.561 52.4971 383.586 52.861 383.586 53.2334C383.594 53.6058 383.599 53.9655 383.599 54.3125C383.599 54.9557 383.59 55.582 383.573 56.1914C383.556 56.8008 383.561 57.3467 383.586 57.8291C383.611 58.3031 383.675 58.6882 383.776 58.9844C383.886 59.2721 384.064 59.416 384.31 59.416C384.623 59.416 384.94 59.1283 385.262 58.5527L385.693 58.9209ZM382.088 55.7725C381.402 55.874 380.814 55.9883 380.323 56.1152C379.841 56.2422 379.456 56.403 379.168 56.5977C378.889 56.7923 378.673 57.0124 378.521 57.2578C378.377 57.4948 378.305 57.7868 378.305 58.1338C378.305 58.9801 378.677 59.4033 379.422 59.4033C379.693 59.4033 379.972 59.306 380.26 59.1113C380.548 58.9167 380.814 58.6839 381.06 58.4131C381.305 58.1338 381.521 57.846 381.707 57.5498C381.893 57.2536 382.02 57.0081 382.088 56.8135V55.7725ZM386.354 50.3008V49.793H389.261V55.0996C389.261 55.2181 389.248 55.6243 389.223 56.3184C389.155 58.2904 389.845 59.2848 391.292 59.3018C392.096 59.3018 392.794 58.9801 393.387 58.3369C393.979 57.6937 394.275 56.9658 394.275 56.1533V53.0684C394.275 51.9427 394.225 51.2275 394.123 50.9229C393.988 50.5166 393.505 50.3135 392.676 50.3135V49.793H395.85V57.2451C395.85 58.1676 396.04 58.7178 396.421 58.8955C396.599 58.9717 396.937 58.9971 397.437 58.9717L397.5 59.416L394.732 60.3682L394.275 58.6924L393.856 59.0986C392.866 59.9535 391.825 60.3851 390.733 60.3936C389.379 60.3936 388.486 59.8773 388.055 58.8447C387.801 58.2354 387.674 57.4059 387.674 56.3564V52.3828C387.674 51.3418 387.458 50.6816 387.026 50.4023C386.832 50.2839 386.607 50.25 386.354 50.3008ZM402.286 42.4932V57.1182C402.286 57.8799 402.312 58.3496 402.362 58.5273C402.455 58.8659 402.705 59.1198 403.111 59.2891C403.331 59.3737 403.615 59.4541 403.962 59.5303V60H399.176V59.5303C399.227 59.5133 399.409 59.4753 399.722 59.416C400.424 59.2721 400.775 58.7643 400.775 57.8926V45.083C400.775 44.5667 400.742 44.2451 400.674 44.1182C400.53 43.8473 400.073 43.7119 399.303 43.7119L399.239 43.3057L402.286 42.4932ZM410.487 50.7705H407.847V55.8232C407.847 56.5511 407.855 57.2367 407.872 57.8799C407.889 58.5146 407.986 58.9505 408.164 59.1875C408.35 59.416 408.617 59.5303 408.964 59.5303C409.582 59.5303 410.242 59.361 410.944 59.0225V59.708C410.047 60.182 409.281 60.4189 408.646 60.4189C408.046 60.4189 407.58 60.3174 407.25 60.1143C406.928 59.9196 406.691 59.6657 406.539 59.3525C406.395 59.0309 406.311 58.6712 406.285 58.2734C406.26 57.8757 406.247 57.4779 406.247 57.0801V51.6338C406.247 51.4476 406.243 51.3037 406.234 51.2021C406.234 51.1006 406.217 51.0117 406.184 50.9355C406.158 50.8594 406.09 50.8128 405.98 50.7959C405.87 50.779 405.705 50.7705 405.485 50.7705H404.774V50.1738C405.587 49.8268 406.146 49.4925 406.45 49.1709C406.755 48.8493 407.081 48.2907 407.428 47.4951H407.847V49.8184H410.487V50.7705ZM423.652 53.6904V54.7061H417.444V53.6904H423.652ZM431.536 48.7012C431.536 50.4277 431.921 51.2952 432.691 51.3037C432.827 51.3037 433.038 51.1768 433.326 50.9229C433.809 50.5674 434.215 50.377 434.545 50.3516C435.087 50.3516 435.383 50.6097 435.434 51.126C435.459 51.473 435.298 51.7438 434.951 51.9385C434.773 52.0316 434.587 52.0781 434.393 52.0781C433.428 52.0781 432.729 52.0062 432.298 51.8623C431.24 51.5153 430.512 50.8044 430.114 49.7295C429.937 49.2301 429.848 48.7012 429.848 48.1426C429.848 46.5345 430.601 45.5189 432.107 45.0957C432.573 44.9603 433.081 44.8926 433.631 44.8926H443.254C444.185 44.8926 444.786 44.6979 445.057 44.3086C445.234 44.0378 445.323 43.6315 445.323 43.0898H445.856C446.187 44.1986 446.182 44.9307 445.844 45.2861C445.505 45.6331 444.942 45.832 444.155 45.8828H439.356V57.3467C439.356 58.1253 439.411 58.6331 439.521 58.8701C439.632 59.0986 439.89 59.2552 440.296 59.3398L441.032 59.4795V60H436.106V59.4668L436.982 59.2764C437.296 59.2087 437.49 59.1113 437.566 58.9844C437.634 58.8405 437.668 58.5316 437.668 58.0576V45.8828H433.479C432.497 45.8828 431.883 46.4668 431.638 47.6348C431.57 47.9648 431.536 48.3203 431.536 48.7012ZM450.198 49.5137C451.823 49.5137 452.843 50.1484 453.258 51.418C453.444 51.9935 453.495 52.5563 453.41 53.1064H447.329C447.219 53.7158 447.164 54.2829 447.164 54.8076C447.164 56.5934 447.697 57.8122 448.764 58.4639C449.331 58.8109 450.012 58.9844 450.808 58.9844C451.637 58.9844 452.471 58.6797 453.309 58.0703L453.677 58.4512L453.321 58.8701C452.356 59.8773 451.214 60.3851 449.894 60.3936C449.106 60.3936 448.379 60.1566 447.71 59.6826C446.364 58.7262 445.691 57.279 445.691 55.3408C445.691 53.2926 446.263 51.7396 447.405 50.6816C448.269 49.9284 449.2 49.5391 450.198 49.5137ZM447.456 52.2812H451.772C451.772 51.6126 451.62 51.1175 451.315 50.7959C451.011 50.4658 450.621 50.3008 450.147 50.3008C449.411 50.3008 448.81 50.5208 448.345 50.9609C447.879 51.3926 447.583 51.8327 447.456 52.2812ZM461.751 50.6943C460.541 50.6943 459.479 51.016 458.564 51.6592V57.3467C458.564 58.1253 458.619 58.6331 458.729 58.8701C458.84 59.0986 459.098 59.2552 459.504 59.3398L460.253 59.4795V60H455.441V59.4668L456.317 59.2764C456.631 59.2087 456.825 59.1113 456.901 58.9844C456.969 58.8405 457.003 58.5316 457.003 58.0576V52.3447C457.003 51.7523 456.944 51.3545 456.825 51.1514C456.698 50.9398 456.258 50.834 455.505 50.834L455.441 50.4023L458.564 49.6152V50.7324C460.003 49.9453 461.264 49.556 462.348 49.5645C463.439 49.5645 464.231 50.0342 464.722 50.9736C466.338 50.0257 467.752 49.5518 468.962 49.5518C470.181 49.5518 471.014 50.1273 471.463 51.2783C471.683 51.8369 471.793 52.5182 471.793 53.3223V57.3721C471.793 58.1507 471.848 58.6585 471.958 58.8955C472.076 59.124 472.33 59.2764 472.72 59.3525L473.469 59.5049V60H468.67V59.4795L469.533 59.3018C469.855 59.234 470.049 59.1325 470.117 58.9971C470.185 58.8532 470.219 58.5443 470.219 58.0703V53.7285C470.202 51.7227 469.58 50.7113 468.353 50.6943C467.142 50.6943 466.025 51.0286 465.001 51.6973C465.128 52.1628 465.191 52.7044 465.191 53.3223V57.3721C465.191 58.1507 465.246 58.6585 465.356 58.8955C465.475 59.124 465.729 59.2764 466.118 59.3525L466.867 59.5049V60H462.068V59.4795L462.932 59.3018C463.253 59.234 463.448 59.1325 463.516 58.9971C463.583 58.8532 463.617 58.5443 463.617 58.0703V53.7285C463.6 51.7227 462.978 50.7113 461.751 50.6943ZM477.823 60.0889V65.8779C477.823 66.5973 477.904 67.0713 478.064 67.2998C478.234 67.5283 478.627 67.7272 479.245 67.8965L479.562 67.9854V68.4424H474.738V67.9727C475.415 67.8542 475.843 67.6764 476.021 67.4395C476.198 67.2025 476.287 66.9105 476.287 66.5635V52.3447C476.287 51.7692 476.257 51.4137 476.198 51.2783C476.071 50.9821 475.597 50.834 474.776 50.834L474.713 50.4023L477.823 49.6152V50.5039C478.695 49.8691 479.681 49.5518 480.781 49.5518C481.992 49.5518 483.028 50.0003 483.892 50.8975C484.755 51.7861 485.187 53.0684 485.187 54.7441C485.187 56.4115 484.7 57.7529 483.727 58.7686C482.686 59.8604 481.463 60.4105 480.058 60.4189C479.347 60.4189 478.602 60.3089 477.823 60.0889ZM477.823 58.8193C478.441 59.234 479.148 59.4414 479.943 59.4414C480.874 59.4414 481.721 59.1156 482.482 58.4639C483.253 57.8037 483.638 56.7373 483.638 55.2646C483.638 53.9443 483.384 52.9583 482.876 52.3066C482.377 51.6465 481.882 51.2148 481.391 51.0117C480.9 50.8001 480.409 50.707 479.918 50.7324C479.232 50.7663 478.538 51.0329 477.836 51.5322L477.823 58.8193ZM489.554 42.4932V57.1182C489.554 57.8799 489.579 58.3496 489.63 58.5273C489.723 58.8659 489.973 59.1198 490.379 59.2891C490.599 59.3737 490.882 59.4541 491.229 59.5303V60H486.443V59.5303C486.494 59.5133 486.676 59.4753 486.989 59.416C487.692 59.2721 488.043 58.7643 488.043 57.8926V45.083C488.043 44.5667 488.009 44.2451 487.941 44.1182C487.798 43.8473 487.34 43.7119 486.57 43.7119L486.507 43.3057L489.554 42.4932ZM501.957 58.9209C501.94 58.9632 501.877 59.0648 501.767 59.2256C501.665 59.3864 501.53 59.5557 501.36 59.7334C501.2 59.9111 501.013 60.0677 500.802 60.2031C500.59 60.347 500.37 60.4189 500.142 60.4189C499.812 60.4189 499.545 60.3428 499.342 60.1904C499.139 60.0381 498.978 59.8477 498.859 59.6191C498.741 59.3906 498.656 59.1494 498.605 58.8955C498.555 58.6331 498.521 58.4004 498.504 58.1973C498.445 58.248 498.335 58.3919 498.174 58.6289C498.013 58.8659 497.797 59.1198 497.526 59.3906C497.256 59.653 496.921 59.89 496.523 60.1016C496.134 60.3132 495.681 60.4189 495.165 60.4189C494.911 60.4189 494.645 60.3851 494.365 60.3174C494.094 60.2497 493.849 60.1354 493.629 59.9746C493.409 59.8053 493.227 59.5811 493.083 59.3018C492.939 59.014 492.867 58.6585 492.867 58.2354C492.867 57.6344 493.066 57.1351 493.464 56.7373C493.862 56.3395 494.357 56.0264 494.949 55.7979C495.542 55.5693 496.083 55.4043 496.574 55.3027C497.074 55.1927 497.666 55.07 498.352 54.9346V52.8145C498.352 52.6283 498.343 52.3955 498.326 52.1162C498.318 51.8285 498.267 51.5534 498.174 51.291C498.089 51.0202 497.945 50.7917 497.742 50.6055C497.548 50.4108 497.264 50.3135 496.892 50.3135C496.435 50.3135 496.058 50.4023 495.762 50.5801C495.474 50.7578 495.262 50.9186 495.127 51.0625C494.992 51.2064 494.805 51.418 494.568 51.6973C494.281 51.7311 494.052 51.7269 493.883 51.6846C493.722 51.6338 493.587 51.5618 493.477 51.4688C493.375 51.3672 493.324 51.2318 493.324 51.0625C493.324 50.8171 493.51 50.5843 493.883 50.3643C494.255 50.1442 494.738 49.9495 495.33 49.7803C495.931 49.6025 496.498 49.5137 497.031 49.5137C497.514 49.5137 497.92 49.5856 498.25 49.7295C498.58 49.8649 498.851 50.0553 499.062 50.3008C499.274 50.5378 499.435 50.8171 499.545 51.1387C499.655 51.4518 499.731 51.7861 499.773 52.1416C499.824 52.4971 499.85 52.861 499.85 53.2334C499.858 53.6058 499.862 53.9655 499.862 54.3125C499.862 54.9557 499.854 55.582 499.837 56.1914C499.82 56.8008 499.824 57.3467 499.85 57.8291C499.875 58.3031 499.938 58.6882 500.04 58.9844C500.15 59.2721 500.328 59.416 500.573 59.416C500.886 59.416 501.204 59.1283 501.525 58.5527L501.957 58.9209ZM498.352 55.7725C497.666 55.874 497.078 55.9883 496.587 56.1152C496.104 56.2422 495.719 56.403 495.432 56.5977C495.152 56.7923 494.937 57.0124 494.784 57.2578C494.64 57.4948 494.568 57.7868 494.568 58.1338C494.568 58.9801 494.941 59.4033 495.686 59.4033C495.956 59.4033 496.236 59.306 496.523 59.1113C496.811 58.9167 497.078 58.6839 497.323 58.4131C497.569 58.1338 497.785 57.846 497.971 57.5498C498.157 57.2536 498.284 57.0081 498.352 56.8135V55.7725ZM508.114 50.7705H505.474V55.8232C505.474 56.5511 505.482 57.2367 505.499 57.8799C505.516 58.5146 505.613 58.9505 505.791 59.1875C505.977 59.416 506.244 59.5303 506.591 59.5303C507.209 59.5303 507.869 59.361 508.571 59.0225V59.708C507.674 60.182 506.908 60.4189 506.273 60.4189C505.673 60.4189 505.207 60.3174 504.877 60.1143C504.555 59.9196 504.318 59.6657 504.166 59.3525C504.022 59.0309 503.938 58.6712 503.912 58.2734C503.887 57.8757 503.874 57.4779 503.874 57.0801V51.6338C503.874 51.4476 503.87 51.3037 503.861 51.2021C503.861 51.1006 503.844 51.0117 503.811 50.9355C503.785 50.8594 503.717 50.8128 503.607 50.7959C503.497 50.779 503.332 50.7705 503.112 50.7705H502.401V50.1738C503.214 49.8268 503.772 49.4925 504.077 49.1709C504.382 48.8493 504.708 48.2907 505.055 47.4951H505.474V49.8184H508.114V50.7705ZM514.233 49.5137C515.858 49.5137 516.878 50.1484 517.293 51.418C517.479 51.9935 517.53 52.5563 517.445 53.1064H511.364C511.254 53.7158 511.199 54.2829 511.199 54.8076C511.199 56.5934 511.732 57.8122 512.799 58.4639C513.366 58.8109 514.047 58.9844 514.843 58.9844C515.672 58.9844 516.506 58.6797 517.344 58.0703L517.712 58.4512L517.356 58.8701C516.392 59.8773 515.249 60.3851 513.929 60.3936C513.142 60.3936 512.414 60.1566 511.745 59.6826C510.399 58.7262 509.727 57.279 509.727 55.3408C509.727 53.2926 510.298 51.7396 511.44 50.6816C512.304 49.9284 513.235 49.5391 514.233 49.5137ZM511.491 52.2812H515.808C515.808 51.6126 515.655 51.1175 515.351 50.7959C515.046 50.4658 514.657 50.3008 514.183 50.3008C513.446 50.3008 512.845 50.5208 512.38 50.9609C511.914 51.3926 511.618 51.8327 511.491 52.2812Z" fill="url(#paint35_linear_48_3)"/>
<path d="M349.55 199.307C349.55 198.706 349.977 198.401 350.832 198.393H359.135C360.277 198.393 361.255 198.701 362.067 199.319C362.88 199.937 363.282 200.885 363.273 202.163C363.257 204.897 361.822 206.264 358.97 206.264C357.759 206.23 357.137 205.925 357.104 205.35C357.129 204.706 357.489 204.381 358.183 204.372C358.547 204.372 358.83 204.516 359.033 204.804C359.236 205.091 359.368 205.261 359.427 205.312C359.554 205.405 359.706 205.451 359.884 205.451C360.916 205.451 361.433 204.423 361.433 202.366C361.433 201.241 361.043 200.373 360.265 199.764C359.774 199.383 359.245 199.192 358.678 199.192H356.24V211.583C356.24 212.133 356.287 212.463 356.38 212.573C356.473 212.675 356.655 212.751 356.926 212.802L357.789 212.979V213.5H352.851V213.005L353.587 212.853C354.035 212.759 354.302 212.586 354.387 212.332C354.48 212.078 354.526 211.591 354.526 210.872V201.376C354.476 200.216 354.209 199.506 353.727 199.243C353.557 199.159 353.354 199.116 353.117 199.116C352.889 199.116 352.567 199.281 352.152 199.611C351.594 200.06 351.103 200.288 350.68 200.297C350.265 200.297 349.973 200.187 349.804 199.967C349.634 199.738 349.55 199.518 349.55 199.307ZM370.586 204.956L369.202 204.791C368.508 204.799 367.941 205.151 367.501 205.845C367.349 206.099 367.272 206.484 367.272 207V211.52C367.272 212.146 367.548 212.565 368.098 212.776C368.106 212.785 368.258 212.831 368.555 212.916C368.851 212.992 369.012 213.035 369.037 213.043V213.5H364.226V213.043C364.251 213.026 364.336 213.001 364.479 212.967C365.089 212.823 365.478 212.599 365.647 212.294C365.732 212.125 365.779 211.938 365.787 211.735V205.489C365.787 205.083 365.571 204.838 365.14 204.753C365.013 204.728 364.738 204.706 364.314 204.689L364.251 204.245L367.374 203.052L367.399 205.058L367.844 204.588C368.8 203.699 369.735 203.255 370.649 203.255C371.191 203.255 371.466 203.517 371.475 204.042C371.475 204.465 371.301 204.749 370.954 204.893C370.836 204.935 370.713 204.956 370.586 204.956ZM376.527 203.014C378.152 203.014 379.172 203.648 379.587 204.918C379.773 205.493 379.824 206.056 379.739 206.606H373.658C373.548 207.216 373.493 207.783 373.493 208.308C373.493 210.093 374.026 211.312 375.093 211.964C375.66 212.311 376.341 212.484 377.137 212.484C377.966 212.484 378.8 212.18 379.638 211.57L380.006 211.951L379.65 212.37C378.686 213.377 377.543 213.885 376.223 213.894C375.436 213.894 374.708 213.657 374.039 213.183C372.693 212.226 372.021 210.779 372.021 208.841C372.021 206.793 372.592 205.24 373.734 204.182C374.598 203.428 375.529 203.039 376.527 203.014ZM373.785 205.781H378.102C378.102 205.113 377.949 204.618 377.645 204.296C377.34 203.966 376.951 203.801 376.477 203.801C375.74 203.801 375.139 204.021 374.674 204.461C374.208 204.893 373.912 205.333 373.785 205.781ZM388.194 207.19V208.206H381.986V207.19H388.194ZM392.854 195.993V203.979C393.7 203.361 394.703 203.052 395.862 203.052C397.03 203.052 398.042 203.5 398.896 204.397C399.76 205.286 400.191 206.568 400.191 208.244C400.191 209.911 399.705 211.257 398.731 212.281C397.69 213.373 396.467 213.919 395.062 213.919C394.47 213.919 393.856 213.843 393.222 213.69C392.595 213.538 392.117 213.386 391.787 213.233L391.292 213.005V198.723C391.292 198.139 391.267 197.783 391.216 197.656C391.097 197.36 390.623 197.212 389.794 197.212L389.73 196.78L392.854 195.993ZM392.854 212.319C393.539 212.734 394.263 212.941 395.024 212.941C395.913 212.941 396.738 212.616 397.5 211.964C398.262 211.312 398.643 210.246 398.643 208.765C398.643 206.835 398.029 205.498 396.802 204.753C396.235 204.414 395.63 204.245 394.986 204.245C394.242 204.237 393.531 204.507 392.854 205.058V212.319ZM401.347 203.801V203.293H404.254V208.6C404.254 208.718 404.241 209.124 404.216 209.818C404.148 211.79 404.838 212.785 406.285 212.802C407.089 212.802 407.787 212.48 408.38 211.837C408.972 211.194 409.269 210.466 409.269 209.653V206.568C409.269 205.443 409.218 204.728 409.116 204.423C408.981 204.017 408.498 203.813 407.669 203.813V203.293H410.843V210.745C410.843 211.668 411.033 212.218 411.414 212.396C411.592 212.472 411.93 212.497 412.43 212.472L412.493 212.916L409.726 213.868L409.269 212.192L408.85 212.599C407.859 213.453 406.818 213.885 405.727 213.894C404.372 213.894 403.479 213.377 403.048 212.345C402.794 211.735 402.667 210.906 402.667 209.856V205.883C402.667 204.842 402.451 204.182 402.02 203.902C401.825 203.784 401.601 203.75 401.347 203.801ZM417.495 203.115V210.847C417.495 211.625 417.55 212.133 417.66 212.37C417.77 212.599 418.028 212.755 418.435 212.84L419.184 212.979V213.5H414.372V212.967L415.248 212.776C415.561 212.709 415.756 212.611 415.832 212.484C415.9 212.34 415.934 212.032 415.934 211.558V205.845C415.934 205.261 415.908 204.905 415.857 204.778C415.739 204.482 415.265 204.334 414.436 204.334L414.372 203.902L417.495 203.115ZM415.324 198.151C415.324 197.855 415.422 197.605 415.616 197.402C415.819 197.191 416.069 197.085 416.365 197.085C416.653 197.085 416.898 197.191 417.102 197.402C417.313 197.605 417.419 197.855 417.419 198.151C417.419 198.439 417.313 198.685 417.102 198.888C416.898 199.082 416.653 199.18 416.365 199.18C416.069 199.18 415.819 199.082 415.616 198.888C415.422 198.685 415.324 198.439 415.324 198.151ZM423.855 195.993V210.618C423.855 211.38 423.881 211.85 423.932 212.027C424.025 212.366 424.274 212.62 424.681 212.789C424.901 212.874 425.184 212.954 425.531 213.03V213.5H420.745V213.03C420.796 213.013 420.978 212.975 421.291 212.916C421.993 212.772 422.345 212.264 422.345 211.393V198.583C422.345 198.067 422.311 197.745 422.243 197.618C422.099 197.347 421.642 197.212 420.872 197.212L420.809 196.806L423.855 195.993ZM432.057 204.271H429.416V209.323C429.416 210.051 429.424 210.737 429.441 211.38C429.458 212.015 429.556 212.451 429.733 212.688C429.92 212.916 430.186 213.03 430.533 213.03C431.151 213.03 431.811 212.861 432.514 212.522V213.208C431.617 213.682 430.851 213.919 430.216 213.919C429.615 213.919 429.149 213.817 428.819 213.614C428.498 213.42 428.261 213.166 428.108 212.853C427.965 212.531 427.88 212.171 427.854 211.773C427.829 211.376 427.816 210.978 427.816 210.58V205.134C427.816 204.948 427.812 204.804 427.804 204.702C427.804 204.601 427.787 204.512 427.753 204.436C427.728 204.359 427.66 204.313 427.55 204.296C427.44 204.279 427.275 204.271 427.055 204.271H426.344V203.674C427.156 203.327 427.715 202.993 428.02 202.671C428.324 202.349 428.65 201.791 428.997 200.995H429.416V203.318H432.057V204.271ZM438.239 199.307C438.239 198.706 438.667 198.401 439.521 198.393H447.824C448.967 198.393 449.944 198.701 450.757 199.319C451.569 199.937 451.971 200.885 451.963 202.163C451.946 204.897 450.511 206.264 447.659 206.264C446.449 206.23 445.827 205.925 445.793 205.35C445.818 204.706 446.178 204.381 446.872 204.372C447.236 204.372 447.52 204.516 447.723 204.804C447.926 205.091 448.057 205.261 448.116 205.312C448.243 205.405 448.396 205.451 448.573 205.451C449.606 205.451 450.122 204.423 450.122 202.366C450.122 201.241 449.733 200.373 448.954 199.764C448.463 199.383 447.934 199.192 447.367 199.192H444.93V211.583C444.93 212.133 444.976 212.463 445.069 212.573C445.162 212.675 445.344 212.751 445.615 212.802L446.479 212.979V213.5H441.54V213.005L442.276 212.853C442.725 212.759 442.992 212.586 443.076 212.332C443.169 212.078 443.216 211.591 443.216 210.872V201.376C443.165 200.216 442.898 199.506 442.416 199.243C442.247 199.159 442.044 199.116 441.807 199.116C441.578 199.116 441.257 199.281 440.842 199.611C440.283 200.06 439.792 200.288 439.369 200.297C438.954 200.297 438.662 200.187 438.493 199.967C438.324 199.738 438.239 199.518 438.239 199.307ZM459.275 204.956L457.892 204.791C457.198 204.799 456.631 205.151 456.19 205.845C456.038 206.099 455.962 206.484 455.962 207V211.52C455.962 212.146 456.237 212.565 456.787 212.776C456.796 212.785 456.948 212.831 457.244 212.916C457.54 212.992 457.701 213.035 457.727 213.043V213.5H452.915V213.043C452.94 213.026 453.025 213.001 453.169 212.967C453.778 212.823 454.168 212.599 454.337 212.294C454.422 212.125 454.468 211.938 454.477 211.735V205.489C454.477 205.083 454.261 204.838 453.829 204.753C453.702 204.728 453.427 204.706 453.004 204.689L452.94 204.245L456.063 203.052L456.089 205.058L456.533 204.588C457.49 203.699 458.425 203.255 459.339 203.255C459.881 203.255 460.156 203.517 460.164 204.042C460.164 204.465 459.991 204.749 459.644 204.893C459.525 204.935 459.402 204.956 459.275 204.956ZM460.71 208.638C460.71 207.097 461.15 205.794 462.03 204.728C462.91 203.653 463.981 203.115 465.242 203.115C466.52 203.115 467.637 203.615 468.594 204.613C469.55 205.612 470.028 206.869 470.028 208.384C470.028 209.899 469.614 211.16 468.784 212.167C467.828 213.326 466.728 213.906 465.483 213.906C464.155 213.915 463.029 213.42 462.106 212.421C461.184 211.414 460.718 210.153 460.71 208.638ZM465.052 204.067C464.155 204.067 463.465 204.474 462.982 205.286C462.5 206.099 462.259 207.11 462.259 208.32C462.259 209.522 462.563 210.597 463.173 211.545C463.791 212.484 464.603 212.958 465.61 212.967C466.55 212.967 467.252 212.556 467.718 211.735C468.192 210.906 468.429 209.933 468.429 208.815C468.429 207.622 468.141 206.535 467.565 205.553C466.99 204.571 466.152 204.076 465.052 204.067ZM472.072 221.98C471.463 221.98 471.154 221.773 471.146 221.358C471.146 221.045 471.239 220.8 471.425 220.622C471.619 220.453 471.785 220.368 471.92 220.368C472.064 220.368 472.275 220.402 472.555 220.47C472.842 220.537 473.012 220.495 473.062 220.343C473.122 220.19 473.151 219.962 473.151 219.657V205.845C473.151 205.261 473.126 204.905 473.075 204.778C472.957 204.482 472.487 204.334 471.666 204.334L471.603 203.902L474.726 203.115V214.719C474.726 216.784 474.489 218.506 474.015 219.886C473.549 221.274 472.902 221.972 472.072 221.98ZM472.491 198.151C472.491 197.855 472.589 197.605 472.783 197.402C472.986 197.191 473.236 197.085 473.532 197.085C473.82 197.085 474.065 197.191 474.269 197.402C474.48 197.605 474.586 197.855 474.586 198.151C474.586 198.439 474.48 198.685 474.269 198.888C474.065 199.082 473.82 199.18 473.532 199.18C473.236 199.18 472.986 199.082 472.783 198.888C472.589 198.685 472.491 198.439 472.491 198.151ZM481.721 203.014C483.346 203.014 484.366 203.648 484.78 204.918C484.966 205.493 485.017 206.056 484.933 206.606H478.852C478.742 207.216 478.687 207.783 478.687 208.308C478.687 210.093 479.22 211.312 480.286 211.964C480.853 212.311 481.535 212.484 482.33 212.484C483.16 212.484 483.993 212.18 484.831 211.57L485.199 211.951L484.844 212.37C483.879 213.377 482.736 213.885 481.416 213.894C480.629 213.894 479.901 213.657 479.232 213.183C477.887 212.226 477.214 210.779 477.214 208.841C477.214 206.793 477.785 205.24 478.928 204.182C479.791 203.428 480.722 203.039 481.721 203.014ZM478.979 205.781H483.295C483.295 205.113 483.143 204.618 482.838 204.296C482.533 203.966 482.144 203.801 481.67 203.801C480.934 203.801 480.333 204.021 479.867 204.461C479.402 204.893 479.105 205.333 478.979 205.781ZM489.084 205.413C488.585 206.293 488.335 207.33 488.335 208.523C488.335 209.708 488.661 210.673 489.312 211.418C489.964 212.163 490.794 212.539 491.801 212.548C492.808 212.548 493.73 212.332 494.568 211.9L494.975 212.345C494.568 212.734 494.259 213.001 494.048 213.145C493.286 213.652 492.414 213.91 491.433 213.919C489.511 213.919 488.161 213.102 487.383 211.469C486.968 210.605 486.761 209.641 486.761 208.574C486.761 206.788 487.302 205.383 488.386 204.359C489.308 203.488 490.379 203.052 491.598 203.052C492.833 203.052 494.035 203.466 495.203 204.296C495.347 204.389 495.364 204.618 495.254 204.981C495.144 205.345 494.915 205.599 494.568 205.743C494.306 205.743 494.035 205.549 493.756 205.159C493.485 204.761 493.328 204.541 493.286 204.499C492.871 204.042 492.33 203.809 491.661 203.801C490.561 203.801 489.702 204.338 489.084 205.413ZM501.652 204.271H499.012V209.323C499.012 210.051 499.02 210.737 499.037 211.38C499.054 212.015 499.151 212.451 499.329 212.688C499.515 212.916 499.782 213.03 500.129 213.03C500.747 213.03 501.407 212.861 502.109 212.522V213.208C501.212 213.682 500.446 213.919 499.812 213.919C499.211 213.919 498.745 213.817 498.415 213.614C498.093 213.42 497.856 213.166 497.704 212.853C497.56 212.531 497.476 212.171 497.45 211.773C497.425 211.376 497.412 210.978 497.412 210.58V205.134C497.412 204.948 497.408 204.804 497.399 204.702C497.399 204.601 497.382 204.512 497.349 204.436C497.323 204.359 497.256 204.313 497.146 204.296C497.035 204.279 496.87 204.271 496.65 204.271H495.939V203.674C496.752 203.327 497.311 202.993 497.615 202.671C497.92 202.349 498.246 201.791 498.593 200.995H499.012V203.318H501.652V204.271ZM509.409 203.775L509.346 205.743H508.686C508.635 204.871 508.372 204.292 507.898 204.004C507.611 203.835 507.251 203.75 506.819 203.75C506.354 203.75 505.998 203.898 505.753 204.194C505.516 204.482 505.397 204.854 505.397 205.312C505.406 205.845 505.715 206.365 506.324 206.873L508 208.333C508.694 208.951 509.143 209.467 509.346 209.882C509.557 210.288 509.663 210.694 509.663 211.101C509.663 212.082 509.257 212.836 508.444 213.36C507.86 213.733 507.124 213.915 506.235 213.906C505.355 213.906 504.483 213.682 503.62 213.233L503.468 211.228H504.09C504.259 211.955 504.483 212.463 504.763 212.751C505.042 213.03 505.516 213.17 506.185 213.17C506.836 213.17 507.34 212.984 507.695 212.611C508.051 212.239 508.224 211.85 508.216 211.443C508.216 210.876 507.835 210.258 507.073 209.59L505.397 208.155C504.382 207.292 503.87 206.467 503.861 205.68C503.861 204.749 504.174 204.08 504.801 203.674C505.436 203.259 506.163 203.052 506.984 203.052C507.839 203.052 508.647 203.293 509.409 203.775Z" fill="url(#paint36_linear_48_3)"/>
</g>
<defs>
<linearGradient id="paint0_linear_48_3" x1="39" y1="-17" x2="38.9999" y2="279" gradientUnits="userSpaceOnUse">
<stop stop-color="#F43F5E" stop-opacity="0"/>
<stop offset="0.21" stop-color="#F43F5E"/>
<stop offset="0.5" stop-color="#7E22CE"/>
<stop offset="0.785" stop-color="#60A5FA"/>
<stop offset="1" stop-color="#60A5FA" stop-opacity="0"/>
</linearGradient>
<linearGradient id="paint1_linear_48_3" x1="2" y1="-17" x2="1.9999" y2="279" gradientUnits="userSpaceOnUse">
<stop stop-color="#F43F5E" stop-opacity="0"/>
<stop offset="0.21" stop-color="#F43F5E"/>
<stop offset="0.5" stop-color="#7E22CE"/>
<stop offset="0.785" stop-color="#60A5FA"/>
<stop offset="1" stop-color="#60A5FA" stop-opacity="0"/>
</linearGradient>
<linearGradient id="paint2_linear_48_3" x1="682" y1="-17" x2="682" y2="279" gradientUnits="userSpaceOnUse">
<stop stop-color="#F43F5E" stop-opacity="0"/>
<stop offset="0.21" stop-color="#F43F5E"/>
<stop offset="0.5" stop-color="#7E22CE"/>
<stop offset="0.785" stop-color="#60A5FA"/>
<stop offset="1" stop-color="#60A5FA" stop-opacity="0"/>
</linearGradient>
<linearGradient id="paint3_linear_48_3" x1="645" y1="-17" x2="645" y2="279" gradientUnits="userSpaceOnUse">
<stop stop-color="#F43F5E" stop-opacity="0"/>
<stop offset="0.21" stop-color="#F43F5E"/>
<stop offset="0.5" stop-color="#7E22CE"/>
<stop offset="0.785" stop-color="#60A5FA"/>
<stop offset="1" stop-color="#60A5FA" stop-opacity="0"/>
</linearGradient>
<linearGradient id="paint4_linear_48_3" x1="677" y1="92" x2="-4.12162e-05" y2="91.9994" gradientUnits="userSpaceOnUse">
<stop stop-color="#F43F5E" stop-opacity="0"/>
<stop offset="0.21" stop-color="#F43F5E"/>
<stop offset="0.5" stop-color="#7E22CE"/>
<stop offset="0.785" stop-color="#60A5FA"/>
<stop offset="1" stop-color="#60A5FA" stop-opacity="0"/>
</linearGradient>
<linearGradient id="paint5_linear_48_3" x1="677" y1="55" x2="-4.12162e-05" y2="54.9994" gradientUnits="userSpaceOnUse">
<stop stop-color="#F43F5E" stop-opacity="0"/>
<stop offset="0.21" stop-color="#F43F5E"/>
<stop offset="0.5" stop-color="#7E22CE"/>
<stop offset="0.785" stop-color="#60A5FA"/>
<stop offset="1" stop-color="#60A5FA" stop-opacity="0"/>
</linearGradient>
<linearGradient id="paint6_linear_48_3" x1="677" y1="243" x2="-4.12162e-05" y2="242.999" gradientUnits="userSpaceOnUse">
<stop stop-color="#F43F5E" stop-opacity="0"/>
<stop offset="0.21" stop-color="#F43F5E"/>
<stop offset="0.5" stop-color="#7E22CE"/>
<stop offset="0.785" stop-color="#60A5FA"/>
<stop offset="1" stop-color="#60A5FA" stop-opacity="0"/>
</linearGradient>
<linearGradient id="paint7_linear_48_3" x1="677" y1="21" x2="-4.12162e-05" y2="20.9994" gradientUnits="userSpaceOnUse">
<stop stop-color="#F43F5E" stop-opacity="0"/>
<stop offset="0.21" stop-color="#F43F5E"/>
<stop offset="0.5" stop-color="#7E22CE"/>
<stop offset="0.785" stop-color="#60A5FA"/>
<stop offset="1" stop-color="#60A5FA" stop-opacity="0"/>
</linearGradient>
<linearGradient id="paint8_linear_48_3" x1="677" y1="209" x2="-4.12162e-05" y2="208.999" gradientUnits="userSpaceOnUse">
<stop stop-color="#F43F5E" stop-opacity="0"/>
<stop offset="0.21" stop-color="#F43F5E"/>
<stop offset="0.5" stop-color="#7E22CE"/>
<stop offset="0.785" stop-color="#60A5FA"/>
<stop offset="1" stop-color="#60A5FA" stop-opacity="0"/>
</linearGradient>
<linearGradient id="paint9_linear_48_3" x1="677" y1="172" x2="-4.12162e-05" y2="171.999" gradientUnits="userSpaceOnUse">
<stop stop-color="#F43F5E" stop-opacity="0"/>
<stop offset="0.21" stop-color="#F43F5E"/>
<stop offset="0.5" stop-color="#7E22CE"/>
<stop offset="0.785" stop-color="#60A5FA"/>
<stop offset="1" stop-color="#60A5FA" stop-opacity="0"/>
</linearGradient>
<linearGradient id="paint10_linear_48_3" x1="96" y1="-15" x2="95.9999" y2="279" gradientUnits="userSpaceOnUse">
<stop stop-color="#F43F5E" stop-opacity="0"/>
<stop offset="0.21" stop-color="#F43F5E"/>
<stop offset="0.5" stop-color="#7E22CE"/>
<stop offset="0.785" stop-color="#60A5FA"/>
<stop offset="1" stop-color="#60A5FA" stop-opacity="0"/>
</linearGradient>
<linearGradient id="paint11_linear_48_3" x1="129" y1="-15" x2="129" y2="279" gradientUnits="userSpaceOnUse">
<stop stop-color="#F43F5E" stop-opacity="0"/>
<stop offset="0.21" stop-color="#F43F5E"/>
<stop offset="0.5" stop-color="#7E22CE"/>
<stop offset="0.785" stop-color="#60A5FA"/>
<stop offset="1" stop-color="#60A5FA" stop-opacity="0"/>
</linearGradient>
<linearGradient id="paint12_linear_48_3" x1="214" y1="-15" x2="214" y2="279" gradientUnits="userSpaceOnUse">
<stop stop-color="#F43F5E" stop-opacity="0"/>
<stop offset="0.21" stop-color="#F43F5E"/>
<stop offset="0.5" stop-color="#7E22CE"/>
<stop offset="0.785" stop-color="#60A5FA"/>
<stop offset="1" stop-color="#60A5FA" stop-opacity="0"/>
</linearGradient>
<linearGradient id="paint13_linear_48_3" x1="241" y1="-15" x2="241" y2="279" gradientUnits="userSpaceOnUse">
<stop stop-color="#F43F5E" stop-opacity="0"/>
<stop offset="0.21" stop-color="#F43F5E"/>
<stop offset="0.5" stop-color="#7E22CE"/>
<stop offset="0.785" stop-color="#60A5FA"/>
<stop offset="1" stop-color="#60A5FA" stop-opacity="0"/>
</linearGradient>
<linearGradient id="paint14_linear_48_3" x1="264" y1="-15" x2="264" y2="279" gradientUnits="userSpaceOnUse">
<stop stop-color="#F43F5E" stop-opacity="0"/>
<stop offset="0.21" stop-color="#F43F5E"/>
<stop offset="0.5" stop-color="#7E22CE"/>
<stop offset="0.785" stop-color="#60A5FA"/>
<stop offset="1" stop-color="#60A5FA" stop-opacity="0"/>
</linearGradient>
<linearGradient id="paint15_linear_48_3" x1="300" y1="-15" x2="300" y2="279" gradientUnits="userSpaceOnUse">
<stop stop-color="#F43F5E" stop-opacity="0"/>
<stop offset="0.21" stop-color="#F43F5E"/>
<stop offset="0.5" stop-color="#7E22CE"/>
<stop offset="0.785" stop-color="#60A5FA"/>
<stop offset="1" stop-color="#60A5FA" stop-opacity="0"/>
</linearGradient>
<linearGradient id="paint16_linear_48_3" x1="359" y1="-15" x2="359" y2="279" gradientUnits="userSpaceOnUse">
<stop stop-color="#F43F5E" stop-opacity="0"/>
<stop offset="0.21" stop-color="#F43F5E"/>
<stop offset="0.5" stop-color="#7E22CE"/>
<stop offset="0.785" stop-color="#60A5FA"/>
<stop offset="1" stop-color="#60A5FA" stop-opacity="0"/>
</linearGradient>
<linearGradient id="paint17_linear_48_3" x1="407" y1="-15" x2="407" y2="279" gradientUnits="userSpaceOnUse">
<stop stop-color="#F43F5E" stop-opacity="0"/>
<stop offset="0.21" stop-color="#F43F5E"/>
<stop offset="0.5" stop-color="#7E22CE"/>
<stop offset="0.785" stop-color="#60A5FA"/>
<stop offset="1" stop-color="#60A5FA" stop-opacity="0"/>
</linearGradient>
<linearGradient id="paint18_linear_48_3" x1="471" y1="-15" x2="471" y2="279" gradientUnits="userSpaceOnUse">
<stop stop-color="#F43F5E" stop-opacity="0"/>
<stop offset="0.21" stop-color="#F43F5E"/>
<stop offset="0.5" stop-color="#7E22CE"/>
<stop offset="0.785" stop-color="#60A5FA"/>
<stop offset="1" stop-color="#60A5FA" stop-opacity="0"/>
</linearGradient>
<linearGradient id="paint19_linear_48_3" x1="533" y1="-15" x2="533" y2="279" gradientUnits="userSpaceOnUse">
<stop stop-color="#F43F5E" stop-opacity="0"/>
<stop offset="0.21" stop-color="#F43F5E"/>
<stop offset="0.5" stop-color="#7E22CE"/>
<stop offset="0.785" stop-color="#60A5FA"/>
<stop offset="1" stop-color="#60A5FA" stop-opacity="0"/>
</linearGradient>
<linearGradient id="paint20_linear_48_3" x1="576" y1="-15" x2="576" y2="279" gradientUnits="userSpaceOnUse">
<stop stop-color="#F43F5E" stop-opacity="0"/>
<stop offset="0.21" stop-color="#F43F5E"/>
<stop offset="0.5" stop-color="#7E22CE"/>
<stop offset="0.785" stop-color="#60A5FA"/>
<stop offset="1" stop-color="#60A5FA" stop-opacity="0"/>
</linearGradient>
<linearGradient id="paint21_linear_48_3" x1="158" y1="91" x2="158" y2="171" gradientUnits="userSpaceOnUse">
<stop stop-color="#F43F5E" stop-opacity="0"/>
<stop offset="0.21" stop-color="#F43F5E"/>
<stop offset="0.5" stop-color="#7E22CE"/>
<stop offset="0.785" stop-color="#60A5FA"/>
<stop offset="1" stop-color="#60A5FA" stop-opacity="0"/>
</linearGradient>
<linearGradient id="paint22_linear_48_3" x1="363" y1="92" x2="363" y2="172" gradientUnits="userSpaceOnUse">
<stop stop-color="#F43F5E" stop-opacity="0"/>
<stop offset="0.21" stop-color="#F43F5E"/>
<stop offset="0.5" stop-color="#7E22CE"/>
<stop offset="0.785" stop-color="#60A5FA"/>
<stop offset="1" stop-color="#60A5FA" stop-opacity="0"/>
</linearGradient>
<linearGradient id="paint23_linear_48_3" x1="469" y1="92" x2="469" y2="172" gradientUnits="userSpaceOnUse">
<stop stop-color="#F43F5E" stop-opacity="0"/>
<stop offset="0.21" stop-color="#F43F5E"/>
<stop offset="0.5" stop-color="#7E22CE"/>
<stop offset="0.785" stop-color="#60A5FA"/>
<stop offset="1" stop-color="#60A5FA" stop-opacity="0"/>
</linearGradient>
<linearGradient id="paint24_linear_48_3" x1="575" y1="91" x2="575" y2="171" gradientUnits="userSpaceOnUse">
<stop stop-color="#F43F5E" stop-opacity="0"/>
<stop offset="0.21" stop-color="#F43F5E"/>
<stop offset="0.5" stop-color="#7E22CE"/>
<stop offset="0.785" stop-color="#60A5FA"/>
<stop offset="1" stop-color="#60A5FA" stop-opacity="0"/>
</linearGradient>
<linearGradient id="paint25_linear_48_3" x1="38.5001" y1="-15" x2="38.5001" y2="279" gradientUnits="userSpaceOnUse">
<stop stop-color="#F43F5E" stop-opacity="0"/>
<stop offset="0.21" stop-color="#F43F5E"/>
<stop offset="0.5" stop-color="#7E22CE"/>
<stop offset="0.785" stop-color="#60A5FA"/>
<stop offset="1" stop-color="#60A5FA" stop-opacity="0"/>
</linearGradient>
<linearGradient id="paint26_linear_48_3" x1="0.999909" y1="-15" x2="0.999912" y2="279" gradientUnits="userSpaceOnUse">
<stop stop-color="#F43F5E" stop-opacity="0"/>
<stop offset="0.21" stop-color="#F43F5E"/>
<stop offset="0.5" stop-color="#7E22CE"/>
<stop offset="0.785" stop-color="#60A5FA"/>
<stop offset="1" stop-color="#60A5FA" stop-opacity="0"/>
</linearGradient>
<linearGradient id="paint27_linear_48_3" x1="680.5" y1="-15" x2="680.5" y2="279" gradientUnits="userSpaceOnUse">
<stop stop-color="#F43F5E" stop-opacity="0"/>
<stop offset="0.21" stop-color="#F43F5E"/>
<stop offset="0.5" stop-color="#7E22CE"/>
<stop offset="0.785" stop-color="#60A5FA"/>
<stop offset="1" stop-color="#60A5FA" stop-opacity="0"/>
</linearGradient>
<linearGradient id="paint28_linear_48_3" x1="643" y1="-15" x2="643" y2="279" gradientUnits="userSpaceOnUse">
<stop stop-color="#F43F5E" stop-opacity="0"/>
<stop offset="0.21" stop-color="#F43F5E"/>
<stop offset="0.5" stop-color="#7E22CE"/>
<stop offset="0.785" stop-color="#60A5FA"/>
<stop offset="1" stop-color="#60A5FA" stop-opacity="0"/>
</linearGradient>
<linearGradient id="paint29_linear_48_3" x1="71.0001" y1="110.643" x2="90.5756" y2="170.386" gradientUnits="userSpaceOnUse">
<stop stop-color="#F43F5E"/>
<stop offset="0.5" stop-color="#7E22CE"/>
<stop offset="1" stop-color="#60A5FA"/>
</linearGradient>
<linearGradient id="paint30_linear_48_3" x1="78" y1="118" x2="96.7463" y2="169.159" gradientUnits="userSpaceOnUse">
<stop stop-color="#F43F5E"/>
<stop offset="0.52" stop-color="#7E22CE"/>
<stop offset="1" stop-color="#60A5FA"/>
</linearGradient>
<linearGradient id="paint31_linear_48_3" x1="168" y1="130.644" x2="228" y2="247.178" gradientUnits="userSpaceOnUse">
<stop stop-color="#F43F5E"/>
<stop offset="0.5" stop-color="#7E22CE"/>
<stop offset="1" stop-color="#60A5FA"/>
</linearGradient>
<linearGradient id="paint32_linear_48_3" x1="168" y1="46.5264" x2="242.574" y2="168.807" gradientUnits="userSpaceOnUse">
<stop stop-color="#F43F5E"/>
<stop offset="0.5" stop-color="#7E22CE"/>
<stop offset="1" stop-color="#60A5FA"/>
</linearGradient>
<linearGradient id="paint33_linear_48_3" x1="283.999" y1="19.168" x2="311.186" y2="157.171" gradientUnits="userSpaceOnUse">
<stop stop-color="#F43F5E"/>
<stop offset="0.5" stop-color="#7E22CE"/>
<stop offset="1" stop-color="#60A5FA"/>
</linearGradient>
<linearGradient id="paint34_linear_48_3" x1="283.999" y1="169.668" x2="311.186" y2="307.671" gradientUnits="userSpaceOnUse">
<stop stop-color="#F43F5E"/>
<stop offset="0.5" stop-color="#7E22CE"/>
<stop offset="1" stop-color="#60A5FA"/>
</linearGradient>
<linearGradient id="paint35_linear_48_3" x1="345.039" y1="52.8333" x2="356.945" y2="103.885" gradientUnits="userSpaceOnUse">
<stop stop-color="#F43F5E"/>
<stop offset="0.52" stop-color="#7E22CE"/>
<stop offset="1" stop-color="#60A5FA"/>
</linearGradient>
<linearGradient id="paint36_linear_48_3" x1="345.039" y1="206.333" x2="356.945" y2="257.385" gradientUnits="userSpaceOnUse">
<stop stop-color="#F43F5E"/>
<stop offset="0.52" stop-color="#7E22CE"/>
<stop offset="1" stop-color="#60A5FA"/>
</linearGradient>
<clipPath id="clip0_48_3">
<rect width="681" height="262" rx="20" fill="white"/>
</clipPath>
</defs>
</svg>
