<svg width="681" height="297" viewBox="0 0 681 297" fill="none" xmlns="http://www.w3.org/2000/svg">
<g clip-path="url(#clip0_66_2)">
<path d="M38 1V297" stroke="url(#paint0_linear_66_2)" stroke-opacity="0.4" stroke-width="0.5" stroke-dasharray="4 4"/>
<path d="M1 1V297" stroke="url(#paint1_linear_66_2)" stroke-opacity="0.4" stroke-width="0.5" stroke-dasharray="4 4"/>
<path d="M681 1V297" stroke="url(#paint2_linear_66_2)" stroke-opacity="0.4" stroke-width="0.5" stroke-dasharray="4 4"/>
<path d="M644 1V297" stroke="url(#paint3_linear_66_2)" stroke-opacity="0.4" stroke-width="0.5" stroke-dasharray="4 4"/>
<path d="M677 109L3.05176e-05 109" stroke="url(#paint4_linear_66_2)" stroke-opacity="0.3" stroke-width="0.5" stroke-dasharray="4 4"/>
<path d="M677 72L3.05176e-05 72" stroke="url(#paint5_linear_66_2)" stroke-opacity="0.3" stroke-width="0.5" stroke-dasharray="4 4"/>
<path d="M677 297L3.05176e-05 297" stroke="url(#paint6_linear_66_2)" stroke-opacity="0.3" stroke-width="0.5" stroke-dasharray="4 4"/>
<path d="M677 260L3.05176e-05 260" stroke="url(#paint7_linear_66_2)" stroke-opacity="0.3" stroke-width="0.5" stroke-dasharray="4 4"/>
<path d="M677 38L3.05176e-05 38" stroke="url(#paint8_linear_66_2)" stroke-opacity="0.3" stroke-width="0.5" stroke-dasharray="4 4"/>
<path d="M677 1.00003L3.05176e-05 1" stroke="url(#paint9_linear_66_2)" stroke-opacity="0.3" stroke-width="0.5" stroke-dasharray="4 4"/>
<path d="M677 226L3.05176e-05 226" stroke="url(#paint10_linear_66_2)" stroke-opacity="0.3" stroke-width="0.5" stroke-dasharray="4 4"/>
<path d="M677 189L3.05176e-05 189" stroke="url(#paint11_linear_66_2)" stroke-opacity="0.3" stroke-width="0.5" stroke-dasharray="4 4"/>
<path d="M95 3V297" stroke="url(#paint12_linear_66_2)" stroke-opacity="0.35" stroke-width="0.5" stroke-dasharray="2 2"/>
<path d="M128 3V297" stroke="url(#paint13_linear_66_2)" stroke-opacity="0.35" stroke-width="0.5" stroke-dasharray="2 2"/>
<path d="M213 3V297" stroke="url(#paint14_linear_66_2)" stroke-opacity="0.35" stroke-width="0.5" stroke-dasharray="2 2"/>
<path d="M240 3V297" stroke="url(#paint15_linear_66_2)" stroke-opacity="0.35" stroke-width="0.5" stroke-dasharray="2 2"/>
<path d="M263 3V297" stroke="url(#paint16_linear_66_2)" stroke-opacity="0.35" stroke-width="0.5" stroke-dasharray="2 2"/>
<path d="M299 3V297" stroke="url(#paint17_linear_66_2)" stroke-opacity="0.35" stroke-width="0.5" stroke-dasharray="2 2"/>
<path d="M358 3V297" stroke="url(#paint18_linear_66_2)" stroke-opacity="0.35" stroke-width="0.5" stroke-dasharray="2 2"/>
<path d="M406 3V297" stroke="url(#paint19_linear_66_2)" stroke-opacity="0.35" stroke-width="0.5" stroke-dasharray="2 2"/>
<path d="M470 3V297" stroke="url(#paint20_linear_66_2)" stroke-opacity="0.35" stroke-width="0.5" stroke-dasharray="2 2"/>
<path d="M532 3V297" stroke="url(#paint21_linear_66_2)" stroke-opacity="0.35" stroke-width="0.5" stroke-dasharray="2 2"/>
<path d="M575 3V297" stroke="url(#paint22_linear_66_2)" stroke-opacity="0.35" stroke-width="0.5" stroke-dasharray="2 2"/>
<circle cx="78" cy="149" r="40" stroke="url(#paint23_linear_66_2)" stroke-opacity="0.35" stroke-width="0.5" stroke-dasharray="6 3"/>
<circle cx="438" cy="149" r="40" stroke="url(#paint24_linear_66_2)" stroke-opacity="0.35" stroke-width="0.5" stroke-dasharray="6 3"/>
<circle cx="523" cy="149" r="40" stroke="url(#paint25_linear_66_2)" stroke-opacity="0.35" stroke-width="0.5" stroke-dasharray="6 3"/>
<circle cx="604" cy="149" r="40" stroke="url(#paint26_linear_66_2)" stroke-opacity="0.35" stroke-width="0.5" stroke-dasharray="6 3"/>
<path d="M38.5 297L4.5 3" stroke="url(#paint27_linear_66_2)" stroke-opacity="0.25" stroke-width="0.5" stroke-dasharray="2 2"/>
<path d="M1 297L35 3" stroke="url(#paint28_linear_66_2)" stroke-opacity="0.25" stroke-width="0.5" stroke-dasharray="2 2"/>
<path d="M680.5 297L646.5 3" stroke="url(#paint29_linear_66_2)" stroke-opacity="0.25" stroke-width="0.5" stroke-dasharray="2 2"/>
<path d="M643 297L677 3" stroke="url(#paint30_linear_66_2)" stroke-opacity="0.25" stroke-width="0.5" stroke-dasharray="2 2"/>
<rect x="213.134" y="187" width="99" height="33" rx="9" transform="rotate(12.4851 213.134 187)" fill="white"/>
<rect x="215.521" y="190.876" width="92.664" height="26.4634" rx="9" transform="rotate(12.4851 215.521 190.876)" fill="white" stroke="url(#paint31_linear_66_2)" stroke-linecap="round" stroke-linejoin="round" stroke-dasharray="2 2"/>
<path d="M286.521 224.896C285.964 224.773 285.517 224.572 285.18 224.292C284.854 224.005 284.641 223.65 284.539 223.228C284.44 222.797 284.452 222.303 284.576 221.746L285.403 218.012L284.421 217.794C284.255 217.758 284.137 217.691 284.066 217.593C283.998 217.486 283.98 217.359 284.012 217.212C284.045 217.066 284.114 216.963 284.219 216.905C284.324 216.846 284.46 216.835 284.626 216.872L285.607 217.089L285.98 215.405C286.023 215.21 286.109 215.075 286.238 215.001C286.369 214.918 286.528 214.896 286.713 214.937C286.899 214.978 287.028 215.064 287.102 215.193C287.188 215.314 287.209 215.472 287.166 215.668L286.793 217.352L288.638 217.76C288.804 217.797 288.923 217.864 288.993 217.962C289.064 218.059 289.083 218.181 289.05 218.328C289.018 218.474 288.948 218.582 288.841 218.65C288.736 218.709 288.6 218.72 288.434 218.683L286.589 218.274L285.788 221.892C285.665 222.448 285.688 222.899 285.857 223.244C286.029 223.579 286.378 223.805 286.906 223.921C287.091 223.962 287.252 223.978 287.387 223.967C287.532 223.958 287.649 223.963 287.737 223.983C287.827 223.992 287.894 224.038 287.937 224.119C287.981 224.2 287.984 224.324 287.947 224.49C287.921 224.607 287.873 224.709 287.803 224.796C287.742 224.885 287.654 224.937 287.538 224.952C287.412 224.966 287.248 224.965 287.046 224.951C286.852 224.949 286.677 224.931 286.521 224.896Z" fill="#A92DA6"/>
<path d="M279.087 223.25C278.648 223.153 278.215 223.001 277.79 222.794C277.375 222.589 277.006 222.313 276.683 221.965C276.601 221.875 276.55 221.782 276.53 221.686C276.513 221.579 276.518 221.483 276.548 221.398C276.589 221.304 276.646 221.23 276.72 221.174C276.803 221.121 276.89 221.1 276.98 221.109C277.082 221.111 277.185 221.155 277.289 221.239C277.618 221.558 277.948 221.805 278.278 221.98C278.619 222.148 278.966 222.271 279.318 222.349C279.874 222.472 280.317 222.462 280.645 222.32C280.974 222.178 281.177 221.931 281.255 221.579C281.315 221.306 281.27 221.071 281.119 220.873C280.97 220.666 280.706 220.475 280.325 220.298L279.057 219.71C278.47 219.447 278.06 219.126 277.826 218.746C277.602 218.369 277.546 217.931 277.656 217.433C277.753 216.994 277.949 216.643 278.242 216.38C278.548 216.11 278.93 215.933 279.389 215.851C279.848 215.768 280.355 215.788 280.912 215.911C281.342 216.006 281.734 216.155 282.089 216.356C282.455 216.55 282.768 216.804 283.026 217.117C283.109 217.207 283.154 217.304 283.162 217.408C283.181 217.505 283.166 217.598 283.115 217.69C283.076 217.773 283.014 217.841 282.931 217.895C282.85 217.938 282.759 217.954 282.659 217.942C282.559 217.93 282.463 217.878 282.371 217.786C282.121 217.526 281.855 217.318 281.572 217.164C281.291 216.999 281.004 216.884 280.711 216.819C280.164 216.698 279.725 216.714 279.395 216.866C279.064 217.018 278.86 217.27 278.782 217.621C278.721 217.895 278.76 218.139 278.896 218.353C279.033 218.568 279.278 218.755 279.632 218.916L280.903 219.489C281.508 219.766 281.933 220.091 282.178 220.463C282.435 220.827 282.508 221.263 282.395 221.771C282.253 222.415 281.88 222.87 281.279 223.136C280.677 223.403 279.946 223.441 279.087 223.25Z" fill="#A92DA6"/>
<path d="M271.16 221.495C270.672 221.387 270.253 221.197 269.904 220.925C269.566 220.645 269.322 220.315 269.171 219.933C269.02 219.551 268.989 219.156 269.08 218.745C269.197 218.218 269.421 217.832 269.751 217.588C270.092 217.346 270.584 217.23 271.227 217.239C271.88 217.25 272.743 217.375 273.817 217.613L274.476 217.759L274.304 218.535L273.66 218.392C272.869 218.217 272.236 218.118 271.759 218.094C271.295 218.063 270.951 218.115 270.726 218.25C270.512 218.386 270.369 218.616 270.297 218.938C270.209 219.338 270.273 219.696 270.49 220.01C270.717 220.327 271.07 220.538 271.548 220.644C271.939 220.73 272.301 220.713 272.635 220.593C272.979 220.474 273.269 220.272 273.507 219.987C273.754 219.703 273.924 219.352 274.017 218.932L274.386 217.263C274.52 216.657 274.495 216.196 274.309 215.878C274.125 215.551 273.755 215.325 273.199 215.202C272.857 215.126 272.506 215.095 272.144 215.107C271.783 215.119 271.391 215.181 270.967 215.292C270.815 215.33 270.692 215.328 270.599 215.287C270.508 215.236 270.441 215.165 270.4 215.074C270.359 214.983 270.344 214.888 270.356 214.788C270.37 214.678 270.412 214.58 270.483 214.493C270.563 214.408 270.668 214.35 270.798 214.317C271.275 214.197 271.735 214.135 272.176 214.131C272.618 214.126 273.029 214.166 273.409 214.25C274.025 214.386 274.51 214.601 274.864 214.895C275.222 215.179 275.452 215.547 275.557 216.001C275.663 216.444 275.646 216.983 275.506 217.618L274.627 221.587C274.584 221.782 274.502 221.923 274.38 222.008C274.269 222.096 274.125 222.121 273.949 222.082C273.764 222.041 273.634 221.956 273.56 221.827C273.486 221.698 273.471 221.536 273.514 221.34L273.767 220.198L273.899 220.227C273.739 220.581 273.517 220.865 273.234 221.079C272.961 221.295 272.647 221.44 272.292 221.515C271.938 221.591 271.56 221.584 271.16 221.495Z" fill="#A92DA6"/>
<path d="M265.087 220.12C264.901 220.079 264.767 219.992 264.683 219.861C264.609 219.732 264.594 219.57 264.637 219.375L265.896 213.692L264.958 213.485C264.802 213.45 264.684 213.383 264.603 213.283C264.535 213.176 264.517 213.049 264.549 212.903C264.582 212.756 264.651 212.654 264.756 212.595C264.871 212.539 265.006 212.528 265.163 212.562L266.422 212.841L266.032 213.077L266.155 212.521C266.36 211.593 266.742 210.935 267.299 210.546C267.866 210.16 268.597 210.025 269.493 210.141L269.928 210.191C270.067 210.212 270.169 210.26 270.234 210.336C270.309 210.414 270.346 210.499 270.346 210.591C270.356 210.686 270.34 210.78 270.299 210.873C270.26 210.956 270.199 211.025 270.116 211.078C270.032 211.131 269.94 211.152 269.841 211.14L269.497 211.095C268.891 211.012 268.416 211.096 268.074 211.348C267.741 211.602 267.508 212.032 267.374 212.637L267.237 213.252L267.11 212.994L268.868 213.383C269.034 213.419 269.152 213.487 269.223 213.584C269.293 213.682 269.312 213.804 269.28 213.95C269.247 214.097 269.178 214.204 269.07 214.273C268.965 214.331 268.829 214.342 268.663 214.305L267.082 213.955L265.824 219.638C265.733 220.048 265.487 220.208 265.087 220.12Z" fill="#A92DA6"/>
<path d="M252.607 217.356C252.411 217.313 252.277 217.227 252.203 217.098C252.129 216.969 252.114 216.807 252.157 216.611L253.509 210.504C253.552 210.309 253.634 210.173 253.753 210.097C253.874 210.012 254.028 209.989 254.213 210.03C254.399 210.071 254.529 210.156 254.602 210.286C254.688 210.407 254.709 210.565 254.666 210.761L254.387 212.02L254.265 211.809C254.596 211.288 255.022 210.937 255.543 210.755C256.077 210.566 256.646 210.538 257.251 210.672C257.818 210.798 258.264 211.004 258.589 211.291C258.925 211.581 259.139 211.956 259.231 212.417C259.326 212.868 259.303 213.411 259.162 214.045L258.293 217.97C258.25 218.165 258.163 218.305 258.032 218.388C257.91 218.474 257.757 218.497 257.571 218.456C257.376 218.412 257.237 218.325 257.153 218.194C257.079 218.065 257.064 217.903 257.107 217.707L257.96 213.856C258.107 213.192 258.082 212.679 257.886 212.318C257.701 211.95 257.325 211.703 256.759 211.577C256.105 211.432 255.537 211.522 255.056 211.845C254.586 212.161 254.277 212.656 254.128 213.33L253.343 216.874C253.252 217.284 253.007 217.445 252.607 217.356Z" fill="#A92DA6"/>
<path d="M247.373 216.197C247.177 216.154 247.038 216.067 246.954 215.936C246.88 215.807 246.865 215.645 246.908 215.449L248.261 209.342C248.304 209.147 248.385 209.011 248.504 208.935C248.626 208.849 248.779 208.827 248.965 208.868C249.15 208.909 249.28 208.994 249.354 209.123C249.439 209.245 249.461 209.403 249.418 209.598L249.155 210.785L249.008 210.752C249.292 210.211 249.688 209.832 250.197 209.617C250.705 209.402 251.284 209.356 251.933 209.479C252.081 209.502 252.191 209.562 252.262 209.66C252.334 209.747 252.356 209.88 252.327 210.058C252.3 210.226 252.232 210.349 252.122 210.428C252.013 210.506 251.863 210.534 251.673 210.513L251.432 210.49C250.755 210.402 250.195 210.503 249.752 210.794C249.32 211.077 249.034 211.536 248.894 212.171L248.109 215.715C248.066 215.91 247.979 216.05 247.848 216.133C247.726 216.219 247.568 216.241 247.373 216.197Z" fill="#A92DA6"/>
<path d="M241.24 214.87C240.752 214.762 240.333 214.572 239.984 214.3C239.646 214.021 239.402 213.69 239.251 213.308C239.1 212.927 239.07 212.531 239.161 212.121C239.277 211.593 239.501 211.208 239.832 210.963C240.172 210.721 240.664 210.605 241.307 210.614C241.96 210.625 242.823 210.75 243.897 210.988L244.557 211.134L244.385 211.91L243.74 211.767C242.949 211.592 242.316 211.493 241.84 211.469C241.375 211.438 241.031 211.49 240.807 211.625C240.592 211.762 240.449 211.991 240.378 212.313C240.289 212.714 240.353 213.071 240.571 213.385C240.797 213.702 241.15 213.913 241.629 214.019C242.019 214.105 242.381 214.088 242.715 213.968C243.059 213.849 243.35 213.647 243.587 213.362C243.834 213.079 244.004 212.727 244.097 212.307L244.467 210.638C244.601 210.032 244.575 209.571 244.389 209.253C244.206 208.926 243.836 208.7 243.279 208.577C242.937 208.501 242.586 208.47 242.225 208.482C241.863 208.494 241.471 208.556 241.047 208.667C240.895 208.705 240.772 208.703 240.679 208.662C240.588 208.611 240.522 208.54 240.481 208.449C240.439 208.358 240.425 208.263 240.436 208.163C240.45 208.053 240.493 207.955 240.563 207.868C240.643 207.784 240.748 207.725 240.879 207.692C241.356 207.573 241.815 207.51 242.256 207.506C242.698 207.501 243.109 207.541 243.49 207.625C244.105 207.761 244.59 207.976 244.945 208.27C245.302 208.554 245.533 208.923 245.637 209.376C245.744 209.819 245.727 210.358 245.586 210.993L244.707 214.962C244.664 215.157 244.582 215.298 244.461 215.384C244.349 215.471 244.205 215.496 244.029 215.457C243.844 215.416 243.714 215.331 243.64 215.202C243.567 215.073 243.551 214.911 243.594 214.715L243.847 213.573L243.979 213.602C243.819 213.956 243.597 214.24 243.314 214.454C243.041 214.67 242.727 214.815 242.373 214.891C242.018 214.966 241.641 214.959 241.24 214.87Z" fill="#A92DA6"/>
<path d="M234.412 213.358C233.66 213.192 233.044 212.902 232.562 212.488C232.092 212.066 231.766 211.548 231.584 210.935C231.412 210.323 231.411 209.636 231.579 208.875C231.744 208.133 232.033 207.521 232.447 207.039C232.863 206.547 233.36 206.202 233.936 206.002C234.523 205.804 235.153 205.779 235.827 205.928C236.305 206.034 236.717 206.213 237.061 206.463C237.407 206.703 237.678 207.004 237.875 207.365C238.081 207.728 238.205 208.14 238.247 208.6C238.298 209.062 238.264 209.561 238.145 210.098C238.111 210.255 238.041 210.362 237.936 210.421C237.833 210.469 237.698 210.476 237.532 210.439L232.436 209.31L232.607 208.534L237.426 209.601L237.149 209.739C237.266 209.212 237.286 208.751 237.21 208.355C237.136 207.949 236.969 207.615 236.71 207.353C236.46 207.093 236.111 206.913 235.662 206.814C235.164 206.703 234.713 206.727 234.31 206.883C233.918 207.032 233.589 207.292 233.323 207.663C233.058 208.025 232.867 208.474 232.748 209.011L232.728 209.099C232.529 209.997 232.593 210.728 232.919 211.292C233.254 211.858 233.822 212.229 234.623 212.406C234.955 212.48 235.292 212.508 235.633 212.492C235.985 212.478 236.339 212.402 236.697 212.267C236.853 212.209 236.984 212.197 237.089 212.23C237.207 212.256 237.292 212.311 237.345 212.395C237.4 212.468 237.427 212.556 237.425 212.658C237.435 212.752 237.403 212.848 237.331 212.945C237.268 213.043 237.164 213.118 237.02 213.168C236.646 213.331 236.225 213.427 235.758 213.457C235.29 213.486 234.842 213.453 234.412 213.358Z" fill="#A92DA6"/>
<path d="M224.13 210.943C223.935 210.9 223.795 210.813 223.712 210.682C223.63 210.541 223.611 210.373 223.654 210.177L225.678 201.039C225.723 200.834 225.807 200.688 225.928 200.603C226.059 200.519 226.222 200.499 226.418 200.542C226.613 200.585 226.747 200.671 226.821 200.8C226.905 200.932 226.924 201.1 226.879 201.305L224.949 210.019L229.753 211.082C229.929 211.121 230.054 211.2 230.13 211.319C230.209 211.429 230.229 211.567 230.193 211.733C230.156 211.899 230.078 212.02 229.959 212.096C229.841 212.162 229.695 212.176 229.519 212.137L224.13 210.943Z" fill="#A92DA6"/>
<rect x="343" y="216.172" width="99" height="33" rx="9" transform="rotate(-15.9299 343 216.172)" fill="white"/>
<rect x="346.943" y="218.445" width="92.664" height="26.4634" rx="9" transform="rotate(-15.9299 346.943 218.445)" fill="white" stroke="url(#paint32_linear_66_2)" stroke-linecap="round" stroke-linejoin="round" stroke-dasharray="2 2"/>
<path d="M424.247 214.961C423.699 215.117 423.21 215.153 422.78 215.068C422.357 214.97 422.001 214.76 421.711 214.437C421.419 214.104 421.194 213.664 421.038 213.116L419.988 209.438L419.021 209.714C418.858 209.76 418.722 209.758 418.613 209.705C418.502 209.644 418.426 209.54 418.385 209.396C418.344 209.252 418.355 209.129 418.42 209.027C418.485 208.926 418.599 208.852 418.762 208.805L419.728 208.529L419.255 206.87C419.2 206.678 419.212 206.519 419.29 206.392C419.366 206.256 419.495 206.162 419.678 206.11C419.86 206.058 420.015 206.071 420.141 206.15C420.274 206.215 420.368 206.345 420.423 206.537L420.897 208.196L422.714 207.677C422.878 207.63 423.014 207.633 423.122 207.685C423.231 207.738 423.306 207.836 423.347 207.98C423.388 208.124 423.378 208.252 423.316 208.363C423.251 208.465 423.137 208.539 422.974 208.586L421.156 209.104L422.173 212.667C422.329 213.215 422.564 213.601 422.877 213.823C423.188 214.036 423.603 214.069 424.122 213.92C424.305 213.868 424.453 213.805 424.567 213.731C424.691 213.654 424.796 213.603 424.882 213.579C424.966 213.544 425.046 213.553 425.123 213.603C425.2 213.654 425.262 213.761 425.309 213.925C425.342 214.04 425.348 214.153 425.327 214.263C425.316 214.37 425.263 214.458 425.168 214.526C425.064 214.598 424.92 214.675 424.736 214.759C424.564 214.85 424.401 214.917 424.247 214.961Z" fill="#A92DA6"/>
<path d="M416.926 217.051C416.493 217.174 416.041 217.246 415.568 217.267C415.105 217.284 414.649 217.217 414.2 217.064C414.085 217.024 413.996 216.967 413.932 216.891C413.866 216.806 413.826 216.719 413.811 216.629C413.803 216.528 413.818 216.435 413.856 216.351C413.904 216.265 413.97 216.204 414.054 216.17C414.145 216.123 414.256 216.112 414.388 216.137C414.829 216.261 415.236 216.321 415.61 216.319C415.99 216.304 416.353 216.247 416.7 216.148C417.248 215.992 417.632 215.773 417.854 215.491C418.075 215.21 418.136 214.896 418.037 214.549C417.96 214.28 417.809 214.095 417.582 213.993C417.353 213.882 417.029 213.839 416.61 213.865L415.215 213.951C414.573 213.999 414.06 213.912 413.674 213.689C413.297 213.464 413.039 213.106 412.899 212.615C412.776 212.183 412.781 211.781 412.914 211.41C413.054 211.027 413.306 210.69 413.67 210.399C414.034 210.108 414.491 209.884 415.039 209.727C415.462 209.607 415.877 209.55 416.285 209.559C416.7 209.555 417.096 209.629 417.472 209.782C417.587 209.821 417.673 209.885 417.729 209.973C417.793 210.049 417.824 210.139 417.822 210.243C417.828 210.335 417.806 210.424 417.758 210.511C417.707 210.588 417.635 210.645 417.542 210.682C417.448 210.719 417.339 210.719 417.214 210.682C416.871 210.572 416.538 210.516 416.215 210.515C415.889 210.504 415.582 210.539 415.294 210.622C414.755 210.775 414.377 210.998 414.158 211.289C413.94 211.58 413.88 211.899 413.979 212.245C414.056 212.514 414.205 212.711 414.428 212.834C414.65 212.958 414.955 213.006 415.343 212.979L416.734 212.878C417.397 212.834 417.925 212.918 418.318 213.128C418.718 213.326 418.989 213.675 419.131 214.175C419.313 214.809 419.202 215.387 418.799 215.908C418.397 216.428 417.772 216.809 416.926 217.051Z" fill="#A92DA6"/>
<path d="M409.119 219.279C408.638 219.416 408.179 219.448 407.743 219.375C407.313 219.29 406.94 219.116 406.626 218.852C406.311 218.588 406.097 218.254 405.981 217.85C405.833 217.331 405.846 216.885 406.021 216.513C406.205 216.138 406.582 215.802 407.152 215.504C407.732 215.203 408.551 214.902 409.608 214.6L410.258 214.415L410.476 215.179L409.841 215.36C409.062 215.583 408.458 215.797 408.028 216.003C407.605 216.196 407.326 216.406 407.193 216.631C407.069 216.853 407.053 217.123 407.143 217.44C407.256 217.835 407.483 218.118 407.823 218.292C408.173 218.462 408.584 218.48 409.055 218.346C409.44 218.236 409.75 218.048 409.987 217.783C410.233 217.515 410.392 217.2 410.465 216.836C410.548 216.469 410.53 216.079 410.412 215.665L409.942 214.021C409.772 213.425 409.53 213.031 409.215 212.84C408.898 212.64 408.465 212.617 407.917 212.774C407.581 212.87 407.257 213.009 406.945 213.192C406.633 213.374 406.317 213.615 405.997 213.915C405.881 214.021 405.773 214.078 405.671 214.086C405.567 214.084 405.475 214.053 405.395 213.993C405.315 213.932 405.257 213.856 405.22 213.762C405.18 213.659 405.171 213.553 405.191 213.443C405.222 213.33 405.286 213.229 405.385 213.138C405.748 212.806 406.122 212.532 406.508 212.318C406.894 212.104 407.275 211.943 407.65 211.836C408.256 211.663 408.784 211.622 409.236 211.711C409.685 211.791 410.064 212.005 410.371 212.354C410.676 212.694 410.918 213.176 411.096 213.801L412.212 217.71C412.267 217.902 412.261 218.065 412.195 218.198C412.139 218.328 412.024 218.418 411.851 218.468C411.669 218.52 411.514 218.507 411.388 218.429C411.261 218.35 411.171 218.215 411.116 218.023L410.795 216.898L410.924 216.86C410.952 217.248 410.892 217.603 410.745 217.926C410.607 218.246 410.401 218.523 410.125 218.758C409.848 218.993 409.513 219.166 409.119 219.279Z" fill="#A92DA6"/>
<path d="M403.123 220.959C402.94 221.011 402.781 221 402.645 220.924C402.519 220.846 402.428 220.71 402.373 220.518L400.776 214.921L399.853 215.185C399.699 215.229 399.563 215.226 399.445 215.177C399.333 215.115 399.257 215.012 399.216 214.867C399.175 214.723 399.187 214.6 399.251 214.499C399.325 214.394 399.439 214.32 399.593 214.276L400.834 213.922L400.603 214.316L400.446 213.768C400.186 212.854 400.208 212.094 400.513 211.487C400.828 210.877 401.407 210.41 402.25 210.086L402.656 209.923C402.788 209.875 402.901 209.869 402.994 209.905C403.097 209.938 403.171 209.995 403.214 210.076C403.268 210.154 403.299 210.244 403.307 210.346C403.313 210.438 403.291 210.527 403.243 210.614C403.195 210.7 403.124 210.762 403.031 210.799L402.707 210.923C402.135 211.138 401.757 211.438 401.576 211.823C401.404 212.205 401.403 212.694 401.573 213.29L401.746 213.896L401.512 213.729L403.242 213.235C403.406 213.188 403.542 213.191 403.65 213.243C403.759 213.295 403.834 213.393 403.875 213.538C403.916 213.682 403.906 213.81 403.844 213.921C403.779 214.023 403.665 214.097 403.502 214.143L401.944 214.588L403.541 220.184C403.657 220.588 403.517 220.847 403.123 220.959Z" fill="#A92DA6"/>
<path d="M392.72 223.96C392.095 224.138 391.504 224.145 390.948 223.982C390.401 223.815 389.921 223.5 389.508 223.036C389.101 222.559 388.792 221.95 388.581 221.21C388.367 220.46 388.308 219.78 388.404 219.17C388.508 218.548 388.749 218.027 389.128 217.606C389.514 217.174 390.02 216.868 390.645 216.69C391.279 216.509 391.868 216.512 392.41 216.701C392.953 216.889 393.378 217.231 393.686 217.725L393.527 217.77L392.3 213.472C392.245 213.28 392.252 213.122 392.321 212.998C392.396 212.862 392.53 212.767 392.723 212.712C392.905 212.66 393.06 212.673 393.186 212.751C393.319 212.817 393.413 212.946 393.468 213.139L396.087 222.312C396.142 222.505 396.136 222.667 396.07 222.801C396.004 222.934 395.875 223.028 395.683 223.083C395.5 223.135 395.341 223.123 395.205 223.048C395.078 222.969 394.988 222.834 394.933 222.642L394.542 221.271L394.758 221.428C394.761 222.02 394.578 222.545 394.21 223.004C393.851 223.46 393.354 223.778 392.72 223.96ZM392.697 222.952C393.13 222.829 393.48 222.614 393.746 222.31C394.013 222.005 394.175 221.626 394.233 221.172C394.3 220.716 394.253 220.205 394.091 219.637C393.841 218.762 393.453 218.15 392.927 217.801C392.411 217.449 391.821 217.368 391.157 217.558C390.715 217.684 390.361 217.899 390.094 218.204C389.834 218.497 389.671 218.871 389.603 219.327C389.543 219.771 389.596 220.286 389.764 220.872C390.011 221.738 390.399 222.35 390.927 222.708C391.453 223.058 392.043 223.139 392.697 222.952Z" fill="#A92DA6"/>
<path d="M387.988 225.31C387.296 225.508 386.707 225.447 386.221 225.128C385.734 224.809 385.379 224.256 385.154 223.467L383.054 216.111C382.999 215.919 383.006 215.761 383.075 215.637C383.141 215.504 383.27 215.41 383.462 215.355C383.645 215.303 383.804 215.315 383.94 215.39C384.073 215.456 384.167 215.585 384.222 215.778L386.297 223.047C386.446 223.566 386.658 223.927 386.934 224.129C387.217 224.319 387.56 224.356 387.964 224.241C388.05 224.216 388.126 224.189 388.191 224.16C388.255 224.132 388.321 224.108 388.388 224.088C388.491 224.048 388.57 224.052 388.625 224.099C388.69 224.143 388.747 224.251 388.796 224.424C388.846 224.597 388.844 224.738 388.792 224.847C388.74 224.955 388.631 225.049 388.466 225.127C388.392 225.158 388.313 225.191 388.229 225.226C388.146 225.26 388.065 225.288 387.988 225.31Z" fill="#A92DA6"/>
<path d="M383.062 226.654C382.869 226.709 382.71 226.697 382.584 226.619C382.455 226.531 382.361 226.386 382.303 226.184L380.62 220.284C380.562 220.082 380.566 219.915 380.632 219.782C380.698 219.648 380.827 219.554 381.02 219.5C381.202 219.447 381.362 219.459 381.498 219.535C381.634 219.61 381.73 219.749 381.788 219.951L383.472 225.85C383.529 226.052 383.522 226.226 383.449 226.372C383.383 226.505 383.254 226.599 383.062 226.654ZM380.559 217.884C380.318 217.953 380.113 217.944 379.942 217.857C379.769 217.761 379.651 217.602 379.588 217.381C379.522 217.15 379.54 216.958 379.642 216.804C379.741 216.641 379.911 216.525 380.151 216.456C380.401 216.385 380.606 216.394 380.767 216.483C380.935 216.56 381.051 216.714 381.117 216.945C381.18 217.166 381.164 217.363 381.068 217.536C380.978 217.697 380.809 217.813 380.559 217.884Z" fill="#A92DA6"/>
<path d="M376.897 228.476C376.329 228.638 375.829 228.671 375.397 228.576C374.971 228.469 374.603 228.236 374.292 227.878C373.992 227.516 373.753 227.028 373.578 226.412L372.474 222.547C372.417 222.345 372.422 222.182 372.491 222.058C372.569 221.932 372.7 221.843 372.883 221.791C373.075 221.736 373.233 221.743 373.357 221.811C373.49 221.877 373.585 222.011 373.643 222.213L374.742 226.065C374.918 226.68 375.174 227.106 375.512 227.342C375.857 227.566 376.303 227.6 376.851 227.444C377.448 227.273 377.876 226.933 378.135 226.422C378.395 225.911 378.432 225.329 378.245 224.675L377.249 221.184C377.191 220.982 377.197 220.819 377.265 220.696C377.344 220.569 377.479 220.479 377.671 220.424C377.854 220.372 378.007 220.38 378.131 220.449C378.264 220.515 378.359 220.649 378.417 220.851L380.134 226.865C380.249 227.269 380.119 227.525 379.744 227.632C379.562 227.684 379.402 227.672 379.266 227.597C379.14 227.518 379.049 227.383 378.994 227.191L378.62 225.878L378.865 226.026C378.835 226.649 378.641 227.172 378.283 227.596C377.936 228.018 377.474 228.311 376.897 228.476Z" fill="#A92DA6"/>
<path d="M365.439 231.606C365.227 231.666 365.049 231.66 364.903 231.587C364.765 231.502 364.665 231.353 364.605 231.142L362.073 222.271C362.012 222.06 362.02 221.886 362.096 221.75C362.178 221.601 362.325 221.497 362.537 221.437L365.955 220.461C366.657 220.261 367.279 220.198 367.82 220.272C368.368 220.334 368.828 220.525 369.2 220.845C369.572 221.165 369.839 221.609 370.001 222.176C370.182 222.811 370.146 223.393 369.892 223.924C369.647 224.451 369.226 224.873 368.63 225.188L368.573 224.986C369.318 224.867 369.955 224.966 370.482 225.284C371.019 225.598 371.39 226.111 371.593 226.823C371.851 227.727 371.755 228.503 371.306 229.151C370.856 229.799 370.098 230.276 369.031 230.581L365.439 231.606ZM365.672 230.51L368.643 229.661C369.413 229.442 369.946 229.123 370.243 228.706C370.539 228.288 370.599 227.767 370.42 227.142C370.239 226.507 369.914 226.096 369.444 225.908C368.971 225.71 368.351 225.721 367.581 225.94L364.61 226.788L365.672 230.51ZM364.338 225.836L367.079 225.054C367.829 224.84 368.352 224.524 368.649 224.107C368.955 223.686 369.026 223.188 368.862 222.611C368.692 222.015 368.367 221.624 367.887 221.438C367.415 221.24 366.804 221.248 366.054 221.462L363.313 222.245L364.338 225.836Z" fill="#A92DA6"/>
<rect x="513.726" y="28" width="83.8839" height="27.9613" rx="9" transform="rotate(20.438 513.726 28)" fill="white"/>
<rect x="515.274" y="31.5323" width="78.5153" height="22.4228" rx="9" transform="rotate(20.438 515.274 31.5323)" fill="white" stroke="url(#paint33_linear_66_2)" stroke-linecap="round" stroke-linejoin="round" stroke-dasharray="2 2"/>
<path d="M570.114 68.2769C569.652 68.1044 569.292 67.8779 569.036 67.5975C568.791 67.3119 568.65 66.982 568.614 66.6078C568.581 66.2255 568.65 65.8028 568.823 65.3399L569.98 62.2336L569.164 61.9295C569.026 61.878 568.933 61.8062 568.884 61.714C568.838 61.6137 568.838 61.5026 568.883 61.3808C568.928 61.259 569 61.1792 569.097 61.1414C569.194 61.1037 569.312 61.1106 569.45 61.162L570.266 61.4662L570.788 60.0653C570.849 59.9029 570.939 59.7977 571.059 59.7498C571.181 59.6937 571.32 59.6945 571.474 59.752C571.628 59.8095 571.729 59.898 571.777 60.0176C571.836 60.1321 571.836 60.2706 571.775 60.433L571.253 61.8339L572.788 62.4059C572.926 62.4573 573.019 62.5291 573.068 62.6213C573.117 62.7135 573.119 62.8205 573.074 62.9424C573.028 63.0642 572.955 63.148 572.855 63.1939C572.758 63.2316 572.64 63.2247 572.502 63.1733L570.967 62.6013L569.846 65.6102C569.673 66.0731 569.639 66.4627 569.743 66.7789C569.85 67.0871 570.123 67.3229 570.562 67.4863C570.716 67.5438 570.852 67.576 570.97 67.5828C571.095 67.5927 571.195 67.6113 571.268 67.6385C571.344 67.6576 571.396 67.7047 571.423 67.7797C571.451 67.8547 571.439 67.9612 571.388 68.0993C571.351 68.1967 571.298 68.2785 571.227 68.3446C571.164 68.4137 571.082 68.4478 570.981 68.447C570.871 68.4432 570.73 68.4232 570.559 68.387C570.393 68.362 570.244 68.3253 570.114 68.2769Z" fill="#A92DA6"/>
<path d="M563.931 65.9728C563.566 65.8366 563.213 65.6543 562.873 65.4257C562.541 65.2002 562.257 64.9188 562.022 64.5815C561.962 64.4944 561.929 64.4082 561.924 64.323C561.922 64.2297 561.938 64.148 561.974 64.078C562.02 64.0028 562.078 63.9459 562.148 63.9072C562.226 63.8715 562.303 63.8632 562.38 63.8824C562.467 63.8964 562.55 63.9459 562.629 64.031C562.874 64.3439 563.127 64.5954 563.389 64.7856C563.662 64.9707 563.945 65.1177 564.237 65.2266C564.7 65.3991 565.081 65.444 565.38 65.3612C565.679 65.2784 565.883 65.0909 565.992 64.7985C566.077 64.5711 566.066 64.3637 565.96 64.1763C565.858 63.9807 565.653 63.7843 565.348 63.5872L564.33 62.9304C563.857 62.6342 563.544 62.3092 563.389 61.9555C563.242 61.6049 563.246 61.2225 563.4 60.8083C563.537 60.4428 563.746 60.165 564.03 59.9747C564.325 59.7793 564.674 59.6736 565.078 59.6576C565.481 59.6415 565.915 59.7198 566.378 59.8923C566.735 60.0254 567.054 60.1997 567.334 60.4152C567.626 60.6256 567.864 60.8807 568.048 61.1806C568.108 61.2677 568.135 61.3564 568.129 61.4467C568.134 61.5319 568.11 61.6106 568.055 61.6827C568.012 61.7497 567.951 61.8011 567.873 61.8368C567.798 61.8643 567.718 61.867 567.634 61.8449C567.55 61.8227 567.473 61.7666 567.405 61.6764C567.222 61.4232 567.018 61.2132 566.794 61.0463C566.572 60.8712 566.34 60.7383 566.096 60.6475C565.641 60.4781 565.263 60.4388 564.961 60.5297C564.659 60.6206 564.453 60.8122 564.344 61.1046C564.26 61.3319 564.263 61.546 564.355 61.7466C564.446 61.9473 564.634 62.1376 564.919 62.3176L565.941 62.9621C566.427 63.2725 566.752 63.602 566.919 63.9506C567.096 64.2941 567.106 64.677 566.948 65.0993C566.749 65.6353 566.374 65.9815 565.826 66.1378C565.278 66.2941 564.646 66.2391 563.931 65.9728Z" fill="#A92DA6"/>
<path d="M557.338 63.5157C556.932 63.3644 556.595 63.151 556.328 62.8757C556.071 62.5952 555.901 62.2821 555.818 61.9364C555.734 61.5907 555.755 61.2473 555.882 60.9062C556.046 60.4677 556.284 60.1634 556.597 59.9933C556.918 59.8263 557.354 59.7853 557.905 59.8704C558.464 59.9585 559.191 60.169 560.084 60.5019L560.632 60.7062L560.392 61.3519L559.856 61.1521C559.198 60.907 558.666 60.7458 558.26 60.6685C557.865 60.5861 557.564 60.5893 557.355 60.678C557.154 60.7697 557.004 60.9495 556.904 61.2175C556.78 61.5505 556.792 61.8649 556.941 62.1608C557.098 62.4597 557.375 62.6833 557.773 62.8316C558.098 62.9527 558.411 62.9814 558.712 62.9179C559.021 62.8574 559.295 62.7189 559.533 62.5024C559.779 62.2889 559.967 62.0075 560.097 61.6583L560.615 60.2696C560.802 59.7661 560.835 59.3669 560.714 59.0719C560.596 58.7689 560.305 58.5311 559.842 58.3586C559.558 58.2527 559.26 58.1833 558.949 58.1505C558.637 58.1176 558.293 58.1234 557.916 58.1678C557.781 58.1823 557.676 58.1663 557.601 58.1198C557.528 58.0651 557.48 57.9963 557.456 57.9131C557.431 57.83 557.43 57.7463 557.452 57.6621C557.477 57.5697 557.525 57.4905 557.596 57.4244C557.675 57.3614 557.772 57.3236 557.888 57.3112C558.312 57.2657 558.714 57.2674 559.093 57.3164C559.472 57.3653 559.821 57.4488 560.137 57.5668C560.649 57.7574 561.039 58.0001 561.309 58.2947C561.581 58.5812 561.735 58.9253 561.771 59.3269C561.809 59.7204 561.73 60.1811 561.533 60.7089L560.303 64.0102C560.242 64.1726 560.155 64.2833 560.04 64.3424C559.934 64.4045 559.808 64.4083 559.661 64.3538C559.507 64.2963 559.406 64.2078 559.358 64.0882C559.31 63.9686 559.316 63.8276 559.377 63.6652L559.731 62.715L559.841 62.7558C559.661 63.0402 559.436 63.2573 559.168 63.4069C558.908 63.5596 558.621 63.6469 558.307 63.6689C557.994 63.6908 557.671 63.6398 557.338 63.5157Z" fill="#A92DA6"/>
<path d="M552.29 61.6068C552.136 61.5493 552.03 61.4593 551.974 61.3367C551.927 61.2171 551.933 61.0761 551.993 60.9136L553.755 56.1872L552.975 55.8966C552.845 55.8482 552.752 55.7764 552.695 55.6811C552.649 55.5808 552.649 55.4697 552.694 55.3479C552.739 55.2261 552.811 55.1463 552.908 55.1086C553.013 55.0739 553.131 55.0808 553.261 55.1292L554.309 55.5196L553.945 55.6755L554.118 55.2126C554.405 54.4411 554.812 53.9219 555.336 53.6551C555.869 53.3913 556.514 53.3631 557.269 53.5705L557.636 53.6656C557.752 53.6998 557.834 53.7534 557.881 53.8264C557.936 53.9023 557.958 53.9799 557.947 54.059C557.944 54.1412 557.919 54.2198 557.873 54.295C557.829 54.362 557.768 54.4134 557.69 54.4491C557.612 54.4847 557.531 54.4915 557.447 54.4693L557.158 54.3893C556.647 54.2453 556.23 54.2609 555.906 54.436C555.589 54.6142 555.338 54.955 555.15 55.4585L554.959 55.9701L554.881 55.7329L556.343 56.2777C556.481 56.3291 556.575 56.401 556.623 56.4932C556.672 56.5854 556.674 56.6924 556.629 56.8142C556.583 56.936 556.51 57.0198 556.41 57.0657C556.313 57.1034 556.195 57.0966 556.057 57.0451L554.741 56.5549L552.98 61.2813C552.853 61.6224 552.623 61.7309 552.29 61.6068Z" fill="#A92DA6"/>
<path d="M540.914 59.8646C540.751 59.8041 540.646 59.714 540.598 59.5944C540.547 59.4829 540.552 59.346 540.612 59.1836L543.327 51.8989C543.388 51.7365 543.474 51.6298 543.585 51.5789C543.7 51.5198 543.834 51.519 543.988 51.5765C544.151 51.6371 544.256 51.7271 544.304 51.8467C544.363 51.9612 544.362 52.0997 544.302 52.2621L543.87 53.4194L543.8 53.1989C544.102 52.7844 544.494 52.5143 544.976 52.3885C545.469 52.2577 545.983 52.2921 546.519 52.4918C547.047 52.6886 547.459 52.9854 547.755 53.3824C548.062 53.7744 548.235 54.2411 548.273 54.7827C548.323 55.3192 548.23 55.9042 547.994 56.5376C547.761 57.1629 547.449 57.6662 547.057 58.0474C546.676 58.4235 546.244 58.6648 545.76 58.7713C545.277 58.8778 544.767 58.8311 544.231 58.6314C543.695 58.4317 543.286 58.1267 543.004 57.7164C542.725 57.2981 542.602 56.8358 542.633 56.3296L542.779 56.384L541.599 59.5513C541.539 59.7137 541.449 59.8189 541.329 59.8668C541.206 59.9228 541.068 59.9221 540.914 59.8646ZM544.319 57.7624C544.693 57.9016 545.047 57.9318 545.381 57.853C545.724 57.7773 546.032 57.5961 546.305 57.3095C546.587 57.0259 546.817 56.6445 546.995 56.1654C547.271 55.4264 547.314 54.7999 547.127 54.286C546.947 53.7751 546.577 53.4153 546.017 53.2065C545.651 53.0703 545.297 53.0401 544.955 53.1159C544.615 53.1835 544.304 53.3591 544.023 53.6427C543.753 53.9212 543.525 54.3081 543.341 54.8035C543.068 55.5344 543.024 56.1609 543.209 56.6829C543.397 57.1968 543.767 57.5566 544.319 57.7624Z" fill="#A92DA6"/>
<path d="M538.909 56.5924C538.746 56.5319 538.641 56.4418 538.593 56.3223C538.548 56.1945 538.558 56.0454 538.621 55.8749L540.478 50.8926C540.541 50.722 540.63 50.6072 540.745 50.5481C540.859 50.4891 540.998 50.4898 541.16 50.5503C541.315 50.6078 541.42 50.6979 541.476 50.8205C541.532 50.9431 541.528 51.0897 541.464 51.2603L539.608 56.2426C539.544 56.4131 539.45 56.5305 539.324 56.5946C539.209 56.6537 539.071 56.653 538.909 56.5924ZM541.669 49.186C541.466 49.1103 541.327 48.9985 541.253 48.8506C541.181 48.6945 541.18 48.5231 541.25 48.3363C541.323 48.1414 541.434 48.0164 541.584 47.9613C541.737 47.8981 541.915 47.9043 542.118 47.98C542.329 48.0587 542.468 48.1705 542.534 48.3154C542.611 48.4552 542.614 48.6226 542.541 48.8175C542.472 49.0043 542.359 49.1333 542.203 49.2047C542.058 49.2709 541.88 49.2647 541.669 49.186Z" fill="#A92DA6"/>
<path d="M531.976 54.0367C531.813 53.9762 531.708 53.8861 531.66 53.7665C531.612 53.6469 531.619 53.5059 531.679 53.3435L534.566 45.596C534.627 45.4336 534.713 45.3269 534.824 45.2759C534.939 45.2169 535.077 45.2176 535.24 45.2781C535.394 45.3356 535.499 45.4257 535.555 45.5483C535.614 45.6628 535.614 45.8013 535.553 45.9637L534.223 49.5329L534.065 49.4739C534.411 49.0664 534.818 48.816 535.288 48.7228C535.768 48.6244 536.261 48.669 536.764 48.8567C537.235 49.0322 537.593 49.2627 537.838 49.5483C538.091 49.8368 538.23 50.1845 538.254 50.5912C538.281 50.9898 538.197 51.453 538 51.9809L536.783 55.2456C536.723 55.408 536.631 55.5172 536.509 55.5733C536.394 55.6323 536.26 55.6331 536.105 55.5756C535.943 55.5151 535.834 55.4235 535.778 55.3009C535.73 55.1813 535.736 55.0403 535.797 54.8779L536.99 51.6741C537.196 51.1219 537.236 50.679 537.111 50.3455C536.997 50.007 536.704 49.7499 536.233 49.5744C535.689 49.3716 535.191 49.3803 534.739 49.6003C534.298 49.8152 533.973 50.2029 533.764 50.7632L532.666 53.7112C532.539 54.0523 532.309 54.1608 531.976 54.0367Z" fill="#A92DA6"/>
<path d="M526.896 52.1716C526.515 52.0293 526.153 51.8576 525.812 51.6565C525.471 51.4553 525.164 51.2348 524.893 50.995C524.63 50.7582 524.407 50.4995 524.225 50.2189C524.155 50.1095 524.116 50.0025 524.109 49.8981C524.113 49.7885 524.139 49.6921 524.189 49.6088C524.249 49.5204 524.32 49.4543 524.401 49.4106C524.491 49.3698 524.581 49.362 524.674 49.3872C524.766 49.4123 524.853 49.4771 524.934 49.5814C525.203 49.9775 525.522 50.3136 525.89 50.5897C526.262 50.8578 526.708 51.0886 527.228 51.2823C527.959 51.5547 528.549 51.6219 528.998 51.4841C529.458 51.3411 529.771 51.0463 529.938 50.5997C530.074 50.2342 530.05 49.9015 529.866 49.6017C529.693 49.2967 529.328 48.9713 528.773 48.6256L527.601 47.8976C526.898 47.4507 526.424 46.9735 526.179 46.4658C525.944 45.953 525.942 45.388 526.172 44.7708C526.314 44.3891 526.52 44.0727 526.789 43.8216C527.062 43.5624 527.377 43.3746 527.735 43.2582C528.095 43.1337 528.489 43.0817 528.917 43.1021C529.344 43.1225 529.789 43.219 530.252 43.3915C530.763 43.5821 531.211 43.8323 531.595 44.1419C531.99 44.4464 532.314 44.8073 532.565 45.2247C532.627 45.3311 532.656 45.4391 532.652 45.5486C532.652 45.6501 532.622 45.7409 532.565 45.8212C532.51 45.8933 532.44 45.9457 532.354 45.9783C532.275 46.014 532.186 46.0177 532.086 45.9895C531.993 45.9644 531.904 45.894 531.818 45.7786C531.583 45.4139 531.312 45.1137 531.002 44.878C530.695 44.6342 530.33 44.4336 529.908 44.2762C529.478 44.1158 529.08 44.0416 528.715 44.0535C528.358 44.0684 528.043 44.1685 527.77 44.3536C527.509 44.5337 527.318 44.7862 527.197 45.111C527.051 45.5008 527.054 45.8533 527.205 46.1685C527.364 46.4867 527.696 46.7999 528.201 47.1083L529.368 47.8484C530.124 48.3246 530.632 48.8099 530.892 49.3044C531.163 49.7938 531.188 50.3349 530.967 50.9277C530.834 51.285 530.638 51.5867 530.38 51.8327C530.122 52.0787 529.814 52.2599 529.456 52.3763C529.101 52.4845 528.708 52.5229 528.276 52.4913C527.843 52.4597 527.384 52.3532 526.896 52.1716Z" fill="#A92DA6"/>
<path d="M550.286 114.236C550.286 112.341 551.634 111.38 554.33 111.354H581.116C583.572 111.354 585.961 111.927 588.283 113.075C592.474 115.184 594.583 118.614 594.609 123.365C594.609 126.995 593.008 130.078 589.805 132.614C588.39 133.709 586.842 134.576 585.16 135.217C587.429 136.578 589.431 138.74 591.166 141.703C594.476 147.442 596.945 151.446 598.573 153.715C600.228 155.984 601.87 157.358 603.498 157.839V159.961C599.174 160.361 595.811 159.534 593.408 157.479C591.033 155.423 588.63 151.98 586.201 147.148C583.772 142.29 582.224 139.314 581.557 138.22C580.889 137.125 580.249 136.578 579.635 136.578C579.048 136.551 578.554 137.019 578.153 137.979C577.78 138.94 577.473 139.541 577.232 139.781C576.832 140.155 576.191 140.355 575.311 140.382C574.456 140.382 573.776 139.995 573.269 139.221C572.788 138.447 572.548 137.713 572.548 137.019C572.548 134.75 574.483 133.615 578.354 133.615C579.154 133.615 579.822 133.642 580.355 133.695C583.772 133.535 586.148 131.854 587.482 128.65C588.07 127.182 588.363 125.594 588.363 123.886C588.363 119.775 586.868 116.879 583.879 115.197C582.277 114.316 580.422 113.876 578.313 113.876H571.307V152.954C571.307 154.689 571.453 155.73 571.747 156.077C572.041 156.397 572.615 156.638 573.469 156.798L576.191 157.358V159H560.616V157.438L562.938 156.958C564.353 156.664 565.194 156.117 565.461 155.316C565.755 154.516 565.901 152.981 565.901 150.712V119.001C565.368 115.504 563.953 113.702 561.657 113.596C560.856 113.596 559.802 114.116 558.494 115.157C556.706 116.599 555.158 117.333 553.85 117.359C552.542 117.359 551.621 117.012 551.087 116.318C550.553 115.598 550.286 114.904 550.286 114.236Z" fill="url(#paint34_linear_66_2)"/>
<path d="M540.316 156.518C542.479 156.518 543.773 154.889 544.2 151.633H545.802V159H513.931V157.318L516.253 156.838C517.694 156.544 518.575 155.957 518.896 155.076C519.216 154.195 519.376 152.701 519.376 150.592V119.762C519.376 117.333 519.176 115.758 518.775 115.037C518.375 114.29 517.548 113.783 516.293 113.516L513.931 113.035V111.354H543.479V118.721H541.878C541.424 115.518 540.13 113.889 537.994 113.836H524.741V134.216H533.99C535.005 134.216 535.605 134.056 535.792 133.735C536.006 133.415 536.232 132.748 536.473 131.733L536.873 129.972H538.555V140.862H536.873C536.446 138.674 536.046 137.432 535.672 137.139C535.325 136.845 534.751 136.698 533.95 136.698H524.741V156.518H540.316Z" fill="url(#paint35_linear_66_2)"/>
<path d="M462.721 123.365C462.721 128.811 463.935 131.547 466.364 131.573C466.791 131.573 467.459 131.173 468.366 130.372C469.888 129.251 471.169 128.65 472.21 128.57C473.918 128.57 474.853 129.384 475.013 131.013C475.093 132.107 474.586 132.961 473.491 133.575C472.931 133.869 472.343 134.016 471.729 134.016C468.687 134.016 466.484 133.789 465.123 133.335C461.786 132.241 459.491 129.998 458.236 126.608C457.676 125.034 457.396 123.365 457.396 121.604C457.396 116.532 459.771 113.329 464.522 111.994C465.991 111.567 467.592 111.354 469.327 111.354H499.677C502.613 111.354 504.508 110.74 505.362 109.512C505.923 108.658 506.203 107.376 506.203 105.668H507.885C508.926 109.165 508.912 111.474 507.845 112.595C506.777 113.689 505.002 114.316 502.52 114.477H487.385V150.632C487.385 153.088 487.558 154.689 487.905 155.437C488.252 156.157 489.066 156.651 490.348 156.918L492.67 157.358V159H477.135V157.318L479.897 156.718C480.885 156.504 481.499 156.197 481.739 155.797C481.953 155.343 482.06 154.369 482.06 152.874V114.477H468.847C465.75 114.477 463.815 116.318 463.041 120.002C462.827 121.043 462.721 122.164 462.721 123.365Z" fill="url(#paint36_linear_66_2)"/>
<path d="M399.339 114.236C399.339 112.341 400.687 111.38 403.383 111.354H430.169C432.625 111.354 435.014 111.927 437.336 113.075C441.527 115.184 443.635 118.614 443.662 123.365C443.662 126.995 442.061 130.078 438.857 132.614C437.443 133.709 435.895 134.576 434.213 135.217C436.482 136.578 438.484 138.74 440.219 141.703C443.529 147.442 445.998 151.446 447.626 153.715C449.281 155.984 450.923 157.358 452.551 157.839V159.961C448.227 160.361 444.863 159.534 442.461 157.479C440.085 155.423 437.683 151.98 435.254 147.148C432.825 142.29 431.277 139.314 430.609 138.22C429.942 137.125 429.301 136.578 428.688 136.578C428.1 136.551 427.606 137.019 427.206 137.979C426.832 138.94 426.525 139.541 426.285 139.781C425.885 140.155 425.244 140.355 424.363 140.382C423.509 140.382 422.828 139.995 422.321 139.221C421.841 138.447 421.601 137.713 421.601 137.019C421.601 134.75 423.536 133.615 427.406 133.615C428.207 133.615 428.874 133.642 429.408 133.695C432.825 133.535 435.201 131.854 436.535 128.65C437.122 127.182 437.416 125.594 437.416 123.886C437.416 119.775 435.921 116.879 432.932 115.197C431.33 114.316 429.475 113.876 427.366 113.876H420.359V152.954C420.359 154.689 420.506 155.73 420.8 156.077C421.093 156.397 421.667 156.638 422.521 156.798L425.244 157.358V159H409.669V157.438L411.991 156.958C413.406 156.664 414.247 156.117 414.514 155.316C414.807 154.516 414.954 152.981 414.954 150.712V119.001C414.42 115.504 413.006 113.702 410.71 113.596C409.909 113.596 408.855 114.116 407.547 115.157C405.758 116.599 404.21 117.333 402.902 117.359C401.594 117.359 400.674 117.012 400.14 116.318C399.606 115.598 399.339 114.904 399.339 114.236Z" fill="url(#paint37_linear_66_2)"/>
<path d="M368.108 110.713C371.392 110.713 373.927 111.26 375.716 112.354C378.198 113.929 380.187 116.879 381.682 121.203C387.074 136.925 390.49 146.681 391.932 150.472C393.426 154.422 395.255 156.611 397.417 157.038L399.219 157.358V159H382.723V157.318L385.806 156.638C387.06 156.317 387.701 155.623 387.728 154.556C387.728 153.915 387.541 153.048 387.167 151.953L384.204 143.064H367.988C365.719 150.245 364.558 154.062 364.505 154.516C364.505 155.69 365.439 156.491 367.308 156.918L369.67 157.358V159H354.575V157.318L356.817 156.918C358.793 156.544 360.514 154.235 361.982 149.991L370.631 124.887C372.206 120.269 373.033 117.493 373.113 116.559C373.22 115.624 372.913 115.157 372.192 115.157C371.338 115.157 370.524 115.304 369.75 115.598C369.003 115.891 368.522 116.038 368.309 116.038C367.027 116.038 366.16 115.451 365.706 114.276C365.573 113.876 365.506 113.462 365.506 113.035C365.693 111.567 366.56 110.793 368.108 110.713ZM376.196 118.4L368.829 140.582H383.443L376.196 118.4Z" fill="url(#paint38_linear_66_2)"/>
<path d="M311.773 123.365C311.773 128.811 312.988 131.547 315.417 131.573C315.844 131.573 316.511 131.173 317.419 130.372C318.94 129.251 320.222 128.65 321.263 128.57C322.971 128.57 323.905 129.384 324.065 131.013C324.146 132.107 323.638 132.961 322.544 133.575C321.983 133.869 321.396 134.016 320.782 134.016C317.739 134.016 315.537 133.789 314.176 133.335C310.839 132.241 308.544 129.998 307.289 126.608C306.729 125.034 306.448 123.365 306.448 121.604C306.448 116.532 308.824 113.329 313.575 111.994C315.043 111.567 316.645 111.354 318.38 111.354H348.729C351.666 111.354 353.561 110.74 354.415 109.512C354.976 108.658 355.256 107.376 355.256 105.668H356.938C357.979 109.165 357.965 111.474 356.897 112.595C355.83 113.689 354.055 114.316 351.572 114.477H336.438V150.632C336.438 153.088 336.611 154.689 336.958 155.437C337.305 156.157 338.119 156.651 339.4 156.918L341.723 157.358V159H326.188V157.318L328.95 156.718C329.938 156.504 330.552 156.197 330.792 155.797C331.006 155.343 331.112 154.369 331.112 152.874V114.477H317.899C314.803 114.477 312.868 116.318 312.094 120.002C311.88 121.043 311.773 122.164 311.773 123.365Z" fill="url(#paint39_linear_66_2)"/>
<path d="M296.879 123.165C296.479 116.892 293.489 113.743 287.91 113.716C284.627 113.716 282.371 114.703 281.144 116.679C280.583 117.586 280.303 118.734 280.303 120.122C280.303 121.67 281.13 123.192 282.785 124.687L284.106 125.848L293.035 133.415C298.347 138.033 301.016 143.104 301.043 148.63C301.043 152.18 299.508 155.023 296.438 157.158C293.369 159.267 289.872 160.321 285.948 160.321C283.439 160.321 281.464 159.974 280.022 159.28C278.581 158.586 277.647 158.132 277.22 157.919C276.819 157.705 276.059 157.198 274.938 156.397L273.256 155.196V148.029C273.256 145.68 274.083 143.905 275.738 142.704C277.393 141.476 279.302 140.862 281.464 140.862C283.626 140.862 285.428 141.209 286.869 141.903C288.284 142.624 289.005 143.558 289.031 144.706V144.786C289.031 145.907 288.471 146.641 287.35 146.988C287.083 147.068 286.802 147.108 286.509 147.108C285.548 147.108 284.907 146.721 284.587 145.947C284.293 145.173 284.133 144.759 284.106 144.706C283.573 143.959 282.518 143.585 280.943 143.585C278.674 143.585 277.286 144.666 276.779 146.828C276.673 147.255 276.619 147.656 276.619 148.029C276.619 152.06 278.101 154.836 281.063 156.357C282.478 157.078 284.133 157.438 286.028 157.438C290.379 157.438 293.342 155.97 294.917 153.034C295.558 151.833 295.878 150.578 295.878 149.271C295.878 147.028 294.837 144.452 292.755 141.543C291.714 140.075 290.633 138.887 289.512 137.979L282.185 132.054C278.875 129.331 276.833 127.156 276.059 125.527C275.311 123.872 274.938 122.351 274.938 120.963C274.938 117.76 276.245 115.291 278.861 113.556C281.477 111.794 284.56 110.913 288.11 110.913C292.194 110.913 296.025 112.021 299.602 114.236L299.562 123.165H296.879Z" fill="url(#paint40_linear_66_2)"/>
<path d="M231.135 113.516C228.465 113.516 227.118 112.581 227.091 110.713C227.091 109.298 227.785 108.324 229.173 107.79C229.653 107.63 230.12 107.536 230.574 107.51C231.989 107.51 233.11 108.017 233.938 109.031C234.792 110.046 235.379 110.686 235.699 110.953C236.046 111.22 236.553 111.354 237.221 111.354H251.354V113.115L248.632 113.716C247.671 113.929 247.097 114.236 246.91 114.637C246.75 115.01 246.67 115.985 246.67 117.56V152.874C246.67 154.582 246.79 155.597 247.03 155.917C247.271 156.211 247.804 156.451 248.632 156.638L251.354 157.238V159H235.819V157.318L238.142 156.838C239.583 156.544 240.464 155.957 240.784 155.076C241.104 154.195 241.265 152.701 241.265 150.592V118.641C241.211 115.838 240.531 114.223 239.223 113.796C238.822 113.662 238.302 113.596 237.661 113.596L231.135 113.516Z" fill="url(#paint41_linear_66_2)"/>
<path d="M181.326 111.354H196.981V113.315C195.273 113.315 194.059 113.729 193.338 114.557C192.644 115.357 192.297 116.091 192.297 116.759C192.297 117.426 192.43 118.147 192.697 118.921C192.964 119.668 193.298 120.656 193.698 121.884L203.388 151.633L216.801 117.279C217.468 115.571 217.308 114.49 216.32 114.036C215.359 113.556 213.891 113.315 211.916 113.315V111.354H227.211V113.315C225.93 113.369 224.915 113.476 224.168 113.636C223.447 113.796 222.86 114.063 222.406 114.437C221.952 114.784 221.592 115.251 221.325 115.838C221.058 116.398 220.751 117.119 220.404 118L204.028 159H200.945L189.454 122.965L176.241 159H173.238L159.465 121.203C158.237 117.84 157.209 115.691 156.382 114.757C155.554 113.796 153.766 113.315 151.017 113.315V111.354H169.034V113.315C165.858 113.315 164.27 113.996 164.27 115.357C164.27 115.678 164.31 116.091 164.39 116.599C164.47 117.079 164.576 117.613 164.71 118.2C164.87 118.761 165.044 119.361 165.23 120.002C165.417 120.643 165.618 121.27 165.831 121.884L175.761 151.353L187.772 117.76C187.399 116.745 187.052 115.945 186.731 115.357C186.411 114.77 186.024 114.33 185.57 114.036C185.117 113.716 184.556 113.516 183.889 113.436C183.221 113.355 182.367 113.315 181.326 113.315V111.354Z" fill="url(#paint42_linear_66_2)"/>
<path d="M129.355 113.516C126.686 113.516 125.338 112.581 125.312 110.713C125.312 109.298 126.006 108.324 127.394 107.79C127.874 107.63 128.341 107.536 128.795 107.51C130.21 107.51 131.331 108.017 132.158 109.031C133.012 110.046 133.6 110.686 133.92 110.953C134.267 111.22 134.774 111.354 135.441 111.354H149.575V113.115L146.853 113.716C145.892 113.929 145.318 114.236 145.131 114.637C144.971 115.01 144.891 115.985 144.891 117.56V152.874C144.891 154.582 145.011 155.597 145.251 155.917C145.491 156.211 146.025 156.451 146.853 156.638L149.575 157.238V159H134.04V157.318L136.362 156.838C137.804 156.544 138.685 155.957 139.005 155.076C139.325 154.195 139.485 152.701 139.485 150.592V118.641C139.432 115.838 138.751 114.223 137.443 113.796C137.043 113.662 136.522 113.596 135.882 113.596L129.355 113.516Z" fill="url(#paint43_linear_66_2)"/>
<path d="M73.6611 113.035C73.6611 111.487 74.6354 110.713 76.584 110.713C81.7891 110.713 85.486 111.994 87.6748 114.557L113.46 149.751V119.802C113.46 117.373 113.246 115.798 112.819 115.077C112.392 114.356 111.551 113.863 110.297 113.596L107.975 113.115V111.354H121.548V113.195L118.825 113.756C117.891 113.943 117.33 114.236 117.144 114.637C116.957 115.037 116.863 116.038 116.863 117.64V160.161H115.222L86.9541 122.044L86.9141 152.914C86.9141 154.676 87.0609 155.73 87.3545 156.077C87.6748 156.397 88.2487 156.638 89.0762 156.798L91.7988 157.358V159H78.3057V157.438L80.6279 156.958C82.0426 156.664 82.8835 156.117 83.1504 155.316C83.444 154.516 83.5908 152.981 83.5908 150.712V122.765C83.5641 117.213 82.8034 114.41 81.3086 114.356C80.6146 114.356 79.6803 114.637 78.5059 115.197C77.3314 115.758 76.6507 116.038 76.4639 116.038C75.1826 116.038 74.3151 115.451 73.8613 114.276C73.7279 113.876 73.6611 113.462 73.6611 113.035Z" fill="url(#paint44_linear_66_2)"/>
<path d="M165.864 193.894L166.266 193.598L165.864 193.894ZM192.546 202.044C192.821 202.013 193.068 202.211 193.099 202.485C193.13 202.759 192.933 203.007 192.658 203.038L192.546 202.044ZM160.11 170.625C160.09 170.901 159.85 171.108 159.575 171.087C159.3 171.067 159.093 170.828 159.113 170.552L160.11 170.625ZM159.069 175.082C159.055 174.806 159.266 174.571 159.542 174.556C159.818 174.541 160.053 174.753 160.068 175.029L159.069 175.082ZM160.571 179.407C160.619 179.679 160.438 179.938 160.166 179.986C159.894 180.034 159.634 179.853 159.587 179.581L160.571 179.407ZM160.631 183.983C160.552 183.719 160.702 183.44 160.967 183.361C161.231 183.282 161.51 183.432 161.589 183.697L160.631 183.983ZM163.091 187.842C163.2 188.096 163.082 188.39 162.829 188.499C162.575 188.608 162.281 188.49 162.172 188.237L163.091 187.842ZM164.212 192.284C164.071 192.046 164.15 191.739 164.388 191.599C164.625 191.458 164.932 191.537 165.073 191.774L164.212 192.284ZM167.398 194.987C167.582 195.193 167.565 195.509 167.36 195.693C167.154 195.878 166.838 195.861 166.654 195.655L167.398 194.987ZM169.429 198.202C169.209 198.036 169.165 197.722 169.332 197.502C169.498 197.282 169.812 197.238 170.032 197.405L169.429 198.202ZM173.073 199.305C173.319 199.431 173.416 199.732 173.29 199.978C173.165 200.224 172.863 200.321 172.618 200.195L173.073 199.305ZM176.077 201.642C175.815 201.554 175.674 201.271 175.762 201.009C175.849 200.747 176.133 200.606 176.395 200.694L176.077 201.642ZM179.887 201.621C180.158 201.675 180.333 201.939 180.279 202.21C180.224 202.48 179.96 202.656 179.69 202.601L179.887 201.621ZM183.378 203.143C183.103 203.117 182.902 202.873 182.928 202.598C182.955 202.323 183.199 202.121 183.474 202.148L183.378 203.143ZM187.103 202.331C187.379 202.333 187.601 202.559 187.599 202.835C187.597 203.111 187.372 203.333 187.096 203.331L187.103 202.331ZM190.81 203.209C190.535 203.229 190.295 203.022 190.275 202.746C190.255 202.471 190.462 202.231 190.738 202.211L190.81 203.209ZM160.342 168.435C160.24 169.174 160.163 169.904 160.11 170.625L159.113 170.552C159.167 169.81 159.246 169.058 159.351 168.298L160.342 168.435ZM160.068 175.029C160.149 176.548 160.325 178.011 160.571 179.407L159.587 179.581C159.334 178.147 159.153 176.644 159.069 175.082L160.068 175.029ZM161.589 183.697C162.04 185.206 162.556 186.595 163.091 187.842L162.172 188.237C161.623 186.956 161.094 185.531 160.631 183.983L161.589 183.697ZM165.073 191.774C165.508 192.51 165.916 193.122 166.266 193.598L165.461 194.191C165.088 193.685 164.663 193.045 164.212 192.284L165.073 191.774ZM166.266 193.598C166.627 194.087 167.004 194.549 167.398 194.987L166.654 195.655C166.239 195.194 165.841 194.706 165.461 194.191L166.266 193.598ZM170.032 197.405C170.998 198.136 172.018 198.765 173.073 199.305L172.618 200.195C171.514 199.631 170.444 198.971 169.429 198.202L170.032 197.405ZM176.395 200.694C177.549 201.081 178.72 201.385 179.887 201.621L179.69 202.601C178.486 202.358 177.274 202.044 176.077 201.642L176.395 200.694ZM183.474 202.148C184.728 202.268 185.948 202.323 187.103 202.331L187.096 203.331C185.915 203.323 184.665 203.267 183.378 203.143L183.474 202.148ZM190.738 202.211C191.389 202.164 191.995 202.106 192.546 202.044L192.658 203.038C192.094 203.101 191.475 203.16 190.81 203.209L190.738 202.211Z" fill="url(#paint45_linear_66_2)"/>
<path d="M190.691 200.093L191.385 205.057C191.503 205.902 192.555 206.221 193.122 205.584L195.366 203.064C195.742 202.642 195.693 201.993 195.258 201.631L192.321 199.186C191.619 198.602 190.565 199.188 190.691 200.093Z" fill="url(#paint46_linear_66_2)"/>
<path d="M511.583 178.356C510.368 191.271 511.553 203.128 492.382 211.612C481.33 217.452 473.843 215.224 471.832 210.921C469.203 204.514 473.919 198.16 481.251 202.393C488.47 206.56 483.447 221.933 471.369 231.517C470.988 231.82 470.566 232.093 470.139 232.326C454.398 240.934 452.581 237.203 441.829 233.751" stroke="url(#paint47_linear_66_2)" stroke-linejoin="round" stroke-dasharray="4 4"/>
<path d="M444.295 237.839L446.285 232.611C446.589 231.814 445.82 231.028 445.017 231.313L441.468 232.571C440.935 232.76 440.665 233.353 440.872 233.879L442.43 237.849C442.764 238.699 443.97 238.693 444.295 237.839Z" fill="url(#paint48_linear_66_2)"/>
<path d="M394.45 115.044L409.378 84.6723C411.435 80.4869 416.112 78.2791 420.65 79.3508L443.05 84.6401C447.419 85.6716 451.939 83.6661 454.106 79.7354L461.705 65.9507C463.049 63.5133 465.347 61.7461 468.048 61.0741L483.028 57.3477" stroke="url(#paint49_linear_66_2)" stroke-linejoin="round" stroke-dasharray="4 4"/>
<path d="M478.457 50.2447L487.28 53.9084C487.79 54.1202 488.032 54.7053 487.82 55.2154L483.231 66.2685L477.149 51.5501C476.809 50.7267 477.634 49.903 478.457 50.2447Z" fill="url(#paint50_linear_66_2)"/>
</g>
<defs>
<linearGradient id="paint0_linear_66_2" x1="39" y1="1" x2="38.9999" y2="297" gradientUnits="userSpaceOnUse">
<stop stop-color="#F43F5E" stop-opacity="0"/>
<stop offset="0.21" stop-color="#F43F5E"/>
<stop offset="0.5" stop-color="#7E22CE"/>
<stop offset="0.785" stop-color="#60A5FA"/>
<stop offset="1" stop-color="#60A5FA" stop-opacity="0"/>
</linearGradient>
<linearGradient id="paint1_linear_66_2" x1="2" y1="1" x2="1.9999" y2="297" gradientUnits="userSpaceOnUse">
<stop stop-color="#F43F5E" stop-opacity="0"/>
<stop offset="0.21" stop-color="#F43F5E"/>
<stop offset="0.5" stop-color="#7E22CE"/>
<stop offset="0.785" stop-color="#60A5FA"/>
<stop offset="1" stop-color="#60A5FA" stop-opacity="0"/>
</linearGradient>
<linearGradient id="paint2_linear_66_2" x1="682" y1="1" x2="682" y2="297" gradientUnits="userSpaceOnUse">
<stop stop-color="#F43F5E" stop-opacity="0"/>
<stop offset="0.21" stop-color="#F43F5E"/>
<stop offset="0.5" stop-color="#7E22CE"/>
<stop offset="0.785" stop-color="#60A5FA"/>
<stop offset="1" stop-color="#60A5FA" stop-opacity="0"/>
</linearGradient>
<linearGradient id="paint3_linear_66_2" x1="645" y1="1" x2="645" y2="297" gradientUnits="userSpaceOnUse">
<stop stop-color="#F43F5E" stop-opacity="0"/>
<stop offset="0.21" stop-color="#F43F5E"/>
<stop offset="0.5" stop-color="#7E22CE"/>
<stop offset="0.785" stop-color="#60A5FA"/>
<stop offset="1" stop-color="#60A5FA" stop-opacity="0"/>
</linearGradient>
<linearGradient id="paint4_linear_66_2" x1="677" y1="110" x2="-4.12162e-05" y2="109.999" gradientUnits="userSpaceOnUse">
<stop stop-color="#F43F5E" stop-opacity="0"/>
<stop offset="0.21" stop-color="#F43F5E"/>
<stop offset="0.5" stop-color="#7E22CE"/>
<stop offset="0.785" stop-color="#60A5FA"/>
<stop offset="1" stop-color="#60A5FA" stop-opacity="0"/>
</linearGradient>
<linearGradient id="paint5_linear_66_2" x1="677" y1="73" x2="-4.12162e-05" y2="72.9995" gradientUnits="userSpaceOnUse">
<stop stop-color="#F43F5E" stop-opacity="0"/>
<stop offset="0.21" stop-color="#F43F5E"/>
<stop offset="0.5" stop-color="#7E22CE"/>
<stop offset="0.785" stop-color="#60A5FA"/>
<stop offset="1" stop-color="#60A5FA" stop-opacity="0"/>
</linearGradient>
<linearGradient id="paint6_linear_66_2" x1="677" y1="298" x2="-4.12162e-05" y2="297.999" gradientUnits="userSpaceOnUse">
<stop stop-color="#F43F5E" stop-opacity="0"/>
<stop offset="0.21" stop-color="#F43F5E"/>
<stop offset="0.5" stop-color="#7E22CE"/>
<stop offset="0.785" stop-color="#60A5FA"/>
<stop offset="1" stop-color="#60A5FA" stop-opacity="0"/>
</linearGradient>
<linearGradient id="paint7_linear_66_2" x1="677" y1="261" x2="-4.12162e-05" y2="260.999" gradientUnits="userSpaceOnUse">
<stop stop-color="#F43F5E" stop-opacity="0"/>
<stop offset="0.21" stop-color="#F43F5E"/>
<stop offset="0.5" stop-color="#7E22CE"/>
<stop offset="0.785" stop-color="#60A5FA"/>
<stop offset="1" stop-color="#60A5FA" stop-opacity="0"/>
</linearGradient>
<linearGradient id="paint8_linear_66_2" x1="677" y1="39" x2="-4.12162e-05" y2="38.9995" gradientUnits="userSpaceOnUse">
<stop stop-color="#F43F5E" stop-opacity="0"/>
<stop offset="0.21" stop-color="#F43F5E"/>
<stop offset="0.5" stop-color="#7E22CE"/>
<stop offset="0.785" stop-color="#60A5FA"/>
<stop offset="1" stop-color="#60A5FA" stop-opacity="0"/>
</linearGradient>
<linearGradient id="paint9_linear_66_2" x1="677" y1="2.00003" x2="-4.12162e-05" y2="1.99945" gradientUnits="userSpaceOnUse">
<stop stop-color="#F43F5E" stop-opacity="0"/>
<stop offset="0.21" stop-color="#F43F5E"/>
<stop offset="0.5" stop-color="#7E22CE"/>
<stop offset="0.785" stop-color="#60A5FA"/>
<stop offset="1" stop-color="#60A5FA" stop-opacity="0"/>
</linearGradient>
<linearGradient id="paint10_linear_66_2" x1="677" y1="227" x2="-4.12162e-05" y2="226.999" gradientUnits="userSpaceOnUse">
<stop stop-color="#F43F5E" stop-opacity="0"/>
<stop offset="0.21" stop-color="#F43F5E"/>
<stop offset="0.5" stop-color="#7E22CE"/>
<stop offset="0.785" stop-color="#60A5FA"/>
<stop offset="1" stop-color="#60A5FA" stop-opacity="0"/>
</linearGradient>
<linearGradient id="paint11_linear_66_2" x1="677" y1="190" x2="-4.12162e-05" y2="189.999" gradientUnits="userSpaceOnUse">
<stop stop-color="#F43F5E" stop-opacity="0"/>
<stop offset="0.21" stop-color="#F43F5E"/>
<stop offset="0.5" stop-color="#7E22CE"/>
<stop offset="0.785" stop-color="#60A5FA"/>
<stop offset="1" stop-color="#60A5FA" stop-opacity="0"/>
</linearGradient>
<linearGradient id="paint12_linear_66_2" x1="96" y1="3" x2="95.9999" y2="297" gradientUnits="userSpaceOnUse">
<stop stop-color="#F43F5E" stop-opacity="0"/>
<stop offset="0.21" stop-color="#F43F5E"/>
<stop offset="0.5" stop-color="#7E22CE"/>
<stop offset="0.785" stop-color="#60A5FA"/>
<stop offset="1" stop-color="#60A5FA" stop-opacity="0"/>
</linearGradient>
<linearGradient id="paint13_linear_66_2" x1="129" y1="3" x2="129" y2="297" gradientUnits="userSpaceOnUse">
<stop stop-color="#F43F5E" stop-opacity="0"/>
<stop offset="0.21" stop-color="#F43F5E"/>
<stop offset="0.5" stop-color="#7E22CE"/>
<stop offset="0.785" stop-color="#60A5FA"/>
<stop offset="1" stop-color="#60A5FA" stop-opacity="0"/>
</linearGradient>
<linearGradient id="paint14_linear_66_2" x1="214" y1="3" x2="214" y2="297" gradientUnits="userSpaceOnUse">
<stop stop-color="#F43F5E" stop-opacity="0"/>
<stop offset="0.21" stop-color="#F43F5E"/>
<stop offset="0.5" stop-color="#7E22CE"/>
<stop offset="0.785" stop-color="#60A5FA"/>
<stop offset="1" stop-color="#60A5FA" stop-opacity="0"/>
</linearGradient>
<linearGradient id="paint15_linear_66_2" x1="241" y1="3" x2="241" y2="297" gradientUnits="userSpaceOnUse">
<stop stop-color="#F43F5E" stop-opacity="0"/>
<stop offset="0.21" stop-color="#F43F5E"/>
<stop offset="0.5" stop-color="#7E22CE"/>
<stop offset="0.785" stop-color="#60A5FA"/>
<stop offset="1" stop-color="#60A5FA" stop-opacity="0"/>
</linearGradient>
<linearGradient id="paint16_linear_66_2" x1="264" y1="3" x2="264" y2="297" gradientUnits="userSpaceOnUse">
<stop stop-color="#F43F5E" stop-opacity="0"/>
<stop offset="0.21" stop-color="#F43F5E"/>
<stop offset="0.5" stop-color="#7E22CE"/>
<stop offset="0.785" stop-color="#60A5FA"/>
<stop offset="1" stop-color="#60A5FA" stop-opacity="0"/>
</linearGradient>
<linearGradient id="paint17_linear_66_2" x1="300" y1="3" x2="300" y2="297" gradientUnits="userSpaceOnUse">
<stop stop-color="#F43F5E" stop-opacity="0"/>
<stop offset="0.21" stop-color="#F43F5E"/>
<stop offset="0.5" stop-color="#7E22CE"/>
<stop offset="0.785" stop-color="#60A5FA"/>
<stop offset="1" stop-color="#60A5FA" stop-opacity="0"/>
</linearGradient>
<linearGradient id="paint18_linear_66_2" x1="359" y1="3" x2="359" y2="297" gradientUnits="userSpaceOnUse">
<stop stop-color="#F43F5E" stop-opacity="0"/>
<stop offset="0.21" stop-color="#F43F5E"/>
<stop offset="0.5" stop-color="#7E22CE"/>
<stop offset="0.785" stop-color="#60A5FA"/>
<stop offset="1" stop-color="#60A5FA" stop-opacity="0"/>
</linearGradient>
<linearGradient id="paint19_linear_66_2" x1="407" y1="3" x2="407" y2="297" gradientUnits="userSpaceOnUse">
<stop stop-color="#F43F5E" stop-opacity="0"/>
<stop offset="0.21" stop-color="#F43F5E"/>
<stop offset="0.5" stop-color="#7E22CE"/>
<stop offset="0.785" stop-color="#60A5FA"/>
<stop offset="1" stop-color="#60A5FA" stop-opacity="0"/>
</linearGradient>
<linearGradient id="paint20_linear_66_2" x1="471" y1="3" x2="471" y2="297" gradientUnits="userSpaceOnUse">
<stop stop-color="#F43F5E" stop-opacity="0"/>
<stop offset="0.21" stop-color="#F43F5E"/>
<stop offset="0.5" stop-color="#7E22CE"/>
<stop offset="0.785" stop-color="#60A5FA"/>
<stop offset="1" stop-color="#60A5FA" stop-opacity="0"/>
</linearGradient>
<linearGradient id="paint21_linear_66_2" x1="533" y1="3" x2="533" y2="297" gradientUnits="userSpaceOnUse">
<stop stop-color="#F43F5E" stop-opacity="0"/>
<stop offset="0.21" stop-color="#F43F5E"/>
<stop offset="0.5" stop-color="#7E22CE"/>
<stop offset="0.785" stop-color="#60A5FA"/>
<stop offset="1" stop-color="#60A5FA" stop-opacity="0"/>
</linearGradient>
<linearGradient id="paint22_linear_66_2" x1="576" y1="3" x2="576" y2="297" gradientUnits="userSpaceOnUse">
<stop stop-color="#F43F5E" stop-opacity="0"/>
<stop offset="0.21" stop-color="#F43F5E"/>
<stop offset="0.5" stop-color="#7E22CE"/>
<stop offset="0.785" stop-color="#60A5FA"/>
<stop offset="1" stop-color="#60A5FA" stop-opacity="0"/>
</linearGradient>
<linearGradient id="paint23_linear_66_2" x1="118" y1="109" x2="118" y2="189" gradientUnits="userSpaceOnUse">
<stop stop-color="#F43F5E" stop-opacity="0"/>
<stop offset="0.21" stop-color="#F43F5E"/>
<stop offset="0.5" stop-color="#7E22CE"/>
<stop offset="0.785" stop-color="#60A5FA"/>
<stop offset="1" stop-color="#60A5FA" stop-opacity="0"/>
</linearGradient>
<linearGradient id="paint24_linear_66_2" x1="478" y1="109" x2="478" y2="189" gradientUnits="userSpaceOnUse">
<stop stop-color="#F43F5E" stop-opacity="0"/>
<stop offset="0.21" stop-color="#F43F5E"/>
<stop offset="0.5" stop-color="#7E22CE"/>
<stop offset="0.785" stop-color="#60A5FA"/>
<stop offset="1" stop-color="#60A5FA" stop-opacity="0"/>
</linearGradient>
<linearGradient id="paint25_linear_66_2" x1="563" y1="109" x2="563" y2="189" gradientUnits="userSpaceOnUse">
<stop stop-color="#F43F5E" stop-opacity="0"/>
<stop offset="0.21" stop-color="#F43F5E"/>
<stop offset="0.5" stop-color="#7E22CE"/>
<stop offset="0.785" stop-color="#60A5FA"/>
<stop offset="1" stop-color="#60A5FA" stop-opacity="0"/>
</linearGradient>
<linearGradient id="paint26_linear_66_2" x1="644" y1="109" x2="644" y2="189" gradientUnits="userSpaceOnUse">
<stop stop-color="#F43F5E" stop-opacity="0"/>
<stop offset="0.21" stop-color="#F43F5E"/>
<stop offset="0.5" stop-color="#7E22CE"/>
<stop offset="0.785" stop-color="#60A5FA"/>
<stop offset="1" stop-color="#60A5FA" stop-opacity="0"/>
</linearGradient>
<linearGradient id="paint27_linear_66_2" x1="38.5001" y1="3" x2="38.5001" y2="297" gradientUnits="userSpaceOnUse">
<stop stop-color="#F43F5E" stop-opacity="0"/>
<stop offset="0.21" stop-color="#F43F5E"/>
<stop offset="0.5" stop-color="#7E22CE"/>
<stop offset="0.785" stop-color="#60A5FA"/>
<stop offset="1" stop-color="#60A5FA" stop-opacity="0"/>
</linearGradient>
<linearGradient id="paint28_linear_66_2" x1="0.999909" y1="3" x2="0.999912" y2="297" gradientUnits="userSpaceOnUse">
<stop stop-color="#F43F5E" stop-opacity="0"/>
<stop offset="0.21" stop-color="#F43F5E"/>
<stop offset="0.5" stop-color="#7E22CE"/>
<stop offset="0.785" stop-color="#60A5FA"/>
<stop offset="1" stop-color="#60A5FA" stop-opacity="0"/>
</linearGradient>
<linearGradient id="paint29_linear_66_2" x1="680.5" y1="3" x2="680.5" y2="297" gradientUnits="userSpaceOnUse">
<stop stop-color="#F43F5E" stop-opacity="0"/>
<stop offset="0.21" stop-color="#F43F5E"/>
<stop offset="0.5" stop-color="#7E22CE"/>
<stop offset="0.785" stop-color="#60A5FA"/>
<stop offset="1" stop-color="#60A5FA" stop-opacity="0"/>
</linearGradient>
<linearGradient id="paint30_linear_66_2" x1="643" y1="3" x2="643" y2="297" gradientUnits="userSpaceOnUse">
<stop stop-color="#F43F5E" stop-opacity="0"/>
<stop offset="0.21" stop-color="#F43F5E"/>
<stop offset="0.5" stop-color="#7E22CE"/>
<stop offset="0.785" stop-color="#60A5FA"/>
<stop offset="1" stop-color="#60A5FA" stop-opacity="0"/>
</linearGradient>
<linearGradient id="paint31_linear_66_2" x1="215.521" y1="188.986" x2="228.724" y2="238.519" gradientUnits="userSpaceOnUse">
<stop stop-color="#F43F5E"/>
<stop offset="0.5" stop-color="#7E22CE"/>
<stop offset="1" stop-color="#60A5FA"/>
</linearGradient>
<linearGradient id="paint32_linear_66_2" x1="346.943" y1="216.555" x2="360.147" y2="266.088" gradientUnits="userSpaceOnUse">
<stop stop-color="#F43F5E"/>
<stop offset="0.5" stop-color="#7E22CE"/>
<stop offset="1" stop-color="#60A5FA"/>
</linearGradient>
<linearGradient id="paint33_linear_66_2" x1="515.274" y1="29.9306" x2="526.462" y2="71.9011" gradientUnits="userSpaceOnUse">
<stop stop-color="#F43F5E"/>
<stop offset="0.5" stop-color="#7E22CE"/>
<stop offset="1" stop-color="#60A5FA"/>
</linearGradient>
<linearGradient id="paint34_linear_66_2" x1="39" y1="95" x2="75.4125" y2="299.748" gradientUnits="userSpaceOnUse">
<stop stop-color="#F43F5E"/>
<stop offset="0.52" stop-color="#7E22CE"/>
<stop offset="1" stop-color="#60A5FA"/>
</linearGradient>
<linearGradient id="paint35_linear_66_2" x1="39" y1="95" x2="75.4125" y2="299.748" gradientUnits="userSpaceOnUse">
<stop stop-color="#F43F5E"/>
<stop offset="0.52" stop-color="#7E22CE"/>
<stop offset="1" stop-color="#60A5FA"/>
</linearGradient>
<linearGradient id="paint36_linear_66_2" x1="39" y1="95" x2="75.4125" y2="299.748" gradientUnits="userSpaceOnUse">
<stop stop-color="#F43F5E"/>
<stop offset="0.52" stop-color="#7E22CE"/>
<stop offset="1" stop-color="#60A5FA"/>
</linearGradient>
<linearGradient id="paint37_linear_66_2" x1="39" y1="95" x2="75.4125" y2="299.748" gradientUnits="userSpaceOnUse">
<stop stop-color="#F43F5E"/>
<stop offset="0.52" stop-color="#7E22CE"/>
<stop offset="1" stop-color="#60A5FA"/>
</linearGradient>
<linearGradient id="paint38_linear_66_2" x1="39" y1="95" x2="75.4125" y2="299.748" gradientUnits="userSpaceOnUse">
<stop stop-color="#F43F5E"/>
<stop offset="0.52" stop-color="#7E22CE"/>
<stop offset="1" stop-color="#60A5FA"/>
</linearGradient>
<linearGradient id="paint39_linear_66_2" x1="39" y1="95" x2="75.4125" y2="299.748" gradientUnits="userSpaceOnUse">
<stop stop-color="#F43F5E"/>
<stop offset="0.52" stop-color="#7E22CE"/>
<stop offset="1" stop-color="#60A5FA"/>
</linearGradient>
<linearGradient id="paint40_linear_66_2" x1="39" y1="95" x2="75.4125" y2="299.748" gradientUnits="userSpaceOnUse">
<stop stop-color="#F43F5E"/>
<stop offset="0.52" stop-color="#7E22CE"/>
<stop offset="1" stop-color="#60A5FA"/>
</linearGradient>
<linearGradient id="paint41_linear_66_2" x1="39" y1="95" x2="75.4125" y2="299.748" gradientUnits="userSpaceOnUse">
<stop stop-color="#F43F5E"/>
<stop offset="0.52" stop-color="#7E22CE"/>
<stop offset="1" stop-color="#60A5FA"/>
</linearGradient>
<linearGradient id="paint42_linear_66_2" x1="39" y1="95" x2="75.4124" y2="299.748" gradientUnits="userSpaceOnUse">
<stop stop-color="#F43F5E"/>
<stop offset="0.52" stop-color="#7E22CE"/>
<stop offset="1" stop-color="#60A5FA"/>
</linearGradient>
<linearGradient id="paint43_linear_66_2" x1="39" y1="95" x2="75.4125" y2="299.748" gradientUnits="userSpaceOnUse">
<stop stop-color="#F43F5E"/>
<stop offset="0.52" stop-color="#7E22CE"/>
<stop offset="1" stop-color="#60A5FA"/>
</linearGradient>
<linearGradient id="paint44_linear_66_2" x1="39" y1="95" x2="75.4124" y2="299.748" gradientUnits="userSpaceOnUse">
<stop stop-color="#F43F5E"/>
<stop offset="0.52" stop-color="#7E22CE"/>
<stop offset="1" stop-color="#60A5FA"/>
</linearGradient>
<linearGradient id="paint45_linear_66_2" x1="173.892" y1="140.303" x2="244.526" y2="145.87" gradientUnits="userSpaceOnUse">
<stop stop-color="#F43F5E"/>
<stop offset="0.5" stop-color="#7E22CE"/>
<stop offset="1" stop-color="#60A5FA"/>
</linearGradient>
<linearGradient id="paint46_linear_66_2" x1="189.137" y1="206.873" x2="199.007" y2="201.008" gradientUnits="userSpaceOnUse">
<stop stop-color="#F43F5E"/>
<stop offset="0.52" stop-color="#7E22CE"/>
<stop offset="1" stop-color="#60A5FA"/>
</linearGradient>
<linearGradient id="paint47_linear_66_2" x1="517.964" y1="182.039" x2="443.765" y2="170.612" gradientUnits="userSpaceOnUse">
<stop stop-color="#F43F5E"/>
<stop offset="0.5" stop-color="#7E22CE"/>
<stop offset="1" stop-color="#60A5FA"/>
</linearGradient>
<linearGradient id="paint48_linear_66_2" x1="449.254" y1="232.193" x2="437.095" y2="232.601" gradientUnits="userSpaceOnUse">
<stop stop-color="#F43F5E"/>
<stop offset="0.52" stop-color="#7E22CE"/>
<stop offset="1" stop-color="#60A5FA"/>
</linearGradient>
<linearGradient id="paint49_linear_66_2" x1="489.144" y1="66.5742" x2="447.911" y2="22.9806" gradientUnits="userSpaceOnUse">
<stop stop-color="#F43F5E"/>
<stop offset="0.5" stop-color="#7E22CE"/>
<stop offset="1" stop-color="#60A5FA"/>
</linearGradient>
<linearGradient id="paint50_linear_66_2" x1="488.204" y1="54.2918" x2="469.047" y2="59.9253" gradientUnits="userSpaceOnUse">
<stop stop-color="#F43F5E"/>
<stop offset="0.52" stop-color="#7E22CE"/>
<stop offset="1" stop-color="#60A5FA"/>
</linearGradient>
<clipPath id="clip0_66_2">
<rect width="681" height="297" rx="20" fill="white"/>
</clipPath>
</defs>
</svg>
