<svg viewBox="0 0 681 297" fill="none" xmlns="http://www.w3.org/2000/svg">
<g clip-path="url(#clip0_66_119)">
<path d="M38 1V297" stroke="url(#paint0_linear_66_119)" stroke-opacity="0.4" stroke-width="0.5" stroke-dasharray="4 4"/>
<path d="M1 1V297" stroke="url(#paint1_linear_66_119)" stroke-opacity="0.4" stroke-width="0.5" stroke-dasharray="4 4"/>
<path d="M681 1V297" stroke="url(#paint2_linear_66_119)" stroke-opacity="0.4" stroke-width="0.5" stroke-dasharray="4 4"/>
<path d="M644 1V297" stroke="url(#paint3_linear_66_119)" stroke-opacity="0.4" stroke-width="0.5" stroke-dasharray="4 4"/>
<path d="M677 109L3.05176e-05 109" stroke="url(#paint4_linear_66_119)" stroke-opacity="0.3" stroke-width="0.5" stroke-dasharray="4 4"/>
<path d="M677 72L3.05176e-05 72" stroke="url(#paint5_linear_66_119)" stroke-opacity="0.3" stroke-width="0.5" stroke-dasharray="4 4"/>
<path d="M677 297L3.05176e-05 297" stroke="url(#paint6_linear_66_119)" stroke-opacity="0.3" stroke-width="0.5" stroke-dasharray="4 4"/>
<path d="M677 260L3.05176e-05 260" stroke="url(#paint7_linear_66_119)" stroke-opacity="0.3" stroke-width="0.5" stroke-dasharray="4 4"/>
<path d="M677 38L3.05176e-05 38" stroke="url(#paint8_linear_66_119)" stroke-opacity="0.3" stroke-width="0.5" stroke-dasharray="4 4"/>
<path d="M677 1L3.05176e-05 0.999969" stroke="url(#paint9_linear_66_119)" stroke-opacity="0.3" stroke-width="0.5" stroke-dasharray="4 4"/>
<path d="M677 226L3.05176e-05 226" stroke="url(#paint10_linear_66_119)" stroke-opacity="0.3" stroke-width="0.5" stroke-dasharray="4 4"/>
<path d="M677 189L3.05176e-05 189" stroke="url(#paint11_linear_66_119)" stroke-opacity="0.3" stroke-width="0.5" stroke-dasharray="4 4"/>
<path d="M95 3V297" stroke="url(#paint12_linear_66_119)" stroke-opacity="0.35" stroke-width="0.5" stroke-dasharray="2 2"/>
<path d="M128 3V297" stroke="url(#paint13_linear_66_119)" stroke-opacity="0.35" stroke-width="0.5" stroke-dasharray="2 2"/>
<path d="M213 3V297" stroke="url(#paint14_linear_66_119)" stroke-opacity="0.35" stroke-width="0.5" stroke-dasharray="2 2"/>
<path d="M240 3V297" stroke="url(#paint15_linear_66_119)" stroke-opacity="0.35" stroke-width="0.5" stroke-dasharray="2 2"/>
<path d="M263 3V297" stroke="url(#paint16_linear_66_119)" stroke-opacity="0.35" stroke-width="0.5" stroke-dasharray="2 2"/>
<path d="M299 3V297" stroke="url(#paint17_linear_66_119)" stroke-opacity="0.35" stroke-width="0.5" stroke-dasharray="2 2"/>
<path d="M358 3V297" stroke="url(#paint18_linear_66_119)" stroke-opacity="0.35" stroke-width="0.5" stroke-dasharray="2 2"/>
<path d="M406 3V297" stroke="url(#paint19_linear_66_119)" stroke-opacity="0.35" stroke-width="0.5" stroke-dasharray="2 2"/>
<path d="M470 3V297" stroke="url(#paint20_linear_66_119)" stroke-opacity="0.35" stroke-width="0.5" stroke-dasharray="2 2"/>
<path d="M532 3V297" stroke="url(#paint21_linear_66_119)" stroke-opacity="0.35" stroke-width="0.5" stroke-dasharray="2 2"/>
<path d="M575 3V297" stroke="url(#paint22_linear_66_119)" stroke-opacity="0.35" stroke-width="0.5" stroke-dasharray="2 2"/>
<circle cx="78" cy="149" r="40" stroke="url(#paint23_linear_66_119)" stroke-opacity="0.35" stroke-width="0.5" stroke-dasharray="6 3"/>
<circle cx="438" cy="149" r="40" stroke="url(#paint24_linear_66_119)" stroke-opacity="0.35" stroke-width="0.5" stroke-dasharray="6 3"/>
<circle cx="523" cy="149" r="40" stroke="url(#paint25_linear_66_119)" stroke-opacity="0.35" stroke-width="0.5" stroke-dasharray="6 3"/>
<circle cx="604" cy="149" r="40" stroke="url(#paint26_linear_66_119)" stroke-opacity="0.35" stroke-width="0.5" stroke-dasharray="6 3"/>
<path d="M38.5 297L4.5 3" stroke="url(#paint27_linear_66_119)" stroke-opacity="0.25" stroke-width="0.5" stroke-dasharray="2 2"/>
<path d="M1 297L35 3" stroke="url(#paint28_linear_66_119)" stroke-opacity="0.25" stroke-width="0.5" stroke-dasharray="2 2"/>
<path d="M680.5 297L646.5 3" stroke="url(#paint29_linear_66_119)" stroke-opacity="0.25" stroke-width="0.5" stroke-dasharray="2 2"/>
<path d="M643 297L677 3" stroke="url(#paint30_linear_66_119)" stroke-opacity="0.25" stroke-width="0.5" stroke-dasharray="2 2"/>
<rect x="250" y="188" width="120" height="27" rx="9" stroke="url(#paint31_linear_66_119)" stroke-linecap="round" stroke-linejoin="round" stroke-dasharray="2 2"/>
<path d="M350.258 206.098C350.071 206.098 349.931 206.047 349.838 205.944C349.744 205.841 349.698 205.697 349.698 205.51V199.672C349.698 199.485 349.744 199.345 349.838 199.252C349.931 199.149 350.066 199.098 350.244 199.098C350.421 199.098 350.556 199.149 350.65 199.252C350.752 199.345 350.804 199.485 350.804 199.672V200.876L350.65 200.708C350.846 200.167 351.163 199.761 351.602 199.49C352.05 199.21 352.563 199.07 353.142 199.07C353.683 199.07 354.131 199.168 354.486 199.364C354.85 199.56 355.12 199.859 355.298 200.26C355.475 200.652 355.564 201.151 355.564 201.758V205.51C355.564 205.697 355.512 205.841 355.41 205.944C355.316 206.047 355.181 206.098 355.004 206.098C354.817 206.098 354.672 206.047 354.57 205.944C354.476 205.841 354.43 205.697 354.43 205.51V201.828C354.43 201.193 354.304 200.731 354.052 200.442C353.809 200.143 353.417 199.994 352.876 199.994C352.25 199.994 351.751 200.19 351.378 200.582C351.014 200.965 350.832 201.478 350.832 202.122V205.51C350.832 205.902 350.64 206.098 350.258 206.098Z" fill="#A92DA6"/>
<path d="M344.747 206.126C344.084 206.126 343.51 205.981 343.025 205.692C342.539 205.403 342.161 204.997 341.891 204.474C341.629 203.942 341.499 203.317 341.499 202.598C341.499 202.057 341.573 201.571 341.723 201.142C341.872 200.703 342.091 200.33 342.381 200.022C342.67 199.714 343.011 199.481 343.403 199.322C343.804 199.154 344.252 199.07 344.747 199.07C345.409 199.07 345.983 199.215 346.469 199.504C346.954 199.793 347.327 200.204 347.589 200.736C347.859 201.259 347.995 201.879 347.995 202.598C347.995 203.139 347.92 203.625 347.771 204.054C347.621 204.483 347.402 204.857 347.113 205.174C346.823 205.482 346.478 205.72 346.077 205.888C345.685 206.047 345.241 206.126 344.747 206.126ZM344.747 205.216C345.167 205.216 345.535 205.113 345.853 204.908C346.17 204.703 346.413 204.404 346.581 204.012C346.758 203.62 346.847 203.149 346.847 202.598C346.847 201.749 346.655 201.1 346.273 200.652C345.899 200.204 345.391 199.98 344.747 199.98C344.317 199.98 343.944 200.083 343.627 200.288C343.319 200.484 343.076 200.778 342.899 201.17C342.731 201.553 342.647 202.029 342.647 202.598C342.647 203.438 342.838 204.087 343.221 204.544C343.603 204.992 344.112 205.216 344.747 205.216Z" fill="#A92DA6"/>
<path d="M339.225 206.07C339.038 206.07 338.898 206.019 338.805 205.916C338.711 205.804 338.665 205.65 338.665 205.454V199.728C338.665 199.532 338.711 199.383 338.805 199.28C338.898 199.177 339.038 199.126 339.225 199.126C339.402 199.126 339.542 199.177 339.645 199.28C339.747 199.383 339.799 199.532 339.799 199.728V205.454C339.799 205.65 339.747 205.804 339.645 205.916C339.551 206.019 339.411 206.07 339.225 206.07ZM339.225 197.558C338.991 197.558 338.809 197.497 338.679 197.376C338.548 197.245 338.483 197.073 338.483 196.858C338.483 196.634 338.548 196.466 338.679 196.354C338.809 196.233 338.991 196.172 339.225 196.172C339.467 196.172 339.649 196.233 339.771 196.354C339.901 196.466 339.967 196.634 339.967 196.858C339.967 197.073 339.901 197.245 339.771 197.376C339.649 197.497 339.467 197.558 339.225 197.558Z" fill="#A92DA6"/>
<path d="M336.418 206.126C335.886 206.126 335.438 206.033 335.074 205.846C334.719 205.65 334.453 205.37 334.276 205.006C334.099 204.633 334.01 204.18 334.01 203.648V200.078H333.072C332.913 200.078 332.792 200.041 332.708 199.966C332.624 199.882 332.582 199.77 332.582 199.63C332.582 199.49 332.624 199.383 332.708 199.308C332.792 199.233 332.913 199.196 333.072 199.196H334.01V197.586C334.01 197.399 334.061 197.259 334.164 197.166C334.267 197.063 334.407 197.012 334.584 197.012C334.761 197.012 334.897 197.063 334.99 197.166C335.093 197.259 335.144 197.399 335.144 197.586V199.196H336.908C337.067 199.196 337.188 199.233 337.272 199.308C337.356 199.383 337.398 199.49 337.398 199.63C337.398 199.77 337.356 199.882 337.272 199.966C337.188 200.041 337.067 200.078 336.908 200.078H335.144V203.536C335.144 204.068 335.256 204.474 335.48 204.754C335.704 205.025 336.068 205.16 336.572 205.16C336.749 205.16 336.899 205.141 337.02 205.104C337.151 205.067 337.258 205.048 337.342 205.048C337.426 205.039 337.496 205.067 337.552 205.132C337.608 205.197 337.636 205.309 337.636 205.468C337.636 205.58 337.613 205.683 337.566 205.776C337.529 205.869 337.459 205.935 337.356 205.972C337.244 206.009 337.095 206.042 336.908 206.07C336.731 206.107 336.567 206.126 336.418 206.126Z" fill="#A92DA6"/>
<path d="M328.406 206.126C327.94 206.126 327.52 206.037 327.146 205.86C326.782 205.673 326.493 205.421 326.278 205.104C326.064 204.787 325.956 204.432 325.956 204.04C325.956 203.536 326.082 203.139 326.334 202.85C326.596 202.561 327.02 202.355 327.608 202.234C328.206 202.113 329.018 202.052 330.044 202.052H330.674V202.794H330.058C329.302 202.794 328.705 202.831 328.266 202.906C327.837 202.971 327.534 203.088 327.356 203.256C327.188 203.424 327.104 203.662 327.104 203.97C327.104 204.353 327.235 204.665 327.496 204.908C327.767 205.151 328.131 205.272 328.588 205.272C328.962 205.272 329.288 205.183 329.568 205.006C329.858 204.829 330.082 204.586 330.24 204.278C330.408 203.97 330.492 203.615 330.492 203.214V201.618C330.492 201.039 330.376 200.624 330.142 200.372C329.909 200.111 329.526 199.98 328.994 199.98C328.668 199.98 328.341 200.022 328.014 200.106C327.688 200.19 327.342 200.325 326.978 200.512C326.848 200.577 326.736 200.601 326.642 200.582C326.549 200.554 326.474 200.503 326.418 200.428C326.362 200.353 326.33 200.269 326.32 200.176C326.311 200.073 326.33 199.975 326.376 199.882C326.432 199.789 326.516 199.714 326.628 199.658C327.039 199.453 327.445 199.303 327.846 199.21C328.248 199.117 328.63 199.07 328.994 199.07C329.582 199.07 330.068 199.168 330.45 199.364C330.833 199.551 331.118 199.84 331.304 200.232C331.491 200.615 331.584 201.109 331.584 201.716V205.51C331.584 205.697 331.538 205.841 331.444 205.944C331.36 206.047 331.234 206.098 331.066 206.098C330.889 206.098 330.754 206.047 330.66 205.944C330.567 205.841 330.52 205.697 330.52 205.51V204.418H330.646C330.572 204.773 330.427 205.076 330.212 205.328C330.007 205.58 329.75 205.776 329.442 205.916C329.134 206.056 328.789 206.126 328.406 206.126Z" fill="#A92DA6"/>
<path d="M324.1 206.126C323.568 206.126 323.12 206.033 322.756 205.846C322.401 205.65 322.135 205.37 321.958 205.006C321.78 204.633 321.692 204.18 321.692 203.648V200.078H320.754C320.595 200.078 320.474 200.041 320.39 199.966C320.306 199.882 320.264 199.77 320.264 199.63C320.264 199.49 320.306 199.383 320.39 199.308C320.474 199.233 320.595 199.196 320.754 199.196H321.692V197.586C321.692 197.399 321.743 197.259 321.846 197.166C321.948 197.063 322.088 197.012 322.266 197.012C322.443 197.012 322.578 197.063 322.672 197.166C322.774 197.259 322.826 197.399 322.826 197.586V199.196H324.59C324.748 199.196 324.87 199.233 324.954 199.308C325.038 199.383 325.08 199.49 325.08 199.63C325.08 199.77 325.038 199.882 324.954 199.966C324.87 200.041 324.748 200.078 324.59 200.078H322.826V203.536C322.826 204.068 322.938 204.474 323.162 204.754C323.386 205.025 323.75 205.16 324.254 205.16C324.431 205.16 324.58 205.141 324.702 205.104C324.832 205.067 324.94 205.048 325.024 205.048C325.108 205.039 325.178 205.067 325.234 205.132C325.29 205.197 325.318 205.309 325.318 205.468C325.318 205.58 325.294 205.683 325.248 205.776C325.21 205.869 325.14 205.935 325.038 205.972C324.926 206.009 324.776 206.042 324.59 206.07C324.412 206.107 324.249 206.126 324.1 206.126Z" fill="#A92DA6"/>
<path d="M313.973 206.098C313.786 206.098 313.646 206.047 313.553 205.944C313.459 205.841 313.413 205.697 313.413 205.51V199.672C313.413 199.485 313.459 199.345 313.553 199.252C313.646 199.149 313.781 199.098 313.959 199.098C314.136 199.098 314.271 199.149 314.365 199.252C314.467 199.345 314.519 199.485 314.519 199.672V200.876L314.365 200.708C314.561 200.167 314.878 199.761 315.317 199.49C315.765 199.21 316.278 199.07 316.857 199.07C317.398 199.07 317.846 199.168 318.201 199.364C318.565 199.56 318.835 199.859 319.013 200.26C319.19 200.652 319.279 201.151 319.279 201.758V205.51C319.279 205.697 319.227 205.841 319.125 205.944C319.031 206.047 318.896 206.098 318.719 206.098C318.532 206.098 318.387 206.047 318.285 205.944C318.191 205.841 318.145 205.697 318.145 205.51V201.828C318.145 201.193 318.019 200.731 317.767 200.442C317.524 200.143 317.132 199.994 316.591 199.994C315.965 199.994 315.466 200.19 315.093 200.582C314.729 200.965 314.547 201.478 314.547 202.122V205.51C314.547 205.902 314.355 206.098 313.973 206.098Z" fill="#A92DA6"/>
<path d="M309.028 206.126C308.309 206.126 307.688 205.986 307.166 205.706C306.652 205.417 306.251 205.011 305.962 204.488C305.682 203.965 305.542 203.34 305.542 202.612C305.542 201.903 305.682 201.287 305.962 200.764C306.242 200.232 306.624 199.817 307.11 199.518C307.604 199.219 308.174 199.07 308.818 199.07C309.275 199.07 309.686 199.149 310.05 199.308C310.414 199.457 310.722 199.677 310.974 199.966C311.235 200.255 311.431 200.605 311.562 201.016C311.702 201.427 311.772 201.889 311.772 202.402C311.772 202.551 311.73 202.663 311.646 202.738C311.562 202.803 311.44 202.836 311.282 202.836H306.41V202.094H311.016L310.792 202.276C310.792 201.772 310.717 201.347 310.568 201.002C310.418 200.647 310.199 200.377 309.91 200.19C309.63 200.003 309.275 199.91 308.846 199.91C308.37 199.91 307.964 200.022 307.628 200.246C307.301 200.461 307.054 200.764 306.886 201.156C306.718 201.539 306.634 201.987 306.634 202.5V202.584C306.634 203.443 306.839 204.096 307.25 204.544C307.67 204.992 308.262 205.216 309.028 205.216C309.345 205.216 309.658 205.174 309.966 205.09C310.283 205.006 310.591 204.866 310.89 204.67C311.02 204.586 311.137 204.549 311.24 204.558C311.352 204.558 311.44 204.591 311.506 204.656C311.571 204.712 311.613 204.787 311.632 204.88C311.66 204.964 311.65 205.057 311.604 205.16C311.566 205.263 311.487 205.351 311.366 205.426C311.058 205.65 310.694 205.823 310.274 205.944C309.854 206.065 309.438 206.126 309.028 206.126Z" fill="#A92DA6"/>
<path d="M294.559 206.098C294.373 206.098 294.233 206.047 294.139 205.944C294.046 205.841 293.999 205.697 293.999 205.51V199.672C293.999 199.485 294.046 199.345 294.139 199.252C294.233 199.149 294.368 199.098 294.545 199.098C294.723 199.098 294.858 199.149 294.951 199.252C295.054 199.345 295.105 199.485 295.105 199.672V200.904L294.951 200.708C295.129 200.185 295.413 199.784 295.805 199.504C296.207 199.215 296.683 199.07 297.233 199.07C297.812 199.07 298.279 199.21 298.633 199.49C298.997 199.761 299.24 200.185 299.361 200.764H299.151C299.319 200.241 299.618 199.831 300.047 199.532C300.486 199.224 300.995 199.07 301.573 199.07C302.087 199.07 302.507 199.168 302.833 199.364C303.169 199.56 303.421 199.859 303.589 200.26C303.757 200.652 303.841 201.151 303.841 201.758V205.51C303.841 205.697 303.79 205.841 303.687 205.944C303.594 206.047 303.454 206.098 303.267 206.098C303.09 206.098 302.95 206.047 302.847 205.944C302.754 205.841 302.707 205.697 302.707 205.51V201.814C302.707 201.189 302.6 200.731 302.385 200.442C302.171 200.143 301.807 199.994 301.293 199.994C300.733 199.994 300.29 200.19 299.963 200.582C299.646 200.965 299.487 201.487 299.487 202.15V205.51C299.487 205.697 299.436 205.841 299.333 205.944C299.24 206.047 299.1 206.098 298.913 206.098C298.736 206.098 298.596 206.047 298.493 205.944C298.4 205.841 298.353 205.697 298.353 205.51V201.814C298.353 201.189 298.241 200.731 298.017 200.442C297.803 200.143 297.443 199.994 296.939 199.994C296.379 199.994 295.936 200.19 295.609 200.582C295.292 200.965 295.133 201.487 295.133 202.15V205.51C295.133 205.902 294.942 206.098 294.559 206.098Z" fill="#A92DA6"/>
<path d="M288.532 206.126C287.981 206.126 287.524 206.028 287.16 205.832C286.805 205.627 286.534 205.323 286.348 204.922C286.17 204.521 286.082 204.021 286.082 203.424V199.672C286.082 199.476 286.128 199.331 286.222 199.238C286.324 199.145 286.464 199.098 286.642 199.098C286.828 199.098 286.968 199.145 287.062 199.238C287.164 199.331 287.216 199.476 287.216 199.672V203.41C287.216 204.007 287.337 204.455 287.58 204.754C287.832 205.043 288.224 205.188 288.756 205.188C289.334 205.188 289.806 204.992 290.17 204.6C290.534 204.208 290.716 203.695 290.716 203.06V199.672C290.716 199.476 290.762 199.331 290.856 199.238C290.958 199.145 291.103 199.098 291.29 199.098C291.467 199.098 291.602 199.145 291.696 199.238C291.798 199.331 291.85 199.476 291.85 199.672V205.51C291.85 205.902 291.668 206.098 291.304 206.098C291.126 206.098 290.986 206.047 290.884 205.944C290.79 205.841 290.744 205.697 290.744 205.51V204.236L290.926 204.432C290.739 204.983 290.431 205.403 290.002 205.692C289.582 205.981 289.092 206.126 288.532 206.126Z" fill="#A92DA6"/>
<path d="M282.527 206.126C281.846 206.126 281.258 205.977 280.763 205.678C280.268 205.379 279.886 204.964 279.615 204.432C279.354 203.891 279.223 203.265 279.223 202.556C279.223 202.015 279.298 201.529 279.447 201.1C279.596 200.671 279.816 200.307 280.105 200.008C280.394 199.7 280.74 199.467 281.141 199.308C281.552 199.149 282.014 199.07 282.527 199.07C282.863 199.07 283.213 199.121 283.577 199.224C283.941 199.327 284.272 199.504 284.571 199.756C284.664 199.821 284.725 199.901 284.753 199.994C284.781 200.087 284.781 200.181 284.753 200.274C284.725 200.358 284.678 200.433 284.613 200.498C284.548 200.554 284.464 200.587 284.361 200.596C284.268 200.605 284.17 200.573 284.067 200.498C283.824 200.311 283.577 200.181 283.325 200.106C283.073 200.031 282.83 199.994 282.597 199.994C282.233 199.994 281.916 200.055 281.645 200.176C281.374 200.288 281.146 200.451 280.959 200.666C280.772 200.881 280.628 201.147 280.525 201.464C280.432 201.781 280.385 202.15 280.385 202.57C280.385 203.382 280.576 204.026 280.959 204.502C281.342 204.969 281.888 205.202 282.597 205.202C282.83 205.202 283.068 205.165 283.311 205.09C283.563 205.015 283.815 204.885 284.067 204.698C284.17 204.623 284.268 204.591 284.361 204.6C284.454 204.609 284.534 204.647 284.599 204.712C284.664 204.768 284.706 204.843 284.725 204.936C284.753 205.029 284.753 205.123 284.725 205.216C284.697 205.3 284.636 205.375 284.543 205.44C284.244 205.683 283.918 205.86 283.563 205.972C283.208 206.075 282.863 206.126 282.527 206.126Z" fill="#A92DA6"/>
<path d="M274.692 206.126C274.029 206.126 273.455 205.981 272.97 205.692C272.485 205.403 272.107 204.997 271.836 204.474C271.575 203.942 271.444 203.317 271.444 202.598C271.444 202.057 271.519 201.571 271.668 201.142C271.817 200.703 272.037 200.33 272.326 200.022C272.615 199.714 272.956 199.481 273.348 199.322C273.749 199.154 274.197 199.07 274.692 199.07C275.355 199.07 275.929 199.215 276.414 199.504C276.899 199.793 277.273 200.204 277.534 200.736C277.805 201.259 277.94 201.879 277.94 202.598C277.94 203.139 277.865 203.625 277.716 204.054C277.567 204.483 277.347 204.857 277.058 205.174C276.769 205.482 276.423 205.72 276.022 205.888C275.63 206.047 275.187 206.126 274.692 206.126ZM274.692 205.216C275.112 205.216 275.481 205.113 275.798 204.908C276.115 204.703 276.358 204.404 276.526 204.012C276.703 203.62 276.792 203.149 276.792 202.598C276.792 201.749 276.601 201.1 276.218 200.652C275.845 200.204 275.336 199.98 274.692 199.98C274.263 199.98 273.889 200.083 273.572 200.288C273.264 200.484 273.021 200.778 272.844 201.17C272.676 201.553 272.592 202.029 272.592 202.598C272.592 203.438 272.783 204.087 273.166 204.544C273.549 204.992 274.057 205.216 274.692 205.216Z" fill="#A92DA6"/>
<path d="M262.257 206C262.052 206 261.893 205.949 261.781 205.846C261.679 205.734 261.627 205.575 261.627 205.37V196.76C261.627 196.555 261.679 196.401 261.781 196.298C261.893 196.186 262.052 196.13 262.257 196.13H264.959C266.555 196.13 267.787 196.55 268.655 197.39C269.523 198.23 269.957 199.453 269.957 201.058C269.957 201.861 269.845 202.57 269.621 203.186C269.407 203.793 269.085 204.306 268.655 204.726C268.226 205.146 267.703 205.463 267.087 205.678C266.471 205.893 265.762 206 264.959 206H262.257ZM262.775 205.02H264.875C265.529 205.02 266.093 204.936 266.569 204.768C267.055 204.6 267.456 204.353 267.773 204.026C268.1 203.699 268.343 203.289 268.501 202.794C268.66 202.29 268.739 201.711 268.739 201.058C268.739 199.742 268.417 198.757 267.773 198.104C267.129 197.441 266.163 197.11 264.875 197.11H262.775V205.02Z" fill="#A92DA6"/>
<path d="M550.286 114.236C550.286 112.341 551.634 111.38 554.33 111.354H581.116C583.572 111.354 585.961 111.927 588.283 113.075C592.474 115.184 594.583 118.614 594.609 123.365C594.609 126.995 593.008 130.078 589.805 132.614C588.39 133.709 586.842 134.576 585.16 135.217C587.429 136.578 589.431 138.74 591.166 141.703C594.476 147.442 596.945 151.446 598.573 153.715C600.228 155.984 601.87 157.358 603.498 157.839V159.961C599.174 160.361 595.811 159.534 593.408 157.479C591.033 155.423 588.63 151.98 586.201 147.148C583.772 142.29 582.224 139.314 581.557 138.22C580.889 137.125 580.249 136.578 579.635 136.578C579.048 136.551 578.554 137.019 578.153 137.979C577.78 138.94 577.473 139.541 577.232 139.781C576.832 140.155 576.191 140.355 575.311 140.382C574.456 140.382 573.776 139.995 573.269 139.221C572.788 138.447 572.548 137.713 572.548 137.019C572.548 134.75 574.483 133.615 578.354 133.615C579.154 133.615 579.822 133.642 580.355 133.695C583.772 133.535 586.148 131.854 587.482 128.65C588.07 127.182 588.363 125.594 588.363 123.886C588.363 119.775 586.868 116.879 583.879 115.197C582.277 114.316 580.422 113.876 578.313 113.876H571.307V152.954C571.307 154.689 571.453 155.73 571.747 156.077C572.041 156.397 572.615 156.638 573.469 156.798L576.191 157.358V159H560.616V157.438L562.938 156.958C564.353 156.664 565.194 156.117 565.461 155.316C565.755 154.516 565.901 152.981 565.901 150.712V119.001C565.368 115.504 563.953 113.702 561.657 113.596C560.856 113.596 559.802 114.116 558.494 115.157C556.706 116.599 555.158 117.333 553.85 117.359C552.542 117.359 551.621 117.012 551.087 116.318C550.553 115.598 550.286 114.904 550.286 114.236Z" fill="url(#paint32_linear_66_119)"/>
<path d="M540.316 156.518C542.479 156.518 543.773 154.889 544.2 151.633H545.802V159H513.931V157.318L516.253 156.838C517.694 156.544 518.575 155.957 518.896 155.076C519.216 154.195 519.376 152.701 519.376 150.592V119.762C519.376 117.333 519.176 115.758 518.775 115.037C518.375 114.29 517.548 113.783 516.293 113.516L513.931 113.035V111.354H543.479V118.721H541.878C541.424 115.518 540.13 113.889 537.994 113.836H524.741V134.216H533.99C535.005 134.216 535.605 134.056 535.792 133.735C536.006 133.415 536.232 132.748 536.473 131.733L536.873 129.972H538.555V140.862H536.873C536.446 138.674 536.046 137.432 535.672 137.139C535.325 136.845 534.751 136.698 533.95 136.698H524.741V156.518H540.316Z" fill="url(#paint33_linear_66_119)"/>
<path d="M462.721 123.365C462.721 128.811 463.935 131.547 466.364 131.573C466.791 131.573 467.459 131.173 468.366 130.372C469.888 129.251 471.169 128.65 472.21 128.57C473.918 128.57 474.853 129.384 475.013 131.013C475.093 132.107 474.586 132.961 473.491 133.575C472.931 133.869 472.343 134.016 471.729 134.016C468.687 134.016 466.484 133.789 465.123 133.335C461.786 132.241 459.491 129.998 458.236 126.608C457.676 125.034 457.396 123.365 457.396 121.604C457.396 116.532 459.771 113.329 464.522 111.994C465.991 111.567 467.592 111.354 469.327 111.354H499.677C502.613 111.354 504.508 110.74 505.362 109.512C505.923 108.658 506.203 107.376 506.203 105.668H507.885C508.926 109.165 508.912 111.474 507.845 112.595C506.777 113.689 505.002 114.316 502.52 114.477H487.385V150.632C487.385 153.088 487.558 154.689 487.905 155.437C488.252 156.157 489.066 156.651 490.348 156.918L492.67 157.358V159H477.135V157.318L479.897 156.718C480.885 156.504 481.499 156.197 481.739 155.797C481.953 155.343 482.06 154.369 482.06 152.874V114.477H468.847C465.75 114.477 463.815 116.318 463.041 120.002C462.827 121.043 462.721 122.164 462.721 123.365Z" fill="url(#paint34_linear_66_119)"/>
<path d="M399.339 114.236C399.339 112.341 400.687 111.38 403.383 111.354H430.169C432.625 111.354 435.014 111.927 437.336 113.075C441.527 115.184 443.635 118.614 443.662 123.365C443.662 126.995 442.061 130.078 438.857 132.614C437.443 133.709 435.895 134.576 434.213 135.217C436.482 136.578 438.484 138.74 440.219 141.703C443.529 147.442 445.998 151.446 447.626 153.715C449.281 155.984 450.923 157.358 452.551 157.839V159.961C448.227 160.361 444.863 159.534 442.461 157.479C440.085 155.423 437.683 151.98 435.254 147.148C432.825 142.29 431.277 139.314 430.609 138.22C429.942 137.125 429.301 136.578 428.688 136.578C428.1 136.551 427.606 137.019 427.206 137.979C426.832 138.94 426.525 139.541 426.285 139.781C425.885 140.155 425.244 140.355 424.363 140.382C423.509 140.382 422.828 139.995 422.321 139.221C421.841 138.447 421.601 137.713 421.601 137.019C421.601 134.75 423.536 133.615 427.406 133.615C428.207 133.615 428.874 133.642 429.408 133.695C432.825 133.535 435.201 131.854 436.535 128.65C437.122 127.182 437.416 125.594 437.416 123.886C437.416 119.775 435.921 116.879 432.932 115.197C431.33 114.316 429.475 113.876 427.366 113.876H420.359V152.954C420.359 154.689 420.506 155.73 420.8 156.077C421.093 156.397 421.667 156.638 422.521 156.798L425.244 157.358V159H409.669V157.438L411.991 156.958C413.406 156.664 414.247 156.117 414.514 155.316C414.807 154.516 414.954 152.981 414.954 150.712V119.001C414.42 115.504 413.006 113.702 410.71 113.596C409.909 113.596 408.855 114.116 407.547 115.157C405.758 116.599 404.21 117.333 402.902 117.359C401.594 117.359 400.674 117.012 400.14 116.318C399.606 115.598 399.339 114.904 399.339 114.236Z" fill="url(#paint35_linear_66_119)"/>
<path d="M368.108 110.713C371.392 110.713 373.927 111.26 375.716 112.354C378.198 113.929 380.187 116.879 381.682 121.203C387.074 136.925 390.49 146.681 391.932 150.472C393.426 154.422 395.255 156.611 397.417 157.038L399.219 157.358V159H382.723V157.318L385.806 156.638C387.06 156.317 387.701 155.623 387.728 154.556C387.728 153.915 387.541 153.048 387.167 151.953L384.204 143.064H367.988C365.719 150.245 364.558 154.062 364.505 154.516C364.505 155.69 365.439 156.491 367.308 156.918L369.67 157.358V159H354.575V157.318L356.817 156.918C358.793 156.544 360.514 154.235 361.982 149.991L370.631 124.887C372.206 120.269 373.033 117.493 373.113 116.559C373.22 115.624 372.913 115.157 372.192 115.157C371.338 115.157 370.524 115.304 369.75 115.598C369.003 115.891 368.522 116.038 368.309 116.038C367.027 116.038 366.16 115.451 365.706 114.276C365.573 113.876 365.506 113.462 365.506 113.035C365.693 111.567 366.56 110.793 368.108 110.713ZM376.196 118.4L368.829 140.582H383.443L376.196 118.4Z" fill="url(#paint36_linear_66_119)"/>
<path d="M311.773 123.365C311.773 128.811 312.988 131.547 315.417 131.573C315.844 131.573 316.511 131.173 317.419 130.372C318.94 129.251 320.222 128.65 321.263 128.57C322.971 128.57 323.905 129.384 324.065 131.013C324.146 132.107 323.638 132.961 322.544 133.575C321.983 133.869 321.396 134.016 320.782 134.016C317.739 134.016 315.537 133.789 314.176 133.335C310.839 132.241 308.544 129.998 307.289 126.608C306.729 125.034 306.448 123.365 306.448 121.604C306.448 116.532 308.824 113.329 313.575 111.994C315.043 111.567 316.645 111.354 318.38 111.354H348.729C351.666 111.354 353.561 110.74 354.415 109.512C354.976 108.658 355.256 107.376 355.256 105.668H356.938C357.979 109.165 357.965 111.474 356.897 112.595C355.83 113.689 354.055 114.316 351.572 114.477H336.438V150.632C336.438 153.088 336.611 154.689 336.958 155.437C337.305 156.157 338.119 156.651 339.4 156.918L341.723 157.358V159H326.188V157.318L328.95 156.718C329.938 156.504 330.552 156.197 330.792 155.797C331.006 155.343 331.112 154.369 331.112 152.874V114.477H317.899C314.803 114.477 312.868 116.318 312.094 120.002C311.88 121.043 311.773 122.164 311.773 123.365Z" fill="url(#paint37_linear_66_119)"/>
<path d="M296.879 123.165C296.479 116.892 293.489 113.743 287.91 113.716C284.627 113.716 282.371 114.703 281.144 116.679C280.583 117.586 280.303 118.734 280.303 120.122C280.303 121.67 281.13 123.192 282.785 124.687L284.106 125.848L293.035 133.415C298.347 138.033 301.016 143.104 301.043 148.63C301.043 152.18 299.508 155.023 296.438 157.158C293.369 159.267 289.872 160.321 285.948 160.321C283.439 160.321 281.464 159.974 280.022 159.28C278.581 158.586 277.647 158.132 277.22 157.919C276.819 157.705 276.059 157.198 274.938 156.397L273.256 155.196V148.029C273.256 145.68 274.083 143.905 275.738 142.704C277.393 141.476 279.302 140.862 281.464 140.862C283.626 140.862 285.428 141.209 286.869 141.903C288.284 142.624 289.005 143.558 289.031 144.706V144.786C289.031 145.907 288.471 146.641 287.35 146.988C287.083 147.068 286.802 147.108 286.509 147.108C285.548 147.108 284.907 146.721 284.587 145.947C284.293 145.173 284.133 144.759 284.106 144.706C283.573 143.959 282.518 143.585 280.943 143.585C278.674 143.585 277.286 144.666 276.779 146.828C276.673 147.255 276.619 147.656 276.619 148.029C276.619 152.06 278.101 154.836 281.063 156.357C282.478 157.078 284.133 157.438 286.028 157.438C290.379 157.438 293.342 155.97 294.917 153.034C295.558 151.833 295.878 150.578 295.878 149.271C295.878 147.028 294.837 144.452 292.755 141.543C291.714 140.075 290.633 138.887 289.512 137.979L282.185 132.054C278.875 129.331 276.833 127.156 276.059 125.527C275.311 123.872 274.938 122.351 274.938 120.963C274.938 117.76 276.245 115.291 278.861 113.556C281.477 111.794 284.56 110.913 288.11 110.913C292.194 110.913 296.025 112.021 299.602 114.236L299.562 123.165H296.879Z" fill="url(#paint38_linear_66_119)"/>
<path d="M231.135 113.516C228.465 113.516 227.118 112.581 227.091 110.713C227.091 109.298 227.785 108.324 229.173 107.79C229.653 107.63 230.12 107.536 230.574 107.51C231.989 107.51 233.11 108.017 233.938 109.031C234.792 110.046 235.379 110.686 235.699 110.953C236.046 111.22 236.553 111.354 237.221 111.354H251.354V113.115L248.632 113.716C247.671 113.929 247.097 114.236 246.91 114.637C246.75 115.01 246.67 115.985 246.67 117.56V152.874C246.67 154.582 246.79 155.597 247.03 155.917C247.271 156.211 247.804 156.451 248.632 156.638L251.354 157.238V159H235.819V157.318L238.142 156.838C239.583 156.544 240.464 155.957 240.784 155.076C241.104 154.195 241.265 152.701 241.265 150.592V118.641C241.211 115.838 240.531 114.223 239.223 113.796C238.822 113.662 238.302 113.596 237.661 113.596L231.135 113.516Z" fill="url(#paint39_linear_66_119)"/>
<path d="M181.326 111.354H196.981V113.315C195.273 113.315 194.059 113.729 193.338 114.557C192.644 115.357 192.297 116.091 192.297 116.759C192.297 117.426 192.43 118.147 192.697 118.921C192.964 119.668 193.298 120.656 193.698 121.884L203.388 151.633L216.801 117.279C217.468 115.571 217.308 114.49 216.32 114.036C215.359 113.556 213.891 113.315 211.916 113.315V111.354H227.211V113.315C225.93 113.369 224.915 113.476 224.168 113.636C223.447 113.796 222.86 114.063 222.406 114.437C221.952 114.784 221.592 115.251 221.325 115.838C221.058 116.398 220.751 117.119 220.404 118L204.028 159H200.945L189.454 122.965L176.241 159H173.238L159.465 121.203C158.237 117.84 157.209 115.691 156.382 114.757C155.554 113.796 153.766 113.315 151.017 113.315V111.354H169.034V113.315C165.858 113.315 164.27 113.996 164.27 115.357C164.27 115.678 164.31 116.091 164.39 116.599C164.47 117.079 164.576 117.613 164.71 118.2C164.87 118.761 165.044 119.361 165.23 120.002C165.417 120.643 165.618 121.27 165.831 121.884L175.761 151.353L187.772 117.76C187.399 116.745 187.052 115.945 186.731 115.357C186.411 114.77 186.024 114.33 185.57 114.036C185.117 113.716 184.556 113.516 183.889 113.436C183.221 113.355 182.367 113.315 181.326 113.315V111.354Z" fill="url(#paint40_linear_66_119)"/>
<path d="M129.355 113.516C126.686 113.516 125.338 112.581 125.312 110.713C125.312 109.298 126.006 108.324 127.394 107.79C127.874 107.63 128.341 107.536 128.795 107.51C130.21 107.51 131.331 108.017 132.158 109.031C133.012 110.046 133.6 110.686 133.92 110.953C134.267 111.22 134.774 111.354 135.441 111.354H149.575V113.115L146.853 113.716C145.892 113.929 145.318 114.236 145.131 114.637C144.971 115.01 144.891 115.985 144.891 117.56V152.874C144.891 154.582 145.011 155.597 145.251 155.917C145.491 156.211 146.025 156.451 146.853 156.638L149.575 157.238V159H134.04V157.318L136.362 156.838C137.804 156.544 138.685 155.957 139.005 155.076C139.325 154.195 139.485 152.701 139.485 150.592V118.641C139.432 115.838 138.751 114.223 137.443 113.796C137.043 113.662 136.522 113.596 135.882 113.596L129.355 113.516Z" fill="url(#paint41_linear_66_119)"/>
<path d="M73.6611 113.035C73.6611 111.487 74.6354 110.713 76.584 110.713C81.7891 110.713 85.486 111.994 87.6748 114.557L113.46 149.751V119.802C113.46 117.373 113.246 115.798 112.819 115.077C112.392 114.356 111.551 113.863 110.297 113.596L107.975 113.115V111.354H121.548V113.195L118.825 113.756C117.891 113.943 117.33 114.236 117.144 114.637C116.957 115.037 116.863 116.038 116.863 117.64V160.161H115.222L86.9541 122.044L86.9141 152.914C86.9141 154.676 87.0609 155.73 87.3545 156.077C87.6748 156.397 88.2487 156.638 89.0762 156.798L91.7988 157.358V159H78.3057V157.438L80.6279 156.958C82.0426 156.664 82.8835 156.117 83.1504 155.316C83.444 154.516 83.5908 152.981 83.5908 150.712V122.765C83.5641 117.213 82.8034 114.41 81.3086 114.356C80.6146 114.356 79.6803 114.637 78.5059 115.197C77.3314 115.758 76.6507 116.038 76.4639 116.038C75.1826 116.038 74.3151 115.451 73.8613 114.276C73.7279 113.876 73.6611 113.462 73.6611 113.035Z" fill="url(#paint42_linear_66_119)"/>
<path d="M170.858 203.578L171.206 203.219L170.858 203.578ZM226.036 209.981C226.308 209.933 226.568 210.114 226.616 210.386C226.665 210.658 226.484 210.917 226.212 210.966L226.036 209.981ZM163.478 169.243C163.401 169.508 163.123 169.66 162.858 169.583C162.593 169.505 162.441 169.228 162.518 168.963L163.478 169.243ZM161.595 172.805C161.646 172.533 161.908 172.355 162.179 172.406C162.45 172.457 162.629 172.719 162.577 172.99L161.595 172.805ZM162.059 176.8C162.036 177.075 161.794 177.28 161.519 177.257C161.244 177.234 161.04 176.992 161.062 176.717L162.059 176.8ZM160.948 180.67C160.941 180.394 161.159 180.165 161.435 180.158C161.711 180.151 161.941 180.369 161.948 180.645L160.948 180.67ZM162.259 184.474C162.296 184.748 162.105 185 161.831 185.038C161.558 185.075 161.305 184.884 161.268 184.611L162.259 184.474ZM162.023 188.492C161.956 188.224 162.118 187.952 162.385 187.884C162.653 187.817 162.925 187.979 162.993 188.247L162.023 188.492ZM164.141 191.916C164.238 192.175 164.107 192.463 163.848 192.56C163.589 192.657 163.301 192.526 163.204 192.267L164.141 191.916ZM164.792 195.888C164.667 195.642 164.766 195.341 165.012 195.216C165.259 195.092 165.559 195.191 165.684 195.437L164.792 195.888ZM167.607 198.766C167.759 198.996 167.694 199.306 167.463 199.458C167.233 199.61 166.923 199.545 166.771 199.314L167.607 198.766ZM169.147 202.484C168.967 202.275 168.991 201.959 169.2 201.779C169.409 201.599 169.725 201.622 169.905 201.831L169.147 202.484ZM172.71 204.546C172.925 204.719 172.959 205.034 172.785 205.249C172.612 205.464 172.297 205.498 172.082 205.325L172.71 204.546ZM175.543 207.669C175.303 207.532 175.219 207.227 175.356 206.987C175.493 206.747 175.798 206.664 176.038 206.8L175.543 207.669ZM179.674 208.56C179.93 208.664 180.053 208.956 179.948 209.212C179.844 209.467 179.552 209.59 179.296 209.485L179.674 208.56ZM183.22 210.849C182.955 210.771 182.803 210.493 182.88 210.228C182.958 209.963 183.236 209.811 183.501 209.889L183.22 210.849ZM187.445 210.86C187.715 210.915 187.89 211.179 187.835 211.449C187.78 211.72 187.516 211.895 187.245 211.839L187.445 210.86ZM191.327 212.524C191.053 212.487 190.861 212.236 190.898 211.962C190.935 211.688 191.186 211.496 191.46 211.533L191.327 212.524ZM195.515 211.958C195.791 211.979 195.997 212.219 195.975 212.495C195.954 212.77 195.714 212.976 195.438 212.955L195.515 211.958ZM199.562 213.172C199.286 213.164 199.069 212.933 199.077 212.657C199.085 212.381 199.316 212.164 199.592 212.172L199.562 213.172ZM203.677 212.207C203.953 212.203 204.179 212.425 204.182 212.701C204.186 212.977 203.964 213.203 203.688 213.206L203.677 212.207ZM207.809 213.083C207.533 213.096 207.299 212.883 207.286 212.607C207.273 212.332 207.486 212.097 207.762 212.084L207.809 213.083ZM211.843 211.823C212.118 211.801 212.359 212.007 212.381 212.282C212.403 212.557 212.198 212.798 211.923 212.82L211.843 211.823ZM216.028 212.431C215.753 212.461 215.507 212.263 215.477 211.988C215.447 211.714 215.645 211.467 215.919 211.437L216.028 212.431ZM219.979 210.936C220.252 210.898 220.504 211.09 220.542 211.363C220.579 211.637 220.388 211.889 220.114 211.927L219.979 210.936ZM224.192 211.312C223.919 211.357 223.662 211.172 223.617 210.9C223.572 210.627 223.757 210.37 224.03 210.325L224.192 211.312ZM164.061 167.403C163.85 168.022 163.655 168.635 163.478 169.243L162.518 168.963C162.7 168.341 162.899 167.713 163.115 167.08L164.061 167.403ZM162.577 172.99C162.332 174.291 162.162 175.561 162.059 176.8L161.062 176.717C161.168 175.444 161.343 174.139 161.595 172.805L162.577 172.99ZM161.948 180.645C161.982 181.965 162.089 183.243 162.259 184.474L161.268 184.611C161.094 183.343 160.983 182.029 160.948 180.67L161.948 180.645ZM162.993 188.247C163.319 189.535 163.708 190.759 164.141 191.916L163.204 192.267C162.759 191.077 162.359 189.817 162.023 188.492L162.993 188.247ZM165.684 195.437C166.3 196.656 166.952 197.768 167.607 198.766L166.771 199.314C166.096 198.286 165.425 197.142 164.792 195.888L165.684 195.437ZM169.905 201.831C170.365 202.365 170.803 202.828 171.206 203.219L170.51 203.937C170.084 203.524 169.625 203.039 169.147 202.484L169.905 201.831ZM171.206 203.219C171.685 203.682 172.187 204.125 172.71 204.546L172.082 205.325C171.537 204.885 171.012 204.423 170.51 203.937L171.206 203.219ZM176.038 206.8C177.188 207.456 178.403 208.04 179.674 208.56L179.296 209.485C177.989 208.951 176.733 208.348 175.543 207.669L176.038 206.8ZM183.501 209.889C184.781 210.263 186.099 210.585 187.445 210.86L187.245 211.839C185.874 211.56 184.529 211.231 183.22 210.849L183.501 209.889ZM191.46 211.533C192.798 211.712 194.152 211.852 195.515 211.958L195.438 212.955C194.058 212.848 192.685 212.706 191.327 212.524L191.46 211.533ZM199.592 212.172C200.957 212.212 202.321 212.222 203.677 212.207L203.688 213.206C202.32 213.222 200.942 213.212 199.562 213.172L199.592 212.172ZM207.762 212.084C209.145 212.018 210.509 211.93 211.843 211.823L211.923 212.82C210.578 212.927 209.204 213.017 207.809 213.083L207.762 212.084ZM215.919 211.437C217.326 211.283 218.684 211.114 219.979 210.936L220.114 211.927C218.811 212.105 217.445 212.276 216.028 212.431L215.919 211.437ZM224.03 210.325C224.729 210.21 225.399 210.095 226.036 209.981L226.212 210.966C225.57 211.08 224.896 211.196 224.192 211.312L224.03 210.325Z" fill="url(#paint43_linear_66_119)"/>
<path d="M222.491 205.752L223.06 216.078C223.097 216.746 223.955 216.905 224.635 216.37L232.337 210.31C232.943 209.832 233.036 209.082 232.52 208.816L224.249 204.55C223.562 204.195 222.447 204.957 222.491 205.752Z" fill="url(#paint44_linear_66_119)"/>
</g>
<defs>
<linearGradient id="paint0_linear_66_119" x1="39" y1="1" x2="38.9999" y2="297" gradientUnits="userSpaceOnUse">
<stop stop-color="#F43F5E" stop-opacity="0"/>
<stop offset="0.21" stop-color="#F43F5E"/>
<stop offset="0.5" stop-color="#7E22CE"/>
<stop offset="0.785" stop-color="#60A5FA"/>
<stop offset="1" stop-color="#60A5FA" stop-opacity="0"/>
</linearGradient>
<linearGradient id="paint1_linear_66_119" x1="2" y1="1" x2="1.9999" y2="297" gradientUnits="userSpaceOnUse">
<stop stop-color="#F43F5E" stop-opacity="0"/>
<stop offset="0.21" stop-color="#F43F5E"/>
<stop offset="0.5" stop-color="#7E22CE"/>
<stop offset="0.785" stop-color="#60A5FA"/>
<stop offset="1" stop-color="#60A5FA" stop-opacity="0"/>
</linearGradient>
<linearGradient id="paint2_linear_66_119" x1="682" y1="1" x2="682" y2="297" gradientUnits="userSpaceOnUse">
<stop stop-color="#F43F5E" stop-opacity="0"/>
<stop offset="0.21" stop-color="#F43F5E"/>
<stop offset="0.5" stop-color="#7E22CE"/>
<stop offset="0.785" stop-color="#60A5FA"/>
<stop offset="1" stop-color="#60A5FA" stop-opacity="0"/>
</linearGradient>
<linearGradient id="paint3_linear_66_119" x1="645" y1="1" x2="645" y2="297" gradientUnits="userSpaceOnUse">
<stop stop-color="#F43F5E" stop-opacity="0"/>
<stop offset="0.21" stop-color="#F43F5E"/>
<stop offset="0.5" stop-color="#7E22CE"/>
<stop offset="0.785" stop-color="#60A5FA"/>
<stop offset="1" stop-color="#60A5FA" stop-opacity="0"/>
</linearGradient>
<linearGradient id="paint4_linear_66_119" x1="677" y1="110" x2="-4.12162e-05" y2="109.999" gradientUnits="userSpaceOnUse">
<stop stop-color="#F43F5E" stop-opacity="0"/>
<stop offset="0.21" stop-color="#F43F5E"/>
<stop offset="0.5" stop-color="#7E22CE"/>
<stop offset="0.785" stop-color="#60A5FA"/>
<stop offset="1" stop-color="#60A5FA" stop-opacity="0"/>
</linearGradient>
<linearGradient id="paint5_linear_66_119" x1="677" y1="73" x2="-4.12162e-05" y2="72.9994" gradientUnits="userSpaceOnUse">
<stop stop-color="#F43F5E" stop-opacity="0"/>
<stop offset="0.21" stop-color="#F43F5E"/>
<stop offset="0.5" stop-color="#7E22CE"/>
<stop offset="0.785" stop-color="#60A5FA"/>
<stop offset="1" stop-color="#60A5FA" stop-opacity="0"/>
</linearGradient>
<linearGradient id="paint6_linear_66_119" x1="677" y1="298" x2="-4.12162e-05" y2="297.999" gradientUnits="userSpaceOnUse">
<stop stop-color="#F43F5E" stop-opacity="0"/>
<stop offset="0.21" stop-color="#F43F5E"/>
<stop offset="0.5" stop-color="#7E22CE"/>
<stop offset="0.785" stop-color="#60A5FA"/>
<stop offset="1" stop-color="#60A5FA" stop-opacity="0"/>
</linearGradient>
<linearGradient id="paint7_linear_66_119" x1="677" y1="261" x2="-4.12162e-05" y2="260.999" gradientUnits="userSpaceOnUse">
<stop stop-color="#F43F5E" stop-opacity="0"/>
<stop offset="0.21" stop-color="#F43F5E"/>
<stop offset="0.5" stop-color="#7E22CE"/>
<stop offset="0.785" stop-color="#60A5FA"/>
<stop offset="1" stop-color="#60A5FA" stop-opacity="0"/>
</linearGradient>
<linearGradient id="paint8_linear_66_119" x1="677" y1="39" x2="-4.12162e-05" y2="38.9994" gradientUnits="userSpaceOnUse">
<stop stop-color="#F43F5E" stop-opacity="0"/>
<stop offset="0.21" stop-color="#F43F5E"/>
<stop offset="0.5" stop-color="#7E22CE"/>
<stop offset="0.785" stop-color="#60A5FA"/>
<stop offset="1" stop-color="#60A5FA" stop-opacity="0"/>
</linearGradient>
<linearGradient id="paint9_linear_66_119" x1="677" y1="2" x2="-4.12162e-05" y2="1.99942" gradientUnits="userSpaceOnUse">
<stop stop-color="#F43F5E" stop-opacity="0"/>
<stop offset="0.21" stop-color="#F43F5E"/>
<stop offset="0.5" stop-color="#7E22CE"/>
<stop offset="0.785" stop-color="#60A5FA"/>
<stop offset="1" stop-color="#60A5FA" stop-opacity="0"/>
</linearGradient>
<linearGradient id="paint10_linear_66_119" x1="677" y1="227" x2="-4.12162e-05" y2="226.999" gradientUnits="userSpaceOnUse">
<stop stop-color="#F43F5E" stop-opacity="0"/>
<stop offset="0.21" stop-color="#F43F5E"/>
<stop offset="0.5" stop-color="#7E22CE"/>
<stop offset="0.785" stop-color="#60A5FA"/>
<stop offset="1" stop-color="#60A5FA" stop-opacity="0"/>
</linearGradient>
<linearGradient id="paint11_linear_66_119" x1="677" y1="190" x2="-4.12162e-05" y2="189.999" gradientUnits="userSpaceOnUse">
<stop stop-color="#F43F5E" stop-opacity="0"/>
<stop offset="0.21" stop-color="#F43F5E"/>
<stop offset="0.5" stop-color="#7E22CE"/>
<stop offset="0.785" stop-color="#60A5FA"/>
<stop offset="1" stop-color="#60A5FA" stop-opacity="0"/>
</linearGradient>
<linearGradient id="paint12_linear_66_119" x1="96" y1="3" x2="95.9999" y2="297" gradientUnits="userSpaceOnUse">
<stop stop-color="#F43F5E" stop-opacity="0"/>
<stop offset="0.21" stop-color="#F43F5E"/>
<stop offset="0.5" stop-color="#7E22CE"/>
<stop offset="0.785" stop-color="#60A5FA"/>
<stop offset="1" stop-color="#60A5FA" stop-opacity="0"/>
</linearGradient>
<linearGradient id="paint13_linear_66_119" x1="129" y1="3" x2="129" y2="297" gradientUnits="userSpaceOnUse">
<stop stop-color="#F43F5E" stop-opacity="0"/>
<stop offset="0.21" stop-color="#F43F5E"/>
<stop offset="0.5" stop-color="#7E22CE"/>
<stop offset="0.785" stop-color="#60A5FA"/>
<stop offset="1" stop-color="#60A5FA" stop-opacity="0"/>
</linearGradient>
<linearGradient id="paint14_linear_66_119" x1="214" y1="3" x2="214" y2="297" gradientUnits="userSpaceOnUse">
<stop stop-color="#F43F5E" stop-opacity="0"/>
<stop offset="0.21" stop-color="#F43F5E"/>
<stop offset="0.5" stop-color="#7E22CE"/>
<stop offset="0.785" stop-color="#60A5FA"/>
<stop offset="1" stop-color="#60A5FA" stop-opacity="0"/>
</linearGradient>
<linearGradient id="paint15_linear_66_119" x1="241" y1="3" x2="241" y2="297" gradientUnits="userSpaceOnUse">
<stop stop-color="#F43F5E" stop-opacity="0"/>
<stop offset="0.21" stop-color="#F43F5E"/>
<stop offset="0.5" stop-color="#7E22CE"/>
<stop offset="0.785" stop-color="#60A5FA"/>
<stop offset="1" stop-color="#60A5FA" stop-opacity="0"/>
</linearGradient>
<linearGradient id="paint16_linear_66_119" x1="264" y1="3" x2="264" y2="297" gradientUnits="userSpaceOnUse">
<stop stop-color="#F43F5E" stop-opacity="0"/>
<stop offset="0.21" stop-color="#F43F5E"/>
<stop offset="0.5" stop-color="#7E22CE"/>
<stop offset="0.785" stop-color="#60A5FA"/>
<stop offset="1" stop-color="#60A5FA" stop-opacity="0"/>
</linearGradient>
<linearGradient id="paint17_linear_66_119" x1="300" y1="3" x2="300" y2="297" gradientUnits="userSpaceOnUse">
<stop stop-color="#F43F5E" stop-opacity="0"/>
<stop offset="0.21" stop-color="#F43F5E"/>
<stop offset="0.5" stop-color="#7E22CE"/>
<stop offset="0.785" stop-color="#60A5FA"/>
<stop offset="1" stop-color="#60A5FA" stop-opacity="0"/>
</linearGradient>
<linearGradient id="paint18_linear_66_119" x1="359" y1="3" x2="359" y2="297" gradientUnits="userSpaceOnUse">
<stop stop-color="#F43F5E" stop-opacity="0"/>
<stop offset="0.21" stop-color="#F43F5E"/>
<stop offset="0.5" stop-color="#7E22CE"/>
<stop offset="0.785" stop-color="#60A5FA"/>
<stop offset="1" stop-color="#60A5FA" stop-opacity="0"/>
</linearGradient>
<linearGradient id="paint19_linear_66_119" x1="407" y1="3" x2="407" y2="297" gradientUnits="userSpaceOnUse">
<stop stop-color="#F43F5E" stop-opacity="0"/>
<stop offset="0.21" stop-color="#F43F5E"/>
<stop offset="0.5" stop-color="#7E22CE"/>
<stop offset="0.785" stop-color="#60A5FA"/>
<stop offset="1" stop-color="#60A5FA" stop-opacity="0"/>
</linearGradient>
<linearGradient id="paint20_linear_66_119" x1="471" y1="3" x2="471" y2="297" gradientUnits="userSpaceOnUse">
<stop stop-color="#F43F5E" stop-opacity="0"/>
<stop offset="0.21" stop-color="#F43F5E"/>
<stop offset="0.5" stop-color="#7E22CE"/>
<stop offset="0.785" stop-color="#60A5FA"/>
<stop offset="1" stop-color="#60A5FA" stop-opacity="0"/>
</linearGradient>
<linearGradient id="paint21_linear_66_119" x1="533" y1="3" x2="533" y2="297" gradientUnits="userSpaceOnUse">
<stop stop-color="#F43F5E" stop-opacity="0"/>
<stop offset="0.21" stop-color="#F43F5E"/>
<stop offset="0.5" stop-color="#7E22CE"/>
<stop offset="0.785" stop-color="#60A5FA"/>
<stop offset="1" stop-color="#60A5FA" stop-opacity="0"/>
</linearGradient>
<linearGradient id="paint22_linear_66_119" x1="576" y1="3" x2="576" y2="297" gradientUnits="userSpaceOnUse">
<stop stop-color="#F43F5E" stop-opacity="0"/>
<stop offset="0.21" stop-color="#F43F5E"/>
<stop offset="0.5" stop-color="#7E22CE"/>
<stop offset="0.785" stop-color="#60A5FA"/>
<stop offset="1" stop-color="#60A5FA" stop-opacity="0"/>
</linearGradient>
<linearGradient id="paint23_linear_66_119" x1="118" y1="109" x2="118" y2="189" gradientUnits="userSpaceOnUse">
<stop stop-color="#F43F5E" stop-opacity="0"/>
<stop offset="0.21" stop-color="#F43F5E"/>
<stop offset="0.5" stop-color="#7E22CE"/>
<stop offset="0.785" stop-color="#60A5FA"/>
<stop offset="1" stop-color="#60A5FA" stop-opacity="0"/>
</linearGradient>
<linearGradient id="paint24_linear_66_119" x1="478" y1="109" x2="478" y2="189" gradientUnits="userSpaceOnUse">
<stop stop-color="#F43F5E" stop-opacity="0"/>
<stop offset="0.21" stop-color="#F43F5E"/>
<stop offset="0.5" stop-color="#7E22CE"/>
<stop offset="0.785" stop-color="#60A5FA"/>
<stop offset="1" stop-color="#60A5FA" stop-opacity="0"/>
</linearGradient>
<linearGradient id="paint25_linear_66_119" x1="563" y1="109" x2="563" y2="189" gradientUnits="userSpaceOnUse">
<stop stop-color="#F43F5E" stop-opacity="0"/>
<stop offset="0.21" stop-color="#F43F5E"/>
<stop offset="0.5" stop-color="#7E22CE"/>
<stop offset="0.785" stop-color="#60A5FA"/>
<stop offset="1" stop-color="#60A5FA" stop-opacity="0"/>
</linearGradient>
<linearGradient id="paint26_linear_66_119" x1="644" y1="109" x2="644" y2="189" gradientUnits="userSpaceOnUse">
<stop stop-color="#F43F5E" stop-opacity="0"/>
<stop offset="0.21" stop-color="#F43F5E"/>
<stop offset="0.5" stop-color="#7E22CE"/>
<stop offset="0.785" stop-color="#60A5FA"/>
<stop offset="1" stop-color="#60A5FA" stop-opacity="0"/>
</linearGradient>
<linearGradient id="paint27_linear_66_119" x1="38.5001" y1="3" x2="38.5001" y2="297" gradientUnits="userSpaceOnUse">
<stop stop-color="#F43F5E" stop-opacity="0"/>
<stop offset="0.21" stop-color="#F43F5E"/>
<stop offset="0.5" stop-color="#7E22CE"/>
<stop offset="0.785" stop-color="#60A5FA"/>
<stop offset="1" stop-color="#60A5FA" stop-opacity="0"/>
</linearGradient>
<linearGradient id="paint28_linear_66_119" x1="0.999909" y1="3" x2="0.999912" y2="297" gradientUnits="userSpaceOnUse">
<stop stop-color="#F43F5E" stop-opacity="0"/>
<stop offset="0.21" stop-color="#F43F5E"/>
<stop offset="0.5" stop-color="#7E22CE"/>
<stop offset="0.785" stop-color="#60A5FA"/>
<stop offset="1" stop-color="#60A5FA" stop-opacity="0"/>
</linearGradient>
<linearGradient id="paint29_linear_66_119" x1="680.5" y1="3" x2="680.5" y2="297" gradientUnits="userSpaceOnUse">
<stop stop-color="#F43F5E" stop-opacity="0"/>
<stop offset="0.21" stop-color="#F43F5E"/>
<stop offset="0.5" stop-color="#7E22CE"/>
<stop offset="0.785" stop-color="#60A5FA"/>
<stop offset="1" stop-color="#60A5FA" stop-opacity="0"/>
</linearGradient>
<linearGradient id="paint30_linear_66_119" x1="643" y1="3" x2="643" y2="297" gradientUnits="userSpaceOnUse">
<stop stop-color="#F43F5E" stop-opacity="0"/>
<stop offset="0.21" stop-color="#F43F5E"/>
<stop offset="0.5" stop-color="#7E22CE"/>
<stop offset="0.785" stop-color="#60A5FA"/>
<stop offset="1" stop-color="#60A5FA" stop-opacity="0"/>
</linearGradient>
<linearGradient id="paint31_linear_66_119" x1="250" y1="186.071" x2="260.887" y2="237.914" gradientUnits="userSpaceOnUse">
<stop stop-color="#F43F5E"/>
<stop offset="0.5" stop-color="#7E22CE"/>
<stop offset="1" stop-color="#60A5FA"/>
</linearGradient>
<linearGradient id="paint32_linear_66_119" x1="39" y1="95" x2="75.4125" y2="299.748" gradientUnits="userSpaceOnUse">
<stop stop-color="#F43F5E"/>
<stop offset="0.52" stop-color="#7E22CE"/>
<stop offset="1" stop-color="#60A5FA"/>
</linearGradient>
<linearGradient id="paint33_linear_66_119" x1="39" y1="95" x2="75.4125" y2="299.748" gradientUnits="userSpaceOnUse">
<stop stop-color="#F43F5E"/>
<stop offset="0.52" stop-color="#7E22CE"/>
<stop offset="1" stop-color="#60A5FA"/>
</linearGradient>
<linearGradient id="paint34_linear_66_119" x1="39" y1="95" x2="75.4125" y2="299.748" gradientUnits="userSpaceOnUse">
<stop stop-color="#F43F5E"/>
<stop offset="0.52" stop-color="#7E22CE"/>
<stop offset="1" stop-color="#60A5FA"/>
</linearGradient>
<linearGradient id="paint35_linear_66_119" x1="39" y1="95" x2="75.4125" y2="299.748" gradientUnits="userSpaceOnUse">
<stop stop-color="#F43F5E"/>
<stop offset="0.52" stop-color="#7E22CE"/>
<stop offset="1" stop-color="#60A5FA"/>
</linearGradient>
<linearGradient id="paint36_linear_66_119" x1="39" y1="95" x2="75.4125" y2="299.748" gradientUnits="userSpaceOnUse">
<stop stop-color="#F43F5E"/>
<stop offset="0.52" stop-color="#7E22CE"/>
<stop offset="1" stop-color="#60A5FA"/>
</linearGradient>
<linearGradient id="paint37_linear_66_119" x1="39" y1="95" x2="75.4125" y2="299.748" gradientUnits="userSpaceOnUse">
<stop stop-color="#F43F5E"/>
<stop offset="0.52" stop-color="#7E22CE"/>
<stop offset="1" stop-color="#60A5FA"/>
</linearGradient>
<linearGradient id="paint38_linear_66_119" x1="39" y1="95" x2="75.4125" y2="299.748" gradientUnits="userSpaceOnUse">
<stop stop-color="#F43F5E"/>
<stop offset="0.52" stop-color="#7E22CE"/>
<stop offset="1" stop-color="#60A5FA"/>
</linearGradient>
<linearGradient id="paint39_linear_66_119" x1="39" y1="95" x2="75.4125" y2="299.748" gradientUnits="userSpaceOnUse">
<stop stop-color="#F43F5E"/>
<stop offset="0.52" stop-color="#7E22CE"/>
<stop offset="1" stop-color="#60A5FA"/>
</linearGradient>
<linearGradient id="paint40_linear_66_119" x1="39" y1="95" x2="75.4124" y2="299.748" gradientUnits="userSpaceOnUse">
<stop stop-color="#F43F5E"/>
<stop offset="0.52" stop-color="#7E22CE"/>
<stop offset="1" stop-color="#60A5FA"/>
</linearGradient>
<linearGradient id="paint41_linear_66_119" x1="39" y1="95" x2="75.4125" y2="299.748" gradientUnits="userSpaceOnUse">
<stop stop-color="#F43F5E"/>
<stop offset="0.52" stop-color="#7E22CE"/>
<stop offset="1" stop-color="#60A5FA"/>
</linearGradient>
<linearGradient id="paint42_linear_66_119" x1="39" y1="95" x2="75.4124" y2="299.748" gradientUnits="userSpaceOnUse">
<stop stop-color="#F43F5E"/>
<stop offset="0.52" stop-color="#7E22CE"/>
<stop offset="1" stop-color="#60A5FA"/>
</linearGradient>
<linearGradient id="paint43_linear_66_119" x1="199.763" y1="122.768" x2="338.309" y2="158.751" gradientUnits="userSpaceOnUse">
<stop stop-color="#F43F5E"/>
<stop offset="0.5" stop-color="#7E22CE"/>
<stop offset="1" stop-color="#60A5FA"/>
</linearGradient>
<linearGradient id="paint44_linear_66_119" x1="217.767" y1="217.622" x2="236.911" y2="202.662" gradientUnits="userSpaceOnUse">
<stop stop-color="#F43F5E"/>
<stop offset="0.52" stop-color="#7E22CE"/>
<stop offset="1" stop-color="#60A5FA"/>
</linearGradient>
<clipPath id="clip0_66_119">
<rect width="681" height="297" rx="20" fill="white"/>
</clipPath>
</defs>
</svg>
